<svg enable-background="new 0 0 288 212.76" viewBox="0 0 288 212.76" xmlns="http://www.w3.org/2000/svg"><g fill="#035662"><path d="m50.28 105.48c11.77 0 32.38.47 40.5-14.48 4.47-8.6.35-20.25-8.95-27.43 1.41-1.06 4.12-2.71 7.18-4 3.41-1.41 7.3-2.47 11.07-2.47 2.83 0 4.83.59 5.89 1.18 1.29.71 1.29 1.41 1.53 1.29s0-1.06-.94-1.77c-1.06-.82-3.18-1.88-6.95-1.88-4.12 0-8.01.71-12.24 2.12-3.41 1.18-6.24 2.59-8.01 3.65-6.12-3.77-13.89-7.3-27.9-7.3-20.6 0-42.27 11.18-42.15 25.31.12 7.18 8.36 11.07 16.25 11.3 6.95.35 14.95-1.65 19.19-5.06 4.71-3.77 7.06-9.07 6.59-13.66-.47-4.24-3.77-6.59-7.18-6.71-4.36-.24-7.3 2.36-8.48 3.53-1.53 1.53-2.12 2.94-1.88 3.06.35.12.59-.82 2.24-2.24 1.88-1.65 4.47-3.18 7.53-3.06 2.83.12 5.18 2.24 5.18 5.3v.12c0 3.3-2.47 7.65-6.36 11.3-4.12 3.89-10.24 6.71-16.72 6.36-5.65-.35-8.95-3.3-8.83-9.42.12-13.19 16.01-24.96 34.61-24.96 13.66 0 21.31 3.65 26.49 7.06-5.18 3.06-14.95 10.01-22.61 19.43-7.06 8.71-12.72 17.9-22.61 20.6-6.12-.94-12.72-1.65-16.48-1.65-10.01-.24-16.37 0-16.6 2.35-.35 2.24 8.01 1.88 18.6 1.88 3.3 0 11.77-.47 13.89-.94 3.19.36 11.91 1.19 18.15 1.19zm15.42-21.55c5.53-6.48 9.77-14.01 14.95-19.19 4.71 5.89 4.71 15.78-.35 23.67-7.06 11.18-19.9 15.89-31.79 15.89-2.83 0-8.95-.59-13.3-1.3 10.83-3.06 21.42-7.77 30.49-19.07z"/><path d="m268.21 62.74c-2.24.12-3.88.59-5.42 1.3-.71.35-1.06.71-.94.94.24.24.71 0 1.29-.24.94-.47 2.94-.94 4.95-.94 7.65 0 14.83 3.89 14.83 14.13 0 5.53-2.12 10.12-4.59 13.3-2.94 3.77-7.77 8.12-12.24 10.24-3.42 1.65-7.18 2.94-11.3 2.94-.94 0-1.88-.24-2.24-.82-.35-.47-.35-1.53.47-2.94.71-1.18 2.71-4.24 4.71-6.83 2.36-3.18 3.77-4.94 6.12-7.77 1.18-1.41.59-1.88-3.18-1.88-4.59 0-4.83 0-7.89 3.18.12-1.65-.59-3.77-4.48-3.77-4.24 0-8.59 1.3-11.42 2.47-3.3 1.41-5.77 2.71-8.36 4.47-1.07.71-2.15 1.5-3.37 2.56-.01.01-.03.02-.04.03-.04.03-.08.07-.12.11-.34.3-.69.61-1.06.95-.01.01-.01.01-.02.02-1.27 1.13-2.85 2.49-4.7 3.99-1.88 1.53-3.41 2.47-4.47 3.06s-2.24 1.06-3.06.94c-1.18-.24-1.77-1.3-2-4.36-.12-2 0-4.36.71-5.18.82-.94 3.06-1.3 5.3-1.65 3.3-.59 5.18-1.88 5.18-3.65s-1.77-3.77-6-3.77c-3.3 0-5.53.59-7.77 1.53-2.36 1.06-4.95 2.71-7.89 4.94-4 3.18-7.06 6.12-10.13 8.83l-.12-.12c1.65-2.35 7.3-10.24 12.95-17.54 7.77-10.13 15.07-19.31 20.02-23.9 6.24-5.65 12.71-9.65 24.13-9.65 8.83 0 14.36 4.36 14.01 9.42-.12 1.53-.59 2.35-.35 2.47.35.12.94-.94 1.18-2.47.94-6.48-3.53-13.19-13.42-13.19-11.77 0-25.08 8.83-31.91 14.01-8.24 6.48-15.42 13.66-19.31 18.01-3.18 3.53-7.06 8.12-8.95 10.6-2.8 2.46-5.48 4.71-7.46 6.44-.06.05-.13.1-.19.15-1.3 1.18-4.36 4-7.65 6.12-1.88 1.18-3.53 2-4.83 2.47 1.3-1.06 2.35-2.36 3.18-4.36 1.29-3.3.82-6.71-1.06-9.65-.82-1.18-1.18-2.59-.24-3.53.82-.71 1.77-1.06 2.83-1.77 3.18-2.24 2.47-3.53-.24-3.53-1.18 0-2.71.47-3.65 1.53s-1.65 2.36-1.88 2.83c-1.65 1.41-4.24 3.53-7.06 5.65-1.88 1.41-3.65 2.71-5.3 3.77-.71.47-1.06.82-.82 1.18.24.35.82 0 1.41-.35 1.06-.59 3.77-2.47 5.65-3.89 1.41-1.06 4.24-3.3 5.18-4.24l.12.12c-1.3 1.88-2.94 8.6-5.53 12.72-2.47 4-4.95 5.77-7.54 5.77-1.41 0-2.94-.71-3.06-2.59 0-1.41.71-2.47 1.88-3.41 1.3-1.06 1.77-1.88 1.77-2.94 0-1.41-1.18-2.71-3.77-2.71-2.33 0-5.4 1.89-5.83 5.47-.18.15-.36.29-.52.42-2.47 1.88-4.36 3.06-6.12 3.77-.59.24-1.41.35-2 0s-.71-1.18-.24-2.47c1.06-3.41 11.3-16.95 19.19-26.49 6.24-7.65 15.42-17.42 17.9-19.43-.35-.71-1.77-1.3-3.77-1.3-3.41 0-6.36 1.65-8.24 3.41-4.12 3.89-8.83 8.83-12.83 13.54-5.06 5.77-11.42 13.42-14.36 17.31-2.94 2.59-5.77 4.94-7.77 6.71-.17.15-.32.29-.46.43-1.52 1.35-4.3 3.57-6.37 4.99-5.18 3.41-9.89 4.47-11.42 4.47h-.12c-1.88 0-2.83-.94-2.83-2.47 0-.82.35-1.88.71-2.47 3.18-.47 8.83-2 12.36-3.65 3.65-1.77 7.65-4.12 7.89-7.3.12-2-1.65-3.65-5.89-3.65-5.3 0-12.01 2-17.31 5.53-5.65 3.77-7.53 8.12-7.53 10.71 0 3.06 1.88 5.89 9.54 5.53 4.95-.24 10.01-2 14.83-5.3 2.61-1.77 4.75-3.64 6.19-4.94.09-.07.19-.14.29-.24 1.18-1.06 3.65-3.41 5.77-5.3l.12.12c-2.94 3.3-6.71 8.36-6.71 11.89 0 2.12 1.29 4 5.42 4 4.95 0 9.3-2.59 12.95-5.3.41-.3.87-.64 1.35-1.02.44 3.38 4.09 6.08 9.96 6.08 3.65 0 8.36-.71 11.54-1.65 3.06-.94 5.65-1.88 8.71-4 2.13-1.45 4.26-3.27 5.81-4.65.07-.05.13-.11.2-.17s.14-.12.21-.19c.42-.38.79-.72 1.08-.99.04-.04.07-.07.1-.11 1.26-1.17 2.9-2.7 4.37-4.01l.12.12c-1.41 1.77-3.18 4.12-4 5.3-2 2.83-4 5.89-4.94 7.89-.71 1.53-.47 2.12 3.53 1.88 2.59-.12 4.59-.59 5.53-1.29 3.53-2.36 8.48-7.53 12.83-11.07 3.18-2.59 6-4.71 8.71-5.89 1.65-.71 3.53-1.06 4.36-.59 1.18.71.47 3.06-.24 3.89-.94 1.06-1.77 1.41-3.06 1.65-1.65.24-4.36.59-5.53 1.65-.94.82-2.36 3.18-2.59 6.36-.35 4 1.41 5.77 6.12 5.77 5.18 0 8.83-2.12 12.36-4.83 2.66-2.11 4.9-4.1 6.43-5.51.06-.05.11-.09.16-.14.12-.12 1.06-.94 1.06-.94l.12.12c-2.59 2.71-3.77 5.06-3.77 7.06 0 3.41 2.82 4.59 7.06 4.59 6.24 0 12.01-4.59 15.07-7.3l.12.12c-.82.94-1.3 2.83-1.06 4.12.35 1.77 1.65 3.3 7.42 3.3 5.89 0 11.89-1.41 15.42-3.18 5.77-2.83 10.83-6.36 14.36-10.24 2.71-3.06 6.83-8.24 6.83-14.6 0-11.77-10.24-15.42-19.43-15.07zm-158.24 26.96c3.41-3.77 5.65-4.94 6.95-4.94 1.06 0 1.41.71 1.18 1.77-.35 1.53-2.24 4.47-5.3 6.83-3.18 2.35-6.24 3.41-8.24 3.65 1.17-2.25 2.7-4.37 5.41-7.31zm133.28 8.01c-3.18 2.94-7.65 5.53-9.89 5.53-.82 0-1.41-.35-1.53-1.18-.12-1.53 2.12-4.95 6.47-9.3 4.36-4.24 8.83-7.77 11.07-7.77h.12c1.3 0 2.24.59 2.12 2.12-.12 1.88-4.71 7.3-8.36 10.6z"/><path d="m69.84 35.61c-1.46 2.21-2.16 4.42-2.12 6.62.09 2.43 1.02 4.13 2.78 5.1 1.9 1.06 4.41.91 7.55-.46 2.34-1.02 4.15-2.34 5.43-3.97 0 .09-.02.33-.07.73-.04.49-.07.86-.07 1.13-.04.49-.04.88 0 1.19 0 .49.09.84.27 1.06.22.31.66.55 1.33.73.44.09.99.16 1.66.2h2.78c.44 0 .66-.22.66-.66s-.22-.66-.66-.66h-2.72c-.57-.04-1.06-.11-1.46-.2-.22-.04-.4-.11-.53-.2v-.33c-.04-.26-.04-.62 0-1.06 0-.22.02-.59.07-1.12.04-.4.07-.66.07-.8 0-.22.01-1.3.03-3.24s.03-3.64.03-5.1c-.04-1.37-.13-2.8-.27-4.3-.53-5.83-1.88-9.76-4.04-11.79-1.32-1.28-3.27-1.7-5.83-1.26-2.38.44-4.17 1.37-5.36 2.78-.66.8-.99 1.97-.99 3.51-.04.88.04 2.03.26 3.44.09.4.34.56.76.5.42-.07.61-.32.56-.76-.22-1.33-.31-2.38-.26-3.18 0-1.24.24-2.14.73-2.71.97-1.15 2.47-1.9 4.5-2.25 2.12-.35 3.69-.06 4.7.86 1.85 1.77 3.05 5.12 3.58 10.07-1.85.18-4.31.73-7.35 1.66-2.56.76-4.56 2.27-6.02 4.47zm13.51-4.83c.18 2.3.22 5.43.13 9.41-.04.09-.07.15-.07.2-.88 2.21-2.85 3.97-5.89 5.3-2.74 1.19-4.88 1.35-6.42.46-1.28-.71-1.96-2.01-2.05-3.91-.04-1.99.58-3.95 1.89-5.89 1.3-1.94 3.08-3.25 5.33-3.91 2.95-.93 5.31-1.48 7.08-1.66z"/><path d="m90.5 18.99c2.03 0 4.94.16 8.74.46-.22 7.15-.33 11.15-.33 11.99 0 .31-.04 1.38-.13 3.21s-.11 3.31-.07 4.44c.04 1.12.15 2.24.33 3.34.27 1.28.83 2.53 1.69 3.74s1.84 2.11 2.95 2.68c1.28.71 2.47.82 3.58.33 1.19-.49 2.08-1.63 2.65-3.44.18-.4.05-.67-.36-.83-.42-.15-.7-.01-.83.43-.49 1.41-1.15 2.3-1.99 2.65-.71.31-1.51.22-2.42-.27s-1.74-1.26-2.52-2.32c-.77-1.06-1.25-2.14-1.42-3.24-.13-.84-.24-1.72-.33-2.65-.04-.97-.06-1.82-.03-2.55.02-.73.07-1.68.13-2.85.07-1.17.1-2.06.1-2.68 0-.88.11-4.83.33-11.86 3.62.27 6.45.4 8.48.4.44 0 .66-.22.66-.66s-.22-.66-.66-.66c-2.03 0-4.83-.15-8.41-.46.09-3.62.13-6.73.13-9.34 0-.44-.22-.66-.66-.66s-.66.22-.66.66c0 2.56-.04 5.65-.13 9.27-3.8-.31-6.73-.46-8.81-.46-.44 0-.66.22-.66.66-.01.45.21.67.65.67z"/><path d="m113.55 30.38c.04.04.11.07.2.07-.09 1.15-.09 2.3 0 3.44.22 2.47.8 4.74 1.76 6.79.95 2.05 2.33 3.78 4.14 5.17s3.93 2.09 6.36 2.09c1.94 0 3.6-.35 4.97-1.06s2.74-1.83 4.11-3.38c.26-.35.23-.67-.1-.96s-.65-.28-.96.03c-1.24 1.46-2.45 2.5-3.64 3.11-1.19.62-2.65.93-4.37.93-3.09 0-5.6-1.24-7.52-3.71s-3.06-5.52-3.41-9.14c-.09-1.06-.09-2.14 0-3.24.44.04 1.02.07 1.72.07 1.5.04 3.6.09 6.29.13 2.43.04 4.52.09 6.29.13h2.19.6.2.2c.53-.13.86-.4.99-.79.31-.75.49-1.94.53-3.58 0-1.55-.11-2.71-.33-3.51-.62-1.9-2.21-3.53-4.77-4.9-2.61-1.41-4.83-1.83-6.69-1.26-2.43.79-4.35 2.31-5.76 4.54s-2.3 4.82-2.65 7.78c-.4-.04-.64.11-.73.46-.19.39-.06.66.38.79zm4.07-8.25c1.3-2.01 2.99-3.34 5.07-4.01 1.5-.49 3.39-.12 5.66 1.09 2.27 1.22 3.63 2.59 4.07 4.14.22.66.33 1.7.33 3.11-.04 1.41-.18 2.43-.4 3.05h-.07-.13-.6-2.12c-1.81-.04-3.91-.09-6.29-.13-2.87-.04-4.99-.09-6.36-.13-.62 0-1.17-.02-1.66-.07.37-2.68 1.2-5.03 2.5-7.05z"/><path d="m137.43 46.04c-.15.42-.03.7.36.83 1.41.57 3.75.84 7.02.8 1.55-.04 2.89-.15 4.04-.33 1.37-.26 2.36-.62 2.98-1.06.35-.26.4-.57.13-.93-.26-.35-.57-.4-.93-.13-.44.35-1.24.62-2.38.79-.88.13-1.88.24-2.98.33.04-.13.07-.24.07-.33-.49-3.8-.64-9.61-.46-17.45s.02-13.72-.46-17.65c0-.04-.18-1.04-.53-2.98-.22-1.24-.35-2.21-.4-2.91-.13-1.32-.24-2.23-.33-2.71-.18-.88-.46-1.5-.86-1.85-.53-.49-1.24-.57-2.12-.27-.71.31-1.66.93-2.85 1.85-.35.27-.4.57-.13.93.26.35.57.4.93.13 1.1-.88 1.94-1.43 2.52-1.66.4-.13.66-.15.79-.06.18.18.33.57.46 1.19l.27 2.58c.09.75.24 1.74.46 2.98.27 1.5.42 2.47.46 2.91.49 3.89.64 9.71.46 17.48-.18 7.9-.02 13.78.46 17.62 0 .09.02.15.07.2-2.91 0-4.97-.22-6.16-.66-.44-.17-.74-.05-.89.36z"/><path d="m161.63 6.27c.35 0 .66-.13.93-.4.26-.26.4-.57.4-.93 0-.35-.13-.66-.4-.93-.26-.26-.57-.4-.93-.4-.35 0-.66.13-.93.4-.26.27-.4.57-.4.93 0 .35.13.66.4.93s.58.4.93.4z"/><path d="m154.88 19.85c.79.4 2.08.42 3.84.07.88-.18 1.41-.29 1.59-.33h.53c.04.18.07.42.07.73.09.62.18 1.55.27 2.78.13 2.03.26 4.92.4 8.68.09 1.63.18 3.68.26 6.13.09 2.45.17 4.43.23 5.93.07 1.5.12 2.52.17 3.05v.13c-2.08.04-3.75-.13-5.03-.53-.44-.09-.72.08-.83.5s.03.7.43.83c1.55.44 3.62.6 6.23.46.4 0 1.32-.06 2.78-.17s2.56-.17 3.31-.17c.44 0 .66-.22.66-.66s-.22-.66-.66-.66c-.18 0-2.03.11-5.56.33v-.2c-.04-.49-.1-1.48-.17-2.98s-.14-3.47-.23-5.89c-.09-2.43-.18-4.48-.26-6.16-.13-3.75-.26-6.64-.4-8.68-.09-1.24-.18-2.21-.26-2.91-.04-.35-.09-.64-.13-.86 0-.13-.02-.24-.07-.33-.04-.18-.13-.31-.26-.4-.35-.26-.88-.35-1.59-.26-.27.04-.84.15-1.72.33-1.46.31-2.43.33-2.91.07-.4-.22-.71-.13-.93.27-.25.37-.16.68.24.9z"/><path d="m173.36 30.38c.04.04.11.07.2.07-.09 1.15-.09 2.3 0 3.44.22 2.47.8 4.74 1.76 6.79.95 2.05 2.33 3.78 4.14 5.17s3.93 2.09 6.36 2.09c1.94 0 3.6-.35 4.97-1.06s2.74-1.83 4.11-3.38c.26-.35.23-.67-.1-.96s-.65-.28-.96.03c-1.24 1.46-2.45 2.5-3.64 3.11-1.19.62-2.65.93-4.37.93-3.09 0-5.6-1.24-7.52-3.71s-3.06-5.52-3.41-9.14c-.09-1.06-.09-2.14 0-3.24.44.04 1.01.07 1.72.07 1.5.04 3.6.09 6.29.13 2.43.04 4.52.09 6.29.13h2.18.6.2.2c.53-.13.86-.4.99-.79.31-.75.49-1.94.53-3.58 0-1.55-.11-2.71-.33-3.51-.62-1.9-2.21-3.53-4.77-4.9-2.61-1.41-4.83-1.83-6.69-1.26-2.43.79-4.35 2.31-5.76 4.54s-2.3 4.82-2.65 7.78c-.4-.04-.64.11-.73.46-.19.39-.06.66.39.79zm4.07-8.25c1.3-2.01 2.99-3.34 5.07-4.01 1.5-.49 3.39-.12 5.66 1.09 2.27 1.22 3.63 2.59 4.07 4.14.22.66.33 1.7.33 3.11-.04 1.41-.18 2.43-.4 3.05h-.07-.13-.6-2.12c-1.81-.04-3.91-.09-6.29-.13-2.87-.04-4.99-.09-6.36-.13-.62 0-1.17-.02-1.65-.07.36-2.68 1.18-5.03 2.49-7.05z"/><path d="m198.32 20.71 1.52-.6c.93-.44 1.59-.73 1.99-.86.8-.31 1.44-.51 1.92-.6.26-.09.49-.11.66-.07v.2c.09.22.15.51.2.86.09.75.15 1.77.2 3.05.04 1.28.09 2.89.13 4.83v.26.13c.04.66.07 1.92.07 3.77.09 9.27.15 14.37.2 15.3-.22 0-1.14.02-2.75.07-1.61.04-2.82.07-3.61.07-.44 0-.66.22-.66.66s.22.66.66.66c.88 0 2.38-.03 4.5-.1s3.95-.08 5.5-.03c1.55.04 3.02.15 4.44.33.44.04.68-.16.73-.6.04-.44-.15-.68-.59-.73-1.86-.22-4.15-.33-6.89-.33-.04-.88-.11-5.98-.2-15.3 0-2.08-.02-3.44-.07-4.11.13-.93.84-2.05 2.12-3.38 1.37-1.46 2.98-2.67 4.83-3.64 1.9-1.02 3.42-1.43 4.57-1.26.53.09.93.33 1.19.73.35.44.53 1.13.53 2.05 0 .44.22.66.66.66s.66-.22.66-.66c0-1.19-.24-2.14-.73-2.85-.49-.66-1.19-1.08-2.12-1.26-1.46-.22-3.27.24-5.43 1.39-1.94 1.06-3.67 2.36-5.17 3.91-.44.49-.84.95-1.19 1.39 0-.75-.02-1.44-.06-2.05-.04-1.32-.13-2.36-.27-3.11-.04-.44-.09-.79-.13-1.06-.09-.35-.22-.62-.4-.8-.35-.4-.97-.51-1.85-.33-.53.09-1.24.31-2.12.66-.4.18-1.08.47-2.05.86-.71.31-1.17.49-1.39.53-.4.13-.54.41-.43.83.12.45.39.62.83.53z"/><path d="m254.24 123.59c-6.14-2.91-14.46-4.33-24.97-4.33-10.4 0-21.01 1.78-31.91 5.46-1.88.64-3.77 1.27-5.65 1.91-9.01 3.19-17.93 6.73-26.75 10.7-.5-.14-.99-.35-1.5-.5-2.48-.85-4.85-1.77-7.23-2.7-.79-.35-1.68-.71-2.48-1.06-1.88-.78-3.66-1.56-5.45-2.34 1.88-.64 3.67-1.21 5.45-1.84 2.18-.71 4.36-1.49 6.54-2.2 1.09-.35 2.18-.71 3.17-1.06 2.88-.85 5.65-1.7 8.32-2.41-2.68-.21-5.44-.57-8.32-1.21-1.68-.35-3.46-.85-5.25-1.35-1.59-.5-3.07-.99-4.46-1.49-2.77-.93-5.35-1.85-7.53-2.77-.4.21-.89.42-1.28.57-3.17 1.42-6.34 2.48-9.61 3.33-1.09.28-2.19.5-3.37.71-2.48.5-4.86.92-7.04 1.2-2.08.29-3.86.5-5.55.57 1.79.28 3.57.63 5.55 1.21 1.78.49 3.66 1.13 5.65 1.91 1.48.64 3.08 1.28 4.76 1.99 2.57 1.07 5.25 2.27 8.02 3.62-2.67.85-5.34 1.7-8.02 2.62-2.78.85-5.45 1.77-8.03 2.62-.79-.35-1.59-.78-2.38-1.13-4.56-2.27-9.11-4.4-13.87-6.52-4.56-1.99-9.22-3.83-13.87-5.46-1-.36-1.98-.71-2.98-1-5.84-1.91-11.69-3.4-17.74-4.53-5.95-1.14-11.99-1.7-18.13-1.7-3.67 0-7.44.29-11.2.92-3.77.65-7.23 1.63-10.31 2.91-3.07 1.35-5.55 3.04-7.53 5.24-1.88 2.13-2.87 4.61-2.87 7.52 0 3.4 1.49 6.37 4.36 9.07 2.87 2.62 6.64 4.75 11.2 6.45s9.61 2.98 15.06 3.9c5.46.85 10.71 1.27 15.76 1.27 3.57 0 7.23-.28 11.2-1 3.96-.7 7.23-1.62 9.91-2.75.3-.36.4-.64.1-.85-.2-.14-.59-.14-.89.14-2.48 1.14-5.45 1.98-9.02 2.55-3.47.5-6.94.78-10.2.78-4.76 0-9.72-.42-14.77-1.27-5.15-.92-9.81-2.2-14.27-3.9-4.36-1.7-7.93-3.77-10.8-6.17-2.78-2.48-4.17-5.25-4.17-8.22 0-2.91.89-5.32 2.78-7.24 1.79-1.98 4.16-3.55 7.04-4.68 2.98-1.14 6.04-1.91 9.21-2.34 3.27-.42 6.44-.63 9.42-.63 11.1 0 22 1.98 32.8 6.02 1.98.78 4.06 1.56 6.05 2.34 8.62 3.47 17.14 7.3 25.56 11.62-2.57.72-5.16 1.49-7.73 2.13-2.57.71-5.25 1.27-8.03 1.63-3.37-1.55-6.74-2.91-9.8-4.04-1.09-.35-2.18-.71-3.27-1.06-4.26-1.27-8.13-1.91-11.59-1.91-1.98 0-3.97.28-6.24.85-2.18.57-3.27 1.42-3.27 2.55s.7 2.06 1.98 2.77c1.29.7 2.97 1.21 4.86 1.63 1.98.35 4.06.63 6.34.78 2.28.21 4.36.28 6.34.28 1.58 0 3.27 0 4.86-.08 1.88-.06 3.86-.28 5.84-.42 3.37 1.7 6.83 3.61 10.4 5.74 3.56 2.05 7.43 4.17 11.5 6.31-2.87 1.13-5.55 2.19-8.03 3.19-2.57 1-5.05 1.84-7.53 2.41-2.68-.56-5.26-1.13-7.83-1.56-1.48-.28-2.98-.42-4.36-.57-1-.07-1.98-.07-2.98-.07-1.98 0-3.86.28-5.75.85-1.79.57-2.78 1.34-2.78 2.34s1.09 1.7 3.07 2.06c1.99.35 3.97.57 5.95.57.8 0 1.59 0 2.48-.07 1.09-.14 2.38-.28 3.76-.49 2.28-.36 4.66-.85 7.04-1.49 3.17 1.13 6.54 2.48 9.91 4.03 2.37 1.06 4.65 2.27 7.03 3.61.99.64 2.08 1.28 3.17 1.91-1.09.5-2.19 1-3.17 1.42-3.47 1.49-6.74 2.76-9.91 3.68-4.16 1.27-7.92 1.91-11.49 1.91-1.19 0-2.47-.07-3.66-.14-.99 0-1.89-.14-2.68-.29-.2-.07-.4-.07-.7-.14-.3-.29-.6-.35-.89-.21-.2.14-.2.35.1.57.49.21.99.35 1.49.49 2.28.71 4.56 1 6.93 1 3.47 0 7.43-.71 11.8-2.13 2.98-.99 5.95-2.05 9.02-3.33 1.48-.64 3.07-1.35 4.76-2.05 1.88 1.28 3.77 2.56 5.65 3.83 2.87 2.05 5.55 4.11 8.02 6.17-2.67 2.62-4.75 5.38-6.34 8.22-.8 1.35-1.29 2.62-1.68 4.04-.51 1.49-.7 2.97-.7 4.54 0 1.7.19 3.26.7 4.75.49 1.7 1.28 3.26 2.47 4.68 1.78 2.12 4.16 3.33 7.14 3.68.49 0 .99.07 1.59.07 2.97 0 5.34-.57 7.23-1.78.7-.42 1.29-.92 1.79-1.56 2.08-2.19 3.08-4.89 3.08-8.15 0-3.19-1.09-6.45-3.18-9.92-.5-.85-1.09-1.7-1.69-2.55-1.88-2.55-4.26-5.1-7.03-7.52 1.98-1.56 3.86-2.98 5.74-4.32.4-.35.79-.64 1.29-.99 1.5-1.06 3.07-2.12 4.87-3.19 1.68.71 3.27 1.35 4.85 1.99 3.96 1.49 7.93 2.7 11.8 3.69 5.45 1.35 10.6 1.91 15.56 1.7.79-.28.79-.49 0-.78-4.66-.14-9.32-.92-14.17-2.41-4.26-1.35-8.62-3.05-13.19-5.1-.49-.21-1.09-.5-1.68-.78.59-.28 1.19-.57 1.68-.78 5.27-2.41 10.52-4.39 15.76-6.03 2.38.64 4.76 1.14 6.94 1.42 1.89.29 3.77.42 5.55.5h.9c2.08 0 4.36-.21 6.83-.63 2.48-.5 3.77-1.28 3.77-2.41 0-1.7-2.38-2.62-7.14-2.62-1.49 0-2.87.07-4.36.21-1.09.14-2.18.28-3.26.42-2.68.5-5.35.99-8.23 1.63-5.15-1.56-10.71-3.9-16.76-7.01-.29-.21-.6-.36-.89-.5.29-.14.6-.35.89-.5 3.17-1.56 6.35-3.19 9.42-4.68 3.27-1.71 6.54-3.4 9.71-5.03 1.99.35 3.96.64 6.05.77 1.1.07 2.08.07 3.07.15h2.98c2.87 0 5.64-.08 8.32-.35 2.77-.22 5.14-.64 7.23-1.21 2.19-.57 3.87-1.27 5.16-2.05 1.29-.86 1.98-1.84 1.98-2.98 0-1.13-.5-1.98-1.59-2.55-.99-.57-2.87-.85-5.55-.85-3.66 0-7.63.63-11.99 1.84-2.18.57-4.36 1.28-6.54 2.13s-4.46 1.77-6.74 2.84c-3.37-.65-6.54-1.35-9.61-2.13-3.07-.84-6.15-1.77-9.12-2.76 8.52-3.83 16.94-7.23 25.46-10.28 1.49-.56 3.07-1.06 4.56-1.56 10.01-3.4 19.83-5.1 29.34-5.1 4.17 0 8.32.21 12.39.71 3.97.5 7.73 1.35 11 2.41 3.37 1.07 6.04 2.41 8.03 4.05 2.08 1.63 3.07 3.61 3.07 6.02 0 3.26-1.18 6.1-3.57 8.58-2.37 2.41-5.44 4.47-9.31 6.09-3.86 1.64-8.33 2.91-13.18 3.76-4.96.93-9.91 1.35-14.77 1.35-2.98 0-6.35-.14-10.01-.49-3.77-.29-8.03-1.21-12.99-2.7-.29-.14-.59-.14-.79 0-.1.14 0 .28.3.57 3.66 1.13 7.73 2.05 11.99 2.69 4.26.72 8.52 1.06 12.48 1.06 5.85 0 11.29-.43 16.54-1.35 5.16-.85 9.72-2.13 13.68-3.83 3.96-1.69 7.14-3.89 9.51-6.51 2.38-2.62 3.57-5.74 3.57-9.22-.02-4.19-3.19-7.66-9.33-10.56zm-157.08 19.42c-1.79.15-3.57.22-5.36.22-1.98 0-3.96-.14-5.94-.29-2.08-.21-3.97-.5-5.65-.84-1.78-.42-3.17-.92-4.26-1.56s-1.59-1.35-1.59-2.27c0-.71.89-1.27 2.68-1.56 1.68-.35 3.46-.5 5.25-.5 2.48 0 5.25.57 8.52 1.7 1.98.71 4.06 1.56 6.34 2.55 1.38.63 2.97 1.35 4.56 2.2-1.48.14-3.06.28-4.55.35zm0 20.2c-1.09.07-2.08.14-2.98.14-1.48 0-2.77-.07-3.96-.28-1.29-.21-1.88-.57-1.88-1.21 0-.5.7-1 2.08-1.35 1.39-.35 2.98-.57 4.56-.57.69 0 1.39.07 2.18.07 2.68.28 5.55.84 8.72 1.84-3.27.72-6.15 1.15-8.72 1.36zm94.54-1.35c1.29-.14 2.58-.21 3.77-.21 2.28 0 3.87.21 4.56.56.7.35.99.71.99.92 0 .64-.79 1.13-2.38 1.56-1.59.35-3.27.57-5.26.57-.49 0-1.09-.08-1.68-.08-2.77-.14-5.84-.7-9.41-1.63 3.27-.9 6.34-1.47 9.41-1.69zm0-20.48c2.58-1 4.96-1.84 7.34-2.55 3.77-1.14 7.33-1.71 10.7-1.71 1.79 0 3.27.28 4.46.71 1.29.43 1.88 1.06 1.88 1.99 0 .71-.59 1.42-1.88 1.98-1.19.57-2.68.99-4.46 1.27-1.79.35-3.47.56-5.25.64-1.79.14-3.17.21-4.26.21-2.28 0-4.46-.07-6.74-.21-.6 0-1.19-.08-1.79-.08-1.58-.14-3.07-.28-4.65-.42 1.58-.69 3.17-1.26 4.65-1.83zm-54.21-15.45c-.69-.35-1.49-.63-2.17-.92-2.19-.99-4.36-1.77-6.44-2.55 2.17-.43 4.36-.85 6.44-1.35 3.17-.78 6.24-1.78 9.01-2.84.2.07.4.14.6.22 2.77 1.13 5.75 2.12 8.81 3.05.21.07.4.07.7.14 3.17.92 6.24 1.91 9.02 2.83.31.07.51.14.7.21-.2.07-.5.07-.7.14-2.77.7-5.45 1.48-8.02 2.26-.59.22-1.09.42-1.69.57-2.28.71-4.65 1.49-7.03 2.26-.59-.21-1.19-.49-1.79-.77-2.58-1.13-4.96-2.19-7.44-3.25zm-2.17 9.5c.49-.14.99-.35 1.58-.57 2.48-.85 5.16-1.77 7.74-2.76.1 0 .19.07.3.07 2.57 1.2 5.15 2.41 7.73 3.47.4.14.7.28 1.09.42 2.38.99 4.76 1.99 7.23 2.98-2.48 1.21-4.85 2.34-7.23 3.4-.2.14-.38.22-.49.29-2.57 1.2-5.15 2.41-7.83 3.68-.19-.15-.3-.22-.49-.28-2.68-1.42-5.25-2.84-7.83-4.26-.59-.35-1.18-.7-1.78-.99-2.19-1.14-4.27-2.27-6.44-3.33 2.15-.71 4.34-1.42 6.42-2.12zm15.56 17.29c.89.51 1.88 1.07 2.87 1.57 1.39.71 2.87 1.42 4.36 2.12-1.48.78-2.97 1.56-4.36 2.34-.58.35-1.29.71-1.88 1.06-1.98 1.06-3.96 2.2-5.94 3.33-.31-.14-.69-.35-.99-.57-2.28-1.34-4.56-2.62-6.74-3.89-.99-.57-1.88-1.14-2.87-1.7-1.68-.92-3.27-1.77-4.87-2.69 1.59-.71 3.18-1.49 4.87-2.13.49-.21.99-.42 1.58-.64 2.19-.92 4.36-1.84 6.44-2.83.5.28 1.1.56 1.59.78 2.07 1.12 4.05 2.19 5.94 3.25zm-32.21-5.03c-3.57-1.85-7.14-3.62-10.71-5.25 2.88-.35 5.55-.92 8.23-1.62 2.68-.64 5.35-1.42 8.12-2.13.2.08.4.15.59.21 2.78 1.49 5.54 2.91 8.22 4.47.8.42 1.49.78 2.19 1.21 2.17 1.21 4.25 2.41 6.44 3.54-2.08 1-4.26 1.92-6.35 2.84h-.09c-2.08.85-4.07 1.76-5.95 2.62-1.48-.85-2.97-1.7-4.46-2.55-2.07-1.15-4.15-2.21-6.23-3.34zm6.24 19.13c-1.09-.49-2.18-.99-3.18-1.49-3.37-1.56-6.74-2.83-10.3-3.89 4.16-1.21 8.62-2.83 13.47-4.75.4-.14.89-.28 1.29-.49 2.68 1.42 5.25 2.83 7.93 4.32.39.21.79.49 1.19.71 2.28 1.27 4.56 2.55 6.93 3.82-1.79.99-3.47 1.91-5.25 2.84-.6.28-1.19.57-1.68.85-1.19.57-2.38 1.07-3.57 1.56-2.28-1.2-4.55-2.34-6.83-3.48zm27.95 26.73c.3.42.59.92.89 1.35 1.69 2.77 2.48 5.39 2.48 7.87 0 2.62-.79 4.89-2.48 6.66-1.69 1.84-3.86 2.77-6.43 2.77-.9 0-1.7-.08-2.39-.29-2.08-.43-3.87-1.35-5.55-2.91-2.28-2.2-3.46-5.17-3.46-9.08 0-2.91.78-5.67 2.28-8.36 1.49-2.69 3.47-5.31 5.94-7.86.3.28.5.49.8.78 3.16 2.97 5.74 6.02 7.92 9.07zm.88-19c-.89.57-1.78 1.14-2.67 1.7-1.98 1.35-3.76 2.76-5.35 4.25-.3-.21-.6-.49-.79-.71-1.68-1.49-3.37-2.91-5.16-4.25-1.38-1.14-2.87-2.12-4.45-3.12-.8-.5-1.5-.92-2.28-1.35.78-.35 1.48-.71 2.28-1.14.99-.5 1.98-.99 2.97-1.49 1.79-.93 3.67-1.84 5.55-2.84.4.22.69.36 1.09.57 1.88 1.06 3.76 1.99 5.65 2.91 1.1.49 2.08.99 3.17 1.49 1.19.56 2.38 1.13 3.58 1.63-1.2.79-2.4 1.57-3.59 2.35zm9.72-15.66c1.69.71 3.27 1.35 4.87 1.91 3.06 1.06 5.94 1.98 8.72 2.76-4.56 1.49-9.12 3.33-13.58 5.46-.99.5-1.97 1-2.97 1.49-2.18-.99-4.26-2.05-6.44-3.19-.1-.07-.2-.07-.3-.14-2.07-1.07-4.26-2.27-6.43-3.47 1.87-.99 3.96-2.05 6.04-3.26.09-.07.29-.14.38-.21 1.99-1.14 3.86-2.2 5.66-3.26 1.38.64 2.76 1.27 4.05 1.91zm17.04-14.18c-5.45 2.54-11.09 5.39-17.05 8.57-.78.5-1.68.92-2.48 1.42-2.28-1.28-4.65-2.56-7.13-3.76 0-.07-.1-.07-.1-.07-2.47-1.28-4.85-2.55-7.23-3.89 2.37-1.07 4.76-2.13 7.23-3.26.21-.14.4-.21.7-.35 2.57-1.27 5.36-2.48 8.13-3.76.29.14.6.22.89.35 5.26 1.85 10.9 3.41 17.04 4.75z"/></g></svg>