<svg viewBox="0 0 500 500" xmlns="http://www.w3.org/2000/svg"><g fill="#511c05"><path d="m250.74 335.91v6.94c0 1.12-.3 2.24-.28 3.35 0 1.91.27 3.83.25 5.74 0 3.73-.19 7.46-.26 11.19-.05 2.82-.07 5.63 0 8.45s.21 5.49.24 8.23c0 1.37-.22 2.74-.2 4.11 0 2.22.22 4.44.24 6.67 0 1.3-.22 2.6-.22 3.9s.24 2.36.25 3.54c.05 3.54 0 7.09 0 10.64 0 2.26.21 2.56 2.43 3 2.38.52 4.78.91 7.17 1.37a23.07 23.07 0 0 1 8.23 3.48 89.8 89.8 0 0 1 12.49 10.36c2.4 2.26 4.48 4.86 6.67 7.33a40.49 40.49 0 0 1 2.69 3.31c1 1.41 1.9 2.91 2.88 4.34a66.5 66.5 0 0 1 5 9.8c.26.55.29 1.21.5 1.79.47 1.32.53 2.8 1.71 3.84.32.29.39.89.55 1.36s.37 1.18.55 1.77a20.23 20.23 0 0 0 1 3.18c1.1 2.24 1.41 4.74 2.36 7a31.41 31.41 0 0 1 1.88 5 31.84 31.84 0 0 0 2.47 6.36 6.61 6.61 0 0 0 4.53 3.36 4.41 4.41 0 0 1 3 2.29c.1.22.3.47.28.68-.17 1.37.82 1.77 1.76 2.31a1.32 1.32 0 0 0 1.55.06 2.63 2.63 0 0 1 .69-.28c1-.33 1.57-.16 1.91.54s.1 1.18-.85 1.73-1.24 2-.35 3.39a2.92 2.92 0 0 1 -.08 3.33c-.15.25-.52.62-.67.57a1.39 1.39 0 0 1 -.74-.71c-.32-.79-.73-1.59-.06-2.47a1.17 1.17 0 0 0 -.14-1.69 2.09 2.09 0 0 0 -1.48-.44c-.32.07-.65.68-.76 1.1-.21.83-.22 1.71-.41 2.55-.05.22-.51.58-.64.52-.3-.11-.68-.42-.72-.7a10.45 10.45 0 0 1 .05-1.85 3.38 3.38 0 0 0 .05-1.09 1 1 0 0 0 -.7-.46c-.13 0-.43.28-.47.47-.1.55-.09 1.12-.16 1.68 0 .16-.17.43-.27.43s-.55 0-.64-.2a5.43 5.43 0 0 1 -.56-1.34 7.88 7.88 0 0 0 -.16-1.1.89.89 0 0 0 -.68-.46c-.16 0-.42.38-.46.63a16.33 16.33 0 0 1 -.19 2c-.27 1-.67 1.21-1.47.68a8.29 8.29 0 0 0 -2.83-.8c-1.66-.45-3.23-1.28-4.91-1.66-2.46-.57-4-2.23-5.71-3.91a34.89 34.89 0 0 1 -4.45-5.27c-1.84-2.73-3.69-5.45-5.51-8.18a6.26 6.26 0 0 1 -.44-1c-1.14-2.57-2.28-5.12-4.35-7.13a5.21 5.21 0 0 1 -.73-1.29c-.17-.33-.24-.82-.51-1-1.22-.66-1.37-2-2-3-1.4-2.28-3-4.42-4.57-6.61-1.62-.46-2-1.85-2.55-3.21-.15-.38-.57-.65-.88-1-.74-.74-1.49-1.49-2.25-2.22a9.94 9.94 0 0 0 -1.27-1.08 12.14 12.14 0 0 1 -2.72-2.08 10.53 10.53 0 0 0 -4-2.31c-.87-.34-1.61-1.55-2.85-.75-.09.06-.57-.41-.83-.66a3.84 3.84 0 0 0 -2.8-1.33 2.42 2.42 0 0 1 -1.17-.48c-1.51-1-2.11-.76-2.34 1a40.53 40.53 0 0 0 -.38 5.6c0 3.31.22 6.61.35 9.92a10.57 10.57 0 0 0 .13 1.49c.11.53-1.56 4.28-3.85 3.69a24.1 24.1 0 0 1 -4.24-1.45 4.47 4.47 0 0 1 -2.54-3.77 16.56 16.56 0 0 1 0-2.44c.15-1.8.43-3.6.52-5.4.1-2.27.06-4.55.08-6.83-.83-1.06-1.65-2.13-2.5-3.19a.37.37 0 0 0 -.35-.08c-1.22.65-2.93.33-3.75 1.79-.2.37-.34.53-.83.48a5.15 5.15 0 0 0 -4.51 1.91 2.61 2.61 0 0 1 -.73.47 12.18 12.18 0 0 0 -2.34 1.08c-3.82 2.88-7.93 5.43-11.38 8.78a75.78 75.78 0 0 0 -9.43 10.64 78.7 78.7 0 0 0 -5.66 9.62c-.82 1.6-1.9 3.07-2.67 4.69-1.31 2.78-3.45 4.87-5.53 7-.6.62-1.3 1.17-1.24 2.2a1.1 1.1 0 0 1 -.39.79c-1.4 1.1-2.79 2.22-4.26 3.21a10.1 10.1 0 0 1 -4.34 1.64c-1.54.2-3.05.61-4.58.9a4.9 4.9 0 0 1 -1.47.14c-1.54-.22-3.07-.48-4.59-.81-.34-.08-.83-.47-.87-.77a1.29 1.29 0 0 1 .62-1 4.8 4.8 0 0 1 1.61-.38 41.43 41.43 0 0 0 10.49-2.44 6 6 0 0 0 .85-.4c.51-.3.53-.74.13-1.07-.93-.78-1.91-1.47-3.23-.9-.78.34-1.55.54-2.12-.41-.07-.12-.57-.11-.77 0s-.37.5-.59.72c-.37.36-.79.69-1.19 1-.15-.45-.28-.91-.45-1.35a1.8 1.8 0 0 0 -.31-.43l-.35.35a18.18 18.18 0 0 1 -1.19 1.44c-.19.19-.65.38-.8.28a1.31 1.31 0 0 1 -.58-.86 9.38 9.38 0 0 1 .22-1.46 2.1 2.1 0 0 0 -.18-.66c-.22.09-.51.12-.64.28-.32.37-.55.83-.86 1.22a2.65 2.65 0 0 1 -.91.86 1.21 1.21 0 0 1 -1-.24.9.9 0 0 1 -.13-.83c.22-.58.57-1.11.83-1.68.09-.21.14-.64 0-.68a1.15 1.15 0 0 0 -.84-.14c-1.28.49-2.7.92-3 2.53a3.24 3.24 0 0 0 1.79 3.76c.16.09.41.16.46.3a2.07 2.07 0 0 1 .23 1.16c0 .21-.6.41-.92.4-2.66-.1-5.14-3.48-4.41-6.1a6 6 0 0 1 4-4.08c3-1.11 6-2.21 8.89-3.45 2.52-1.06 4.42-3 6.33-4.91.94-.92 1.38-2.34 2.17-3.45 2.19-3.09 3.34-6.62 4.52-10.15.71-2.13 1.39-4.27 2.19-6.37.37-1 1.06-1.82 1.52-2.76.56-1.18 1-2.42 1.54-3.6.78-1.63 1.58-3.25 2.48-4.82q2.2-3.89 4.57-7.69a18.13 18.13 0 0 1 2-2.5c2.24-2.51 4.31-5.18 7-7.25a41.54 41.54 0 0 0 3.91-3.48 49.82 49.82 0 0 1 9.13-6.78 60.55 60.55 0 0 1 7.94-4.15 20.28 20.28 0 0 1 7.41-1.81c.75 0 1.5-.1 2.24-.18 1.29-.15 1.68-.5 2-1.78a21.21 21.21 0 0 0 .21-6.51c-.09-1.8 0-3.61 0-5.41a21.8 21.8 0 0 0 .13-2.42 28.49 28.49 0 0 1 .28-6.84 12.81 12.81 0 0 0 -.09-3.15c-.13-1.3.57-16 .11-17.95-.25-1.05-.15-17.18-.28-19.05a1.14 1.14 0 0 0 0-.37c-1.16-2.71-.42-5.6-.78-8.35-.49-3.81.13-7.62-.56-11.39a7 7 0 0 1 .13-2.22c.09-.62 0-1.15-.56-1.45-2-1-4-2-6.23-1.47a9.42 9.42 0 0 1 -3.35 0c-1.84-.17-3.7-.14-5.56-.19-2.65-.06-5.31.34-7.93-.42a6.78 6.78 0 0 0 -1.86-.12c-1.35 0-2.7 0-4 0-1.12 0-2.24.12-3.35.11-1.3 0-2.6-.1-3.89-.21a41.2 41.2 0 0 1 -4.5-.47c-2.26-.44-4.49-1-6.74-1.53-1.26-.28-2.55-.49-3.81-.78-4-.92-7.71-2.81-11.57-4.21-3.4-1.23-5.87-3.62-8.36-6a47.57 47.57 0 0 1 -3.65-3.73c-1.67-2-3.23-4.1-4.77-6.21-.69-.94-.87-2.14-1.7-3.07-1.48-1.67-2.66-3.6-4.1-5.3-2.57-3.05-5.12-6.14-7.94-9a23.87 23.87 0 0 0 -7.68-5.57c-1-.39-2.06-.41-2.91-1.16a1.82 1.82 0 0 1 -.52-2.63 4.31 4.31 0 0 1 2.51-2.15c1.89-.58 3.14-2 4.6-3.14 1-.8 2-1.62 3-2.46a11.37 11.37 0 0 0 .88-.95c1.06-1.11 2.14-2.21 3.17-3.35.67-.73 1.26-1.54 1.9-2.3.4-.48.73-1.12 1.24-1.37 2.33-1.1 3.54-3.52 5.71-4.79.39-.24.55-.83.91-1.17a7.92 7.92 0 0 1 1.83-1.51 4 4 0 0 0 1.82-1.51 4.16 4.16 0 0 1 2.62-2.24c.3-.07.56-.45.78-.74 1.84-2.42 9.56-10 10.88-11.51a13 13 0 0 1 4.08-3.71c1.41-.72 2.36-2.34 3.51-3.57 2.05-2.18 14.55-15.65 15.44-16.51 1.66-1.61 7.68-9.41 8.16-9.65 3.19-1.58 3.7-4.55 4.24-7.62.66-3.74 1.46-7.47 2.39-11.15a6 6 0 0 0 -.48-3.59c-.49-1.47-1.13-2.89-1.7-4.34a2.39 2.39 0 0 0 -.19-.53 13.4 13.4 0 0 1 -2.32-5.57c-.2-1.13-3.64-10.46-3.78-11.09a7.73 7.73 0 0 0 -.8-2.08 5.6 5.6 0 0 1 -.84-2.41 2.08 2.08 0 0 0 -1.44-1.77 56.47 56.47 0 0 1 -8.2-4c-3.14-1.91-6.49-3.5-9.5-5.59-5-3.49-10.71-5.89-15.86-9.15-3.15-2-6.48-3.8-9.16-6.48-.78-.78-1.59-1.55-2.3-2.4a1.33 1.33 0 0 1 -.19-1.14 26.81 26.81 0 0 1 4.38-7.55 20.14 20.14 0 0 0 1.57-2.29 7.58 7.58 0 0 1 .59-1 22.88 22.88 0 0 0 3.39-5.12 16.87 16.87 0 0 1 2.58-3.19q3-3.45 6-6.88a66.19 66.19 0 0 1 5-5.55c1.53-1.38 3.15-2.95 5.46-3a9.9 9.9 0 0 1 2.73.47 2.09 2.09 0 0 0 2-.41 33.43 33.43 0 0 1 3.84-2.15.29.29 0 0 1 .17-.06c1.61.43 2.61-.77 3.9-1.3a58.93 58.93 0 0 1 7.35-2.11 12.06 12.06 0 0 0 4.23-1.63 4.66 4.66 0 0 1 3.61-1.21 2.18 2.18 0 0 0 1-.27c.64-.24 1.26-.55 1.91-.75a15.26 15.26 0 0 0 8.28-6.08c.95-1.39 1.95-2.75 2.8-4.2 1.36-2.29 1.71-4.93 2.28-7.48.17-.73.26-1.49.49-2.2a3.24 3.24 0 0 1 2.86-2.57c2.42-.25 4.83-.53 7.25-.74 1.84-.17 2.22-.46 2.09-2.31-.19-2.68-.49-5.35-.79-8-.15-1.39-1.29-1.87-2.36-2.41a32.08 32.08 0 0 1 -3.59-2 8.64 8.64 0 0 1 -2.18-2.57 20.22 20.22 0 0 1 -3.23-11.36c0-1.81.23-3.61.25-5.42 0-1.11-.4-2.28-.18-3.32s1.08-1.76 1.56-2.69c.72-1.42.84-3.16 2.24-4.24a1 1 0 0 0 .23-.51c1-3.42 3.38-5.32 6.57-6.58a16.26 16.26 0 0 1 5.17-1.59c2.42-.12 4.57.2 6.26 2.17 1.54 1.8 3.24 3.47 4.76 5.28a6 6 0 0 1 1 2.18 34 34 0 0 1 1.79 11.61c-.19 3.5-.62 7-2.42 10.11-1.28 2.21-2.6 4.4-4 6.55a10.77 10.77 0 0 1 -2.17 2.49 4.73 4.73 0 0 1 -2 .55c-1.84.41-1.94.68-1.78 2.52.15 1.66.05 3.34 0 5 0 .87 0 1.75-.07 2.62a1.44 1.44 0 0 0 1.29 1.58c.85.17 1.72.3 2.58.43 1.18.18 2.35.36 3.53.49 2.52.27 4.43 1.89 6.58 3a2.16 2.16 0 0 1 .95 1.29c.46 1.87.78 3.78 1.2 5.66a23.66 23.66 0 0 0 .89 2.47c.62 1.82 1 3.81 2 5.38 1.16 1.81 2.39 3.86 4.9 4.27.24 0 .58.11.66.28.47 1 1.46 1.08 2.22 1.58 3.21 2.13 6.88 3.21 10.38 4.66 1.78.74 3.48 1.7 5.23 2.51s3.54 1.56 5.32 2.33a3.53 3.53 0 0 1 .66.36c2.17 1.56 4.34 3.12 6.5 4.7.34.25.58.64.91.92 1.11 1 2.22 2 3.36 2.94 1.72 1.44 3.45 2.88 5.22 4.27 1.12.87 2.32 1.64 3.5 2.45.2.14.51.19.62.38 1.48 2.29 3.81 3.72 5.66 5.62 1.65 1.69 3.15 3.53 4.69 5.32 1.09 1.27 2.21 2.52 3.2 3.86.84 1.15.65 2-.33 2.93a54.24 54.24 0 0 1 -8.09 6.64 1 1 0 0 0 -.3.23c-1.59 2.22-4 3.56-5.93 5.4a61.37 61.37 0 0 1 -5.65 5.19c-2.85 2.1-5.45 4.5-8.52 6.35a100.8 100.8 0 0 0 -8.5 6.11 14.4 14.4 0 0 0 -3.57 4 22.44 22.44 0 0 0 -2.17 5.95c-.34 1.24-.88 2.44-1.3 3.67s-.79 2.46-1.22 3.69c-.16.46-.3 1.11-.64 1.28-.91.45-.82 1.19-.78 1.92a8.52 8.52 0 0 1 -1.45 4.94c-.76 1.28-1.7 2.61-1.31 4.32.07.3-.27.77-.52 1.07a2.1 2.1 0 0 0 -.42 2.67 10.49 10.49 0 0 1 .57 3.28c.17 1.24.37 2.47.46 3.72a3.66 3.66 0 0 0 1 2.72c.45.4.37.86.13 1.36-.76 1.57.31 2.88.68 4.28.08.34.74.63 1.2.76a5.14 5.14 0 0 1 3 2.58 30.74 30.74 0 0 0 6.05 7.54 59.48 59.48 0 0 1 4.36 4.61c.3.32.59.88.9.89 1.37 0 1.54 1 2.07 2a18 18 0 0 0 2.83 3.18c.46.49 1 1 1.43 1.45.64.66 1.29 1.32 1.89 2 1 1.14 1.84 2.35 2.81 3.48 1.63 1.88 3.3 3.73 4.95 5.59 2.32 2.59 4.65 5.17 7 7.77.45.51.88 1 1.3 1.58 1.12 1.4 2.07 2.93 3.85 3.7a4.08 4.08 0 0 1 1.56 1.53 25.85 25.85 0 0 0 4 4.88c2.8 2.56 5.3 5.47 8 8.18 1.18 1.2 2.47 2.29 3.7 3.44a29.83 29.83 0 0 1 2.45 2.31c1.23 1.4 2.88 2.39 3.76 4.1a2.39 2.39 0 0 0 .49.57q4.35 4.36 8.72 8.74a7.63 7.63 0 0 0 2.49 1.91c1.37.57 1.53 1.67.41 2.62a12.82 12.82 0 0 0 -3.14 3.39 1.48 1.48 0 0 1 -.59.44c-1.32.8-2.63 1.64-4 2.38-2 1.11-4 2.3-6.13 3.2-2.93 1.25-5.95 2.33-9 3.38-1.52.53-3.12.84-4.69 1.25s-3.2.49-4.53 1.62a2.85 2.85 0 0 1 -1.76.54 8.7 8.7 0 0 0 -3.55 1.08c-.59.25-5.53 2.54-7 3.83-2.07 1.79-4.14 3.58-6.14 5.44-1.23 1.14-2.27 2.47-3.5 3.6-1.82 1.69-3.74 3.28-5.62 4.9-.23.2-.51.36-.73.58a26.7 26.7 0 0 1 -8.17 5.08c-1.81.82-3.55 1.8-5.34 2.66a13.17 13.17 0 0 1 -2.61 1c-2.53.62-5.05 1.31-7.62 1.71a32.74 32.74 0 0 1 -14.1-.54c-2.09-.6-4.15-1.3-6.21-2-1.05-.36-3.69-1.51-4.78-2-.17-.07-.36-.12-.54-.18-2.25-.75-2.8-.37-2.81 2s0 5 0 7.51zm-43.12-195.78.08.1h-.13a1.29 1.29 0 0 0 -.17-.33 1 1 0 0 0 -.29-.2 1.06 1.06 0 0 0 .15.41c.07.02.24 0 .36.02zm29.26 20.66.58-.33-.23-.21-.3.58-.11.11zm-27.75-21.72c-.29-.08-.66-.31-.84-.21s.06 1.25.45 1.36c.09 0 .33-.17.34-.28a4.71 4.71 0 0 0 0-.92l.58-.32-.21-.21zm42-60.13.36.08c.43.14.91.25 1-.34a1.2 1.2 0 0 0 -.32-.94c-.24-.19-.67-.14-1-.2 0 .37-.1.74-.12 1.11 0 .11.08.23.13.34-.34.08-.89.07-1 .27a1.82 1.82 0 0 0 .08 1.14c.05.13.55.28.59.24a1.82 1.82 0 0 0 .33-.8 3.47 3.47 0 0 0 -.06-.9zm71.33 181.32c.38-1 .8-1.92 1.13-2.9a2.31 2.31 0 0 0 0-1.11c0-.21-.29-.57-.4-.56a1 1 0 0 0 -.68.43 5.32 5.32 0 0 0 0 4.18c-.43.25-.89.48-.65 1.12 0 0 .09.06.13.1zm-67.53-194.83.33.58.21-.22-.59-.31a5.2 5.2 0 0 0 -2.44-2.91c-.43-.31-.89 0-.78.59.07.35.19.83.45 1 .89.47 1.89.84 2.82 1.27zm-8.26 250.84a5.11 5.11 0 0 1 -.67-.27c-.42-.24-.82-.69-1.31-.2a1.13 1.13 0 0 0 0 1.67 16.64 16.64 0 0 0 1.84 1.82.68.68 0 0 0 1.18-.51 8.78 8.78 0 0 0 -.33-1.79c.55 0 1.14.63 1.64-.19s.1-1.28-.4-1.79c-.7-.71-1.35-1.45-2.09-2.1a.8.8 0 0 0 -1.41.44 2.13 2.13 0 0 0 .28 1.36 12.47 12.47 0 0 0 1.27 1.56zm3.34-4.55a1 1 0 0 0 1.62-.26 1.33 1.33 0 0 0 -.09-1.73c-.8-1-1.6-1.92-2.47-2.81a.95.95 0 0 0 -1.63.85 5.76 5.76 0 0 0 .83 1.64c.44.68.94 1.32 1.4 2a10.5 10.5 0 0 1 -1-.7 10.89 10.89 0 0 0 -.93-.87c-.65-.4-1.08-.15-1.07.62a2.32 2.32 0 0 0 .29 1.24 23.41 23.41 0 0 0 2 2.46c.22.24.78.52.91.42a1.5 1.5 0 0 0 .6-1 8.32 8.32 0 0 0 -.47-1.86zm27.78-111.11c.77.58 1.54 1.1 2.54.43.51-.35.88-.15 1.26.31s.64.14.74-.29c.32-1.35-.45-2.39-1.1-3.43a1 1 0 0 0 -1-.2c-1.09.85-2.57 1.45-2.43 3.23-1.14-.44-1.58-.36-2 .36a.64.64 0 0 0 .47 1.08c.96.14 1.33-.23 1.52-1.49zm-21.38 2.66a2.22 2.22 0 0 0 2-.73 9.32 9.32 0 0 1 3.41-2.9 2 2 0 0 0 .76-1.71 1.77 1.77 0 0 0 -1.19-1.23c-.48-.07-1.15.42-1.54.85s-.29 1.15-.66 1.48-1.17.27-1.61.6c-.68.51-1.15 1.29-1.83 1.8s-1.63.8-2.32 1.35a5 5 0 0 0 -.93 1.5l1.49.56c.18.06.38.06.55.12a1.1 1.1 0 0 0 1.52-.68 10.24 10.24 0 0 0 .37-1.06zm32.7 271a3.8 3.8 0 0 0 .41 1.36c1.14 1.39 2.33 2.75 3.59 4 .47.48.84 1.26 1.75 1.13-.22-.74-.42-1.49-.67-2.22a1.5 1.5 0 0 0 -.48-.56l-4.65-3.71a1.22 1.22 0 0 1 1.41-.62c1.11.21 1.28 0 .89-1.07s-.81-1.81-1.12-2.74c-.4-1.22-.5-1.28-1.6-.58a3.54 3.54 0 0 1 -.81.29c0-.33-.13-.81 0-1 1.42-1.44.74-2.87 0-4.29a1 1 0 0 0 -.86-.32 4.31 4.31 0 0 0 -1 6.33 15.94 15.94 0 0 1 1.22 2c.54.86.87 1.78 1.92 1.99zm-60.48-278.14c2.09.19 2.78-.55 2-2.43s-2.26-3.19-2.92-5.08c-.1-.29-.83-.66-1-.55-.39.2-.88.76-.84 1.11.08.77.29 1.94.78 2.15 1.09.47 1.17 1 .84 1.93a2.36 2.36 0 0 0 .1 1.1c.09.5-.08.44-.48.33-1.48-.37-2.29.05-2.54 1.5-.15.87-.44 1.07-1.2.78a.48.48 0 0 0 -.37 0c-.43.29-.84.61-1.25.92a7 7 0 0 0 1 1c1.51 1 2.63-.54 4-.71a2.33 2.33 0 0 0 1.92-1.85c0-.06 0-.12.05-.18zm41.62-3.37c.28-.58 1.18-1.13.59-1.77a4.07 4.07 0 0 0 -2-.75c-.17 0-.49.26-.64.48a4.73 4.73 0 0 0 -.69 1.24c-.12.37-.25.94-.06 1.17a1.34 1.34 0 0 0 1.15.29 8.54 8.54 0 0 0 1.69-.71c-.26.42-.49.86-.79 1.26-.89 1.21-.95 2.23-.14 3.2.62.74 1.14.73 2.59 0a1.82 1.82 0 0 1 .67-.08 6.4 6.4 0 0 1 -.23.66 9.1 9.1 0 0 0 -1 1.93c-.16.67-.33.78-1 .65a1.54 1.54 0 0 0 -1.18.33 12.59 12.59 0 0 0 -1.79 1.86c-.23.3-.47 1-.33 1.12a1.71 1.71 0 0 0 1.25.59 3.58 3.58 0 0 0 3.09-1.8 2.93 2.93 0 0 1 .77-1c.75-.52 1.61-.9 2.35-1.43 1.55-1.1 1.65-2.19.15-3.23a2.45 2.45 0 0 1 -1.1-1.72c-.43-2.12-1.44-2.74-3.35-2.29zm-44.67-32.63a12.58 12.58 0 0 0 2-.54 2 2 0 0 0 1.27-2.18 6.29 6.29 0 0 1 .05-.86 4.23 4.23 0 0 1 1 .25c1.2.64 2.16.25 2.18-1a2.57 2.57 0 0 0 -.35-1.42 17.84 17.84 0 0 0 -1.79-2.11c-.41-.45-.88-.85-1.33-1.27.56 0 1-.58 1.62.36a10.06 10.06 0 0 0 2.7 2.48c.46.36 1.27.33 1.33-.4.06-.94.73-1.13 1.25-1.63a28.6 28.6 0 0 0 2.39-2.85c.26-.33.42-.78.75-1a5.24 5.24 0 0 1 1.34-.51c-.17.54-.16 1.32-.53 1.59a10.63 10.63 0 0 0 -2.87 3.61 4.76 4.76 0 0 0 -.44 1.77 1.92 1.92 0 0 0 1.21 1.93c.81.45 1.24-.23 1.77-.63s.85-1.37 1.81-1.3c-.33.71-.65 1.42-1 2.14 0 0-.06.1-.09.16-.37.63-.65.93.47 1.35 1.43.53 1.32.81 2.22-.33a3.42 3.42 0 0 0 1.14-2.27c0-.54.28-.89.93-.94.37 0 1-.33 1-.54 0-.79.26-1.1 1.11-.94.55.1.76-.39.71-.87s-.24-1.21-.33-1.83a1.36 1.36 0 0 0 -1.59-1.22 4.9 4.9 0 0 1 .46-1.4c.21-.29.69-.39 1.06-.57.08.27.18.53.24.8s0 .51.07.74c.27.89 1 1.45 1.68 1.27 1.34-.37 1.45-.56 1.16-2a3 3 0 0 1 -.13-.54 1.09 1.09 0 0 1 .18-.68c.11-.09.51 0 .64.13.86.9 1.48.64 2.06-.31a1 1 0 0 1 .76-.4c.21 0 .6.26.61.44a5.08 5.08 0 0 0 3.32 4.48 1.31 1.31 0 0 1 .57.47c.64.9 1.28.82 2 .07a12.76 12.76 0 0 1 1-1c.38-.33.8-.61 1.2-.92-.16.52-.32 1-.51 1.54a.66.66 0 0 1 -.36.39c-1.49.44-1.16 1.59-1 2.61s.72 1.1 1.52.6a2.89 2.89 0 0 0 .92-1.07c.18-.32.17-.55.7-.62 1.56-.18 1.89-.68 2-2.51a1.06 1.06 0 0 0 1.25-1c.11-.68.77-.57 1.21-.42.23.08.37.5.48.8.2.57.35 1.15.52 1.73a4.73 4.73 0 0 0 -.92-.58c-.25-.08-.79-.05-.82 0-.33 1.11-1.5 1.24-2.16 2s-1.22 1.23-.66 2.12 1 1.81 1.74 2.16a2.93 2.93 0 0 1 1.75 2.14c.2.75.88.86 1.53.67s1.1-.69.81-1.42a12.16 12.16 0 0 0 -1-2c-.62-1-1.31-2-1.94-3-.11-.18 0-.46-.05-.7.18.13.43.21.52.38 1.31 2.32 3.45 4.06 4.67 6.45a.66.66 0 0 0 .62.19.63.63 0 0 0 .32-.56c-.18-.66-.45-1.29-.69-1.93.32.29.64.57 1 .87.74.75 1.07.77 1.85.09a2 2 0 0 0 -.49-3.29 16.64 16.64 0 0 0 -1.9-.74 2.31 2.31 0 0 1 -.5-.4 2.35 2.35 0 0 1 .46-.26c.46-.12 1-.42.62-.83-.88-.86-.41-2-.92-3 1.39-.05 1.39-.05 1.92-1.55l-.05.05c.24-.07.58-.08.69-.24.27-.36.68-.89.57-1.19-.22-.61-.87-.58-1.45-.38a.32.32 0 0 0 -.16.09c-.38.39-.69.26-1.12 0-1-.67-1.21-.55-1.57.71a5.71 5.71 0 0 1 -.21.58 6.72 6.72 0 0 1 -1.08-1c-.15-.2-.06-.6 0-.89a8.69 8.69 0 0 1 2.72-.59c1.34 1 2.85.15 4.26.39.28 0 .68-.3 1-.54a26.69 26.69 0 0 0 2-2c.7-.8.49-1.29-.63-1.44s-2.48-.22-3.72-.34a2.27 2.27 0 0 1 -.5-.17 4 4 0 0 1 .26-.45c1.07-1.52 2.16-3 3.21-4.56.39-.56.06-1-.49-1.13a6.19 6.19 0 0 0 -1.49-.09c-.88 0-1.75 0-2.62 0a1.81 1.81 0 0 1 -.77-.33s.08-.43.19-.47c.27-.09.64-.19.84-.06 1.27.76 2.67.44 4 .49a4.26 4.26 0 0 0 2.49-.63 39.8 39.8 0 0 0 4.19-3.72c.66-.65.34-1.24-.67-1.3s-1.88 0-2.81 0c-1.68-.05-3.28 0-4.25 1.72a.82.82 0 0 1 -.29.23.56.56 0 0 1 -.93-.47 4.38 4.38 0 0 1 0-1.77c.18-.45.78-.75 1.22-1.09s.85-.54 1.2-.88a18.29 18.29 0 0 0 1.91-2 .92.92 0 0 0 0-1.33c-.64-.76-.57-.89.43-1a6.8 6.8 0 0 0 3.67-1.71c.94-.82 1.94-1.56 2.89-2.37a12.89 12.89 0 0 0 1.07-1.15c-.5-.15-1-.33-1.51-.45a2.1 2.1 0 0 0 -.75 0c-1.36.18-2.7.45-4.06.55-1.62.1-3.25.11-4.86 0a7.9 7.9 0 0 1 -1.89-.58c.62-.74 1.2.14 1.81 0 .29 0 .6.15.91.19a2.84 2.84 0 0 0 3.08-1.56 12.26 12.26 0 0 1 1.11-1.49c.71-.86 1.45-1.7 2.15-2.57a2.69 2.69 0 0 0 .29-.81c-.29-.06-.66-.27-.86-.16-1 .55-2 0-2.92-.13a1.78 1.78 0 0 1 -.48-.19 3.41 3.41 0 0 1 .53-.13h2.25a7.08 7.08 0 0 0 5.71-2.24 20.78 20.78 0 0 1 3.14-2.3c-.55.82-1.14 1.61-1.62 2.46a1.21 1.21 0 0 0 0 1c.06.15.53.19.8.15 1.9-.28 3.8-.6 5.69-.91a1.56 1.56 0 0 0 1.42-1.29c.21-1.09.41-2.19.54-3.3s-.07-1.18-1.11-1.09a6.31 6.31 0 0 0 -3.75 1.9c-.6.55-1.12 1.19-2.05 1.14 0-.12.06-.25.11-.36.25-.6 1.5-.78 1-1.5-.28-.42-1.35-.32-2.07-.45a.62.62 0 0 0 -.19 0c-1.66.11-3.23.36-4.15 2a3.22 3.22 0 0 1 -.92.92c-.22.16-.68.29-.81.18a1.49 1.49 0 0 1 -.42-.93c0-.27.3-.55.33-.84s.12-.92-.09-1.14c-.55-.56-.12-.53.26-.58a7.6 7.6 0 0 0 4.85-2.92c.65-.75.63-.81-.3-1.25a6.11 6.11 0 0 1 -.61-.36c.24-.12.49-.35.72-.33 2.84.25 4.67-1.79 6.87-3a.71.71 0 0 0 .17-.66.69.69 0 0 0 -.55-.3c-2.11 0-4.22.07-6.33.11a7 7 0 0 1 -1.12-.07c-.08 0-.2-.16-.2-.24a.38.38 0 0 1 .22-.23 1.78 1.78 0 0 1 .56-.06 31 31 0 0 0 9.77-1.21 3.1 3.1 0 0 0 .87-.31c.61-.36.67-.91.07-1.3a7.19 7.19 0 0 0 -4.19-1.61 51.13 51.13 0 0 0 -6.89.08 5.07 5.07 0 0 1 -1.46-.24 2 2 0 0 1 -.34-.13c.13-.08.25-.21.38-.23a17.67 17.67 0 0 0 2.76-.47c.51-.16.88-.74 1.31-1.13a5.39 5.39 0 0 0 -1-1 61.41 61.41 0 0 0 -11.06-3.99 1.57 1.57 0 0 0 -1.23.08 10.46 10.46 0 0 0 -2.43 2.25c-1.85 2.82-4.42 5-6.39 7.72-1.83 2.52-3.77 5-5.67 7.41-.84 1.08-2.14 2.81-3.33 4.61-1.61 2.43-2.85 4.2-3.42 5.19s-1.11 1.81-1.54 2.77c-.63 1.4-1.75 3.19-2.41 4.47-.52 1-1 2-1.46 3-.73 1.49-3.9 7-3.77 7.32s-.51 1.67-.7 1.45c-.95-1.07-1.85-2.19-2.74-3.31a6.23 6.23 0 0 1 -.64-1.09 16.46 16.46 0 0 0 -1.05-2.1c-.86-1.21-1.84-2.34-2.76-3.51-.63-.8-2.29-3.38-2.91-3.62a23.43 23.43 0 0 1 -3.28-4.17c-1.18-2-3.43-3.1-4.19-5.49-.43-1.34-1.61-2.44-2.49-3.63-2.29-3.1-4.48-6.29-6.94-9.26s-5.19-5.73-7.81-8.57a3.39 3.39 0 0 0 -3.88-1.09c-1.41.49-2.85.87-4.28 1.32-.22.07-.55.25-.57.41-.1.78-.25 1.08-1.07.52a1.94 1.94 0 0 0 -1.42 0c-1.8.52-3.58 1.07-5.35 1.68-1 .34-1.93.81-2.89 1.23a2.13 2.13 0 0 0 -1.4 2c0 .9.52 1.36 1.64 1.69.66.19 1.29.47 1.94.67 1 .31 1.3.26 1.42-.78.1-.79.47-.77.95-.73a3 3 0 0 1 1.07.38c.19.1.31.34.46.51a1.47 1.47 0 0 1 -.49.18c-.77 0-1.33.19-1.5 1.07-.06.3-.47.52-.71.78a5.81 5.81 0 0 0 -1 1.08 1.64 1.64 0 0 0 .63 2.14c.7.4 1.17-.07 1.65-.47l1.37-1.14a10.71 10.71 0 0 0 -.39 1.63 1.13 1.13 0 0 0 1.49 1.22 2.5 2.5 0 0 0 .79-.48c.53-.41.7-.08.59.35s.64 1.22-.12 1.69a8.7 8.7 0 0 0 -3.32 3.78c-.83 1.71-.89 1.84.63 3.1.45.37.39.48-.08.73-.65.36-.43.85 0 1.19a.61.61 0 0 0 1-.41c.21-.93 1.08-1.16 1.66-1.68.08-.07.54.12.54.19 0 .52.69 1.21-.34 1.54-.25.08-.63.49-.59.63.33 1-.5 1.22-1 1.71a2.27 2.27 0 0 0 -.54 1.16 1.26 1.26 0 0 0 .91 1.46 1.62 1.62 0 0 0 1.31-.36 3 3 0 0 0 1-1.54c.16-1 1.59-1.37 1.23-2.58a.89.89 0 0 1 .32-.14c.48-.13 1-.26 1.44-.35.64-.12 1.24.64.81 1-.73.58-.64 1.66-1.57 2.08a2.85 2.85 0 0 0 -1.71 2.52c0 .78-.62 1-.95 1.47a7.22 7.22 0 0 0 -.63 1.8s-.11 0-.17.06c-1.06.4-1.05 1.48-1.4 2.3a1.07 1.07 0 0 0 .2.85 2.37 2.37 0 0 0 4.29-.54 1.78 1.78 0 0 0 .18-1.07c-.16-.63.19-.62.61-.84s1.13-.76 1.2-1.24c.16-1.08 1.13-1 1.71-1.51 0 0 .53.4.49.49a3.15 3.15 0 0 1 -.59.83c-.23.28-.74.59-.7.78.29 1.29-.68 1.79-1.33 2.56a6.18 6.18 0 0 0 -.71 1.89c-.14.38-.17 1-.44 1.11-.93.53-1.08 1.52-1.51 2.31a1.65 1.65 0 0 0 .2 2.21 1.89 1.89 0 0 0 2.82-.07c.28-.23.59-.44.89-.66 0 1.1.33 2.22-1.12 2.9-.72.34-.8 1.93-.44 2.36a2.23 2.23 0 0 0 3.62-.3 2.73 2.73 0 0 0 .48-1.38.92.92 0 0 1 .69-1.08 2.41 2.41 0 0 0 .9-.92c.83-1.27 1.63-2.57 2.41-3.87a.65.65 0 0 0 -.11-.63c-1-.84-.29-.82.38-.78a2.19 2.19 0 0 0 2.22-1.08c.13-.22.49-.3.75-.45a6.31 6.31 0 0 1 -.28.87c-.73 1.44-.57 2.12.77 2.94a9.87 9.87 0 0 0 1.18.57c1 .45 2.06.83 3 1.35a1.63 1.63 0 0 1 .53 1c.13.53-.28.51-.69.56-1.12.16-1.53 1.18-2.15 1.93a13 13 0 0 1 -.87 1.16 5.87 5.87 0 0 0 -1.84 2.55 2 2 0 0 1 -.54.71c-.9 1-1.89 2-2.69 3.08-.49.66-.8 1.3-1.75 1.45a1.25 1.25 0 0 0 -1.06 1.53 2.72 2.72 0 0 0 .82 1.58 1.36 1.36 0 0 0 1.85-.39 12.63 12.63 0 0 0 1.11-1.66c.25-.41.42-.87.68-1.26.73-1.08 1.59-2.08 2.2-3.21a3 3 0 0 1 1.32-1.48 5.54 5.54 0 0 0 .9-.65l.78-.56a3.45 3.45 0 0 1 -.12 1.08 2.42 2.42 0 0 1 -.74 1c-2.15 1.48-2.73 4.06-4.26 6a2.32 2.32 0 0 0 -.37 1.6c.09.6-.15.73-.59.92-1.13.49-1 1.69-1.19 2.6-.08.33.68.9 1.08 1.35a2.94 2.94 0 0 0 .56.49c.87.57 1.26.39 1.62-.6a13.28 13.28 0 0 1 1.39-3.4 37.91 37.91 0 0 1 3.63-3.88c.81-.82.83-1.32 0-2.18a3.69 3.69 0 0 1 -.41-.38c-.28-.36-.53-.74-.78-1.11a8.29 8.29 0 0 1 1.41.23 2.85 2.85 0 0 1 .92.63c.68.63 1.13.44 1.7-.22a7.63 7.63 0 0 1 1.62-1.12c-1.21 2.68-1.18 2.87.82 4.8a.89.89 0 0 1 .13.14l.24.44a1.78 1.78 0 0 1 -.52 0 2.83 2.83 0 0 0 -3.87 1.14 15.91 15.91 0 0 1 -2.95 3.31 6.94 6.94 0 0 0 -1.21 1.66 1.73 1.73 0 0 0 -.25 1c.32 1.92.34 4 2.28 5.18.28.17.69.49.87.4a1.11 1.11 0 0 0 .53-.88c0-.59-.48-1.21-.37-1.74s.83-.93 1-1.48a8 8 0 0 0 .33-2.53c0-1 0-1.1 1-.83.67.19 1.36.3 1.68-.31.77-1.46 2.74-2.09 2.75-4.05 0-.11.22-.24.36-.32a13.87 13.87 0 0 0 4.66-4.37 7.49 7.49 0 0 1 1.17-1.64c.24-.22.78-.11 1.18-.15a3 3 0 0 1 -.35.92 12.77 12.77 0 0 1 -2.27 2.42 6.31 6.31 0 0 0 -2 2.42c-.5 1-.85 2-2 2.46-.34.14-.57.65-.74 1-.43 1-.73 2-1.19 2.94a1.63 1.63 0 0 0 .6 2.27 6.75 6.75 0 0 1 .64.67c-.24 0-.56 0-.73-.13-1.21-1-2.13-.19-2.91.58a9.53 9.53 0 0 0 -1.44 2.17 1.31 1.31 0 0 0 .28 1.71 3.73 3.73 0 0 0 .67.65c.78.45.72 1.05.41 1.76a13.19 13.19 0 0 0 -.79 2.09c-.17.7.33 1.54.8 1.47.77-.1.74-.71.69-1.29zm-25.46 305.19c-.62-.37-1.2-1-2-.19-.43.45-.58.22-.64-.3a3.54 3.54 0 0 0 -.38-1.75 21.9 21.9 0 0 0 -2.73-2.54 2 2 0 0 0 -2.57 0c-.56.59-.55 1.24.18 2.18a17.31 17.31 0 0 0 1.65 1.78c.66.65 1.38 1.25 2.05 1.91.14.13.16.38.24.57a1.73 1.73 0 0 1 -.48-.2 11.32 11.32 0 0 0 -3.78-2.33 1.37 1.37 0 0 0 -1.15.15 2.65 2.65 0 0 0 -.15 3.54c1.31 1.51 2.69 2.95 4 4.44.14.15.15.41.23.62-.22-.05-.5 0-.66-.16-1.25-1-2.49-2.08-3.72-3.12-.58-.49-1.19-.75-1.85-.21a2.07 2.07 0 0 0 -.27 2.53c.93 1.09 1.87 2.16 2.79 3.25a1.53 1.53 0 0 1 .19.45c-.16 0-.39 0-.48-.11a7.88 7.88 0 0 0 -3.85-1.8.58.58 0 0 0 -.65.87 23.47 23.47 0 0 0 6.21 6.12 1.17 1.17 0 0 0 1.79-.36c1.07-1.78 2.76-3.25 2.92-5.53a1.16 1.16 0 0 1 .41-.79 5.69 5.69 0 0 0 1.89-3.55 1.62 1.62 0 0 1 .76-1.13c1.63-1.14 1.72-2.38.41-3.83-.17-.18-.31-.39-.47-.58.3.1.6.19.89.3a.75.75 0 0 0 1.12-.58c.71-2.46 1.45-4.9 2.14-7.36a1.58 1.58 0 0 0 -.65-1.82 1.41 1.41 0 0 0 -1.74.07 1.53 1.53 0 0 0 -.41 1.87 9.37 9.37 0 0 1 .19.92 4.24 4.24 0 0 1 -1.17-.49c-.26-.21-.29-.68-.5-1-.45-.66-1.14-.7-1.5-.05a7 7 0 0 0 -1 4.13c0 .3.39.57.59.85a4.39 4.39 0 0 0 .68-.75c.42-.68.78-1.4 1.17-2.1a11.94 11.94 0 0 1 -.5 2.42 2.42 2.42 0 0 0 .24 2.62 5.8 5.8 0 0 1 .56 1.04zm51.07-437.08a2.45 2.45 0 0 1 -.62-.4c-1.25-1.47-2.48-3-3.73-4.43s-2.34-2.7-3.53-4c-.12-.13-.38-.13-.58-.19v.51a29.94 29.94 0 0 0 1.93 3.41c1.24 1.72 2.63 3.32 3.93 5s2.31 3.41 4 4.65c.68.5 1.05.43 1.46-.31a12.83 12.83 0 0 1 .74-1.17 4.77 4.77 0 0 1 2.37-2.17c.18-.06.3-.38.4-.61a13.78 13.78 0 0 0 1.58-6.53c-.08-1.13-.05-2.25 0-3.38a4.1 4.1 0 0 0 -.75-2.83 1.06 1.06 0 0 1 -.08-1 3.71 3.71 0 0 0 .07-3.4c-1-3.12-3.4-5.19-5.69-7.3a6.85 6.85 0 0 0 -3.83-1.85 3.91 3.91 0 0 0 -1.8.18c-.29.1-.68.8-.59 1a8.22 8.22 0 0 0 1.5 1.87 1.47 1.47 0 0 0 1.14.2 1.14 1.14 0 0 1 1.26.55c1.85 2.19 3.72 4.36 5.56 6.56a3.87 3.87 0 0 1 .43 1 5.17 5.17 0 0 1 -.87-.37c-.43-.26-.8-.6-1.22-.86s-.63-.79-1-.21c-.07.09.34.52.53.79.4.61.79 1.22 1.18 1.83h.05a8.74 8.74 0 0 1 -1.52-1c-1.7-1.64-3.4-3.28-5-5a13.17 13.17 0 0 1 -2.3-3.37c-1.09-2.45-1-2.5-3-.72-.09.08-.23.15-.26.26-.1.27-.29.62-.2.84a.86.86 0 0 0 .74.35c1.39-.39 2.09.55 2.79 1.42a12.85 12.85 0 0 1 1 1.59 46.71 46.71 0 0 0 5.53 8.19 2.11 2.11 0 0 1 .44.6c.06.12 0 .32-.09.47a.5.5 0 0 1 -.34-.05c-.24-.19-.47-.41-.69-.62-.75-.75-1.48-1.53-2.25-2.25a4 4 0 0 0 -.94-.51 5.15 5.15 0 0 0 .18 1 33.93 33.93 0 0 0 6.37 9.02c.25.27.64.41.88.69s.62.73.55 1a4.66 4.66 0 0 1 -.81 1.33 10.19 10.19 0 0 1 -1.11-1c-.53-.59-1-1.29-1.52-1.86-3.12-3.23-6.26-6.43-9.39-9.66-.81-.84-1.56-1.74-2.34-2.61a3.33 3.33 0 0 0 -.27-.86 11.46 11.46 0 0 0 -1-1.13 9.41 9.41 0 0 0 .53 1.49c.12.23.49.31.75.46a17.91 17.91 0 0 0 .85 2.18 57.29 57.29 0 0 0 5.3 8.48c1.18 1.49 2.13 3.16 3.19 4.75zm56.3 88.67a3.16 3.16 0 0 0 -2.83 1.12c-.66.72-.54 1.49.38 1.67a4.19 4.19 0 0 0 1.93-.26 6.11 6.11 0 0 0 1.28-.69 2.11 2.11 0 0 0 -.44.6 3 3 0 0 1 -2.21 2 3.8 3.8 0 0 0 -1.66 1.66 1.46 1.46 0 0 0 .25 1.29 2.7 2.7 0 0 0 3.1.42 7.28 7.28 0 0 0 2.21-2c.53-.95 1.21-.91 2-.9a2 2 0 0 1 .51.17c-.13.2-.21.47-.38.57s-.78.16-1 .38c-.78.67-2 1.33-2.14 2.16a16.3 16.3 0 0 0 .15 4.77c.09.9.75 1.22 1.48.68a27.46 27.46 0 0 0 2.7-2.49c.16-.16.33-.5.46-.48 1.75.31 2.31-1.19 3.24-2.11a4.26 4.26 0 0 1 .95-.86c.28-.13.68 0 1 0a2.39 2.39 0 0 1 -.12.86c-.34.59-.8 1.12-1.13 1.72-.88 1.56-1.72 3.15-2.57 4.73l-.1.09v-.14a27.65 27.65 0 0 0 2.83-1.8c3.28-2.65 6.5-5.38 9.75-8.06.82-.68 1.7-1.28 2.48-2a1.75 1.75 0 0 0 .26-2.64c-1-1-2-2-3-3-1.63-1.69-3.21-3.44-4.87-5.11-1.09-1.1-2.34-2-3.38-3.19-1.33-1.44-4-1.18-4.51-3.62a43.67 43.67 0 0 0 -7.54-5.15c-1-.49-1-.4-1.51.59a26.25 26.25 0 0 0 -2.35 7.64 2.78 2.78 0 0 0 .61 2.75 1.46 1.46 0 0 0 -1.81 1.19 1.63 1.63 0 0 0 2.71 1.48 5.33 5.33 0 0 0 .46-.32c.64-.55.64-1 0-1.5-.45-.32-.93-.59-1.4-.89 1.94.63 3.86 1.1 5.68-.34h-.05c-.28 1.16-.23 2.52-1.79 2.9-.15 0-.29.25-.37.41a6 6 0 0 1 -.86 1.95c-.49.48-1.36.55-2 .9s-.58.78-.08 1.21a2 2 0 0 0 3.23-.75c.22-.47.27-.91.91-1s1.09-.21 1.64-.27c.11 0 .37.22.36.32a.8.8 0 0 1 -.29.58c-.52.32-1.11.52-1.62.85a1.42 1.42 0 0 0 -.55 1.91zm-15.08 342.81c.55.54 1.11 1.08 1.63 1.64a.64.64 0 0 1 .08.51 5 5 0 0 0 .54 3.43c1.07 2.66 2.21 5.28 3.35 7.91.11.25.39.42.59.63a3.4 3.4 0 0 0 .58-.8 7.7 7.7 0 0 0 .3-1.28c0 .49.07 1 .08 1.47a6.39 6.39 0 0 0 0 1.31 28.7 28.7 0 0 0 .89 3.21 1.1 1.1 0 0 0 .86.48c.15 0 .45-.44.47-.7.07-.93 0-1.87.07-2.8 0-.47.15-1.3.35-1.34 1.34-.23.71-1 .69-1.76a1.61 1.61 0 0 0 -.51-1.3 1.53 1.53 0 0 1 -.5-1.13c.25-1.67-.73-3-1.21-4.4-.24-.71-.5-1.41-.77-2.1-.81-2.08-1.59-4.18-2.44-6.24a33.27 33.27 0 0 1 -1.86-4c-.78-2.87-2.51-5.23-3.77-7.85-.75-1.57-1.86-2.95-2.64-4.46-.95-1.87-2.45-3.11-3.77-4.57a1.26 1.26 0 0 0 -1.48-.5c-.51.19-.59 0-.57-.5a2.79 2.79 0 0 0 -.37-1.73 28.67 28.67 0 0 0 -3-3.36 117 117 0 0 0 -10.7-9.31c-2.56-1.91-5.17-3.7-8.32-4.43a75.48 75.48 0 0 0 -7.65-1.68c-2.56-.33-2.11.21-2.53 2a3.74 3.74 0 0 0 0 .75c0 2.07.1 2.28 2.09 2.84.58.16 1.19.24 1.79.35s1.36.18 2 .33a5.61 5.61 0 0 1 1.94.63c.76.54 2.16 1.35 2.8 1.77l.31.22 5.8 3.78a9.44 9.44 0 0 0 2.55 1.54c1.22.29 1.82 1.22 2.68 1.89.49.38.11.71-.26.74a11.34 11.34 0 0 1 -1.84-.09l-.08-.1.13.05a3.8 3.8 0 0 0 2.44 1.88c1.18.27 1.09 1.81 2.24 2 .12 0 .23.13.35.15 1 .15 1.2.85 1 1.65-.26 1.3.58 1.94 1.43 2.58s1.33-.24 1.91-.6c.92-.55 1.05-.53 1.46.51.89 2.24 1.76 4.5 2.65 6.74a1.74 1.74 0 0 0 .46.79c1.44.91 1.86 2.36 2.18 3.89a5 5 0 0 0 .56 1.38 16.74 16.74 0 0 1 2.08 4.27 1.17 1.17 0 0 0 1.53 1c.6-.15.74.19.42.57-1.33 1.59 0 2.9.41 4.3a.49.49 0 0 0 .45.2c.14 0 .35-.25.34-.38 0-.67-.13-1.34-.21-2zm-103.91-350.39c-.47-.49-.92-1-1.43-1.44a4.29 4.29 0 0 0 -.91-.45c-.11.34-.38.72-.3 1a25.09 25.09 0 0 0 1 2.8c.22.52 1 .79.66 1.57-.44-.42-.91-.81-1.33-1.25a1.89 1.89 0 0 1 -.74-1.91 3.4 3.4 0 0 0 -.7-2c-.2-.36-.71-.55-1.08-.82a6.06 6.06 0 0 0 -.79 1.2 2.71 2.71 0 0 0 0 1.09c0 .3.2.7.08.88-1 1.44-.17 2.62.51 3.78a3.78 3.78 0 0 1 .8 2.78h.05a14.48 14.48 0 0 0 -1.72-2.15 2.14 2.14 0 0 1 -.89-2.09 1.3 1.3 0 0 0 -.14-.72c-.11-.2-.33-.44-.52-.45s-.43.26-.46.45c-.1.56-.12 1.09-.79 1.36-.15.07-.27.59-.19.83.49 1.54.85 3.14 2.09 4.33.22.21.51.44.55.7s-.21.54-.33.81c-.18-.12-.46-.2-.54-.36-.62-1.39-2.17-2.28-2.13-4a.81.81 0 0 0 -.36-.63 1.42 1.42 0 0 0 -1-.17 1 1 0 0 0 -.4.85c.19.64.36.94-.56.6s-1.42.07-1.3 1a2.86 2.86 0 0 0 .27.89c.94 2 2.29 3.8 2.67 6a2.34 2.34 0 0 0 .25.5c.39.8 1.29 1.36 1.12 2.42-.63-.68-1.27-1.34-1.87-2a1.07 1.07 0 0 1 -.23-.67 6.15 6.15 0 0 0 -1.67-3.81c-.41-.51-.88-1.39-1.82-.83a2.56 2.56 0 0 0 -.47 2.45c.13.28.4.49.54.76a1.74 1.74 0 0 1 .29 1c-.42 1.65.56 2.9 1.27 4.16.45.79 1.12 1.39 1.09 2.44a1.7 1.7 0 0 0 .71 1.25c1.81 1.12 3.22 3 5.58 3.16.33 0 .64.35 1 .54 3 1.92 6 3.93 9.16 5.72a38.68 38.68 0 0 1 6.4 4.18 11.76 11.76 0 0 0 1.9 1.16 1.61 1.61 0 0 0 2.15-.55c.54-.6.28-1.27-.06-1.92-.67-1.26-1.34-2.52-1.94-3.81s.19-3-1.39-3.9c-.09-.05 0-.46.06-.71a4.6 4.6 0 0 0 .12-1.27c-.17-1-.44-2-.67-3.07-1.51-.64-.27-1.79-.51-2.66a2.68 2.68 0 0 0 -.55-1c-.4-.48-.85-.91-1.29-1.36s-1.89-.85-.16-1.59c.18-.08.25-.55.27-.85a2.88 2.88 0 0 0 -1.41-2.86c-.43-.26-.8-.5-.56-1.18a3.79 3.79 0 0 0 -1.87-5.09 10.36 10.36 0 0 1 -1-.58.72.72 0 0 1 -.16-.47s.19-.16.3-.17a5.63 5.63 0 0 0 .93-.1 1.32 1.32 0 0 0 .64-.52c.05-.1-.19-.43-.37-.58-.87-.7-1.76-1.37-2.63-2.06a4 4 0 0 1 -.46-.54 3.53 3.53 0 0 1 .64-.16c.18 0 .41.11.54 0a8.83 8.83 0 0 0 1-.72c-.23-.25-.42-.59-.71-.74-.71-.37-1.47-.66-2.21-1s-1.49-.63-2.22-1c-.14-.07-.21-.27-.31-.41.16-.08.34-.24.48-.2.73.16 1.43.43 2.16.55a5.48 5.48 0 0 0 1.33-.11 8.54 8.54 0 0 0 -1.15-.77c-.73-.32-1.53-.49-2.23-.86a.48.48 0 0 1 .18-.93c.67-.11 1.37-.06 2.05-.13.28 0 .79-.22.79-.31-.07-1.08.54-2.22-.25-3.25-.4-.53-.81-.63-1.11 0-.47 1-1.14 1-2 .51-.53-.35-1.16-.49-1.48.09a3.19 3.19 0 0 0 -.48 2.07 15.8 15.8 0 0 1 .43 2.26 5.52 5.52 0 0 0 1.32 3c.7.73.5 1.29.37 2zm67.92 177.67h-.05c-.77.71-1.57 1.4-2.32 2.14-1.15 1.12-1.21 1.85-.12 3.05s2.18 2.23 3.28 3.34a1.09 1.09 0 0 0 1.5.25c.46-.3.9-.75 1.51-.32a3.2 3.2 0 0 0 -1 2.06c-.06.17-.18.41-.31.44-.58.15-1.3.07-1.74.39-.85.62.22 1.17.27 1.78a1.62 1.62 0 0 1 -.14.51 2.7 2.7 0 0 1 -.48-.16c-.1-.06-.15-.2-.24-.28-.91-.86-1.32-.88-2.18-.09s-.82 1.29-.08 2.25a11.44 11.44 0 0 1 .95 1.36c.35.63.78 1.25-.22 1.82a1 1 0 0 0 -.17 1.49c.39.58.17.75-.39 1.09a1.7 1.7 0 0 0 -.69 2.55 10.89 10.89 0 0 0 1.55 2.09c.67.73 1.12.61 1.46-.37a8.24 8.24 0 0 1 1.53-3.33 1.35 1.35 0 0 0 .26-.69c.16-1.13.5-1.14 1.17-.28.46.58 1 .2 1.52-.05v-.05l-.36 2.31a4.77 4.77 0 0 0 -.52-.22c-1.36-.36-1.47-.27-1.78 1a5.06 5.06 0 0 1 -.63 1.25 7.86 7.86 0 0 0 -.69 1.08c-.39 1.07.05 2.51-1.44 3.09-.13.05-.09.47-.17.7a6.27 6.27 0 0 1 -.56 1.36 2.07 2.07 0 0 0 .23 3c.31.3.5.72.79 1 1.32 1.49 1.33 1.49 2.38-.3.34-.59.68-1.18 1-1.79a12 12 0 0 1 .65-1.51c1.21-1.73 2.75-3.27 3.13-5.49a.86.86 0 0 1 .68-.47c.22 0 .61.3.62.5.06.63.62 1.48-.62 1.73-.22 0-.54.79-.43 1 .29.59.81.39 1.26.05s.73-.75 1.18-.88a5.75 5.75 0 0 0 3.14-2.22c.17-.23.59-.27.89-.39 0 .33.06.79-.12 1a17 17 0 0 0 -3.61 6c-.85 2-1.26 4.11-2.26 6.06a2.33 2.33 0 0 0 .34 1.86c.3.45 1.25 0 1.87-.76.15-.2.38-.42.37-.63s-.1-.84-.28-.9c-1.11-.36-.42-.78-.05-1.13a9.71 9.71 0 0 1 1.48-1.14 8.2 8.2 0 0 0 3-3.25c.47-.89.76-2 1.89-2.46h-.05c-.24.64-.52 1.27-.7 1.93a1.29 1.29 0 0 0 .21.83c0 .06.43-.08.66-.13l.64-.16a2.05 2.05 0 0 1 -.33.6 9.69 9.69 0 0 1 -1 .78 13.33 13.33 0 0 0 -4 5.09c-.63 1.27-.24 2 1.06 2.17a46.91 46.91 0 0 0 5 .48 34 34 0 0 0 10.3-1.57c2.65-.75 5.51-1 7.53-3.24.22-.25.67-.29 1-.41l1.21-.43a13.43 13.43 0 0 0 5.06-3.27 5.55 5.55 0 0 1 1.28-.76c.41-.26.83-.54 1.22-.84 1.19-.9 2.37-1.8 3.55-2.72a10.49 10.49 0 0 0 1.57-1.31c1.15-1.3 2.18-2.72 3.36-4a64.25 64.25 0 0 1 8.34-7.19c.61-.47.66-1.09.93-1.69s1.13-.78 1.71-1.18c.09-.05.11-.22.15-.34a30.6 30.6 0 0 1 2.71-6 18.59 18.59 0 0 0 2.29-7.62 6.54 6.54 0 0 0 -.42-3.92l-.05.05c.71-.11 1.17-.46 1.14-1.23-.05-1-.12-2-.19-3 0-.36-.22-.83-.06-1.08 1.19-1.95.27-4.21 1-6.24a1.19 1.19 0 0 0 -.47-1.07c-.23-.12-.76.19-1.08.41-1.07.74-1 1.91-1.1 3 0 .21-.2.4-.31.6-.12-.18-.33-.36-.35-.55a10.5 10.5 0 0 1 0-1.68c.15-2.24.32-4.48.49-6.72 0-.06 0-.12 0-.19.1-1.36.23-2.73.26-4.09 0-.35-.33-.71-.51-1.07a3.5 3.5 0 0 0 -.71.73 14 14 0 0 1 -1.52 3 4.47 4.47 0 0 0 -1 2.89c-.2 1.92-.56 3.82-.88 5.72 0 .15-.22.27-.34.4a1.47 1.47 0 0 1 -.14-.47c0-.37.26-.84.11-1.09-1-1.68-.46-3.19.34-4.73a5 5 0 0 0 .47-1.81c.18-1.86.31-3.73.44-5.6a9.41 9.41 0 0 0 -.06-1.68.74.74 0 0 0 -.44-.53c-.14 0-.41.2-.54.38a7.82 7.82 0 0 0 -.54 1c-.87 1.78-1.72 3.59-2.64 5.36a6.74 6.74 0 0 1 -1.08 1.2h.05c.63-1.82 1.21-3.66 1.92-5.44s1.51-3.28 2.21-5 .4-2.65-1-3.78a7 7 0 0 0 -.78-.51c-1-.58-1.27-.57-1.81.37a33.35 33.35 0 0 0 -1.7 3.51c-.52 1.2-.86 2.48-1.43 3.64a15.53 15.53 0 0 1 -1.59 2.22l.05.05a15 15 0 0 1 .47-1.78c1-2.66 2.11-5.31 3.13-8a3.31 3.31 0 0 0 -.88-3.93c-.57-.51-1.05-.41-1.36.2q-1.11 2.14-2.1 4.35c-.65 1.47-1.23 3-1.87 4.47-.1.22-.38.37-.58.56a3.17 3.17 0 0 1 .12-.88c1.07-2.72 2.17-5.44 3.26-8.16.42-1 .83-2.11.12-3.22a1.07 1.07 0 0 1 -.06-.69 2.69 2.69 0 0 0 -1.5-3 .86.86 0 0 0 -.79.23c-.79 1.19-1.53 2.4-2.25 3.63-.44.76-.78 1.57-1.2 2.34a2.38 2.38 0 0 1 -.52.47 1.79 1.79 0 0 1 -.12-.62 10 10 0 0 1 .46-1.62c.7-1.72 1.44-3.44 2.14-5.16a2.49 2.49 0 0 0 -1.2-3.44 1 1 0 0 0 -1 .19 4.8 4.8 0 0 0 -.53 1.17c-.77 1.48-1.54 3-2.34 4.42-.06.12-.3.14-.46.21 0-.17-.07-.37 0-.51.77-1.91 1.48-3.85 2.37-5.7 1.16-2.41 1.09-3.79-.57-5.75-.64-.75-1-.72-1.51.12-.81 1.33-1.62 2.66-2.45 4a4 4 0 0 1 -.62.62 3.41 3.41 0 0 1 0-1.06c.48-1.35.93-2.71 1.54-4a3.47 3.47 0 0 0 -.75-4.25c-1.25-1.39-1.26-1.45-2.49.1a2.13 2.13 0 0 1 -.42.3 1.87 1.87 0 0 1 -.31-.59 2.06 2.06 0 0 1 .13-.92 2.64 2.64 0 0 0 -.71-3.08c-.9-.94-1.87-1.82-2.81-2.72v.05l2.52 1.1c.1.05.31.05.32 0s.14-.4.06-.49a7 7 0 0 0 -.77-.77l-4.69-4.46c.6.28 1.21.57 1.82.83a2.65 2.65 0 0 0 .49.09 1.59 1.59 0 0 0 -.19-.46c-.88-1-1.78-2.08-2.68-3.12l-4.43-5c-.82-.93-1.64-1.86-2.48-2.76a1.17 1.17 0 0 0 -1.93 0 7.86 7.86 0 0 1 -3 1.82c-1.13.47-2.42.36-3.44 1.26s-2.37 0-3.47.61a7.22 7.22 0 0 1 -1.06.31c-1.12.41-2.15 1.23-3.46.55-.18-.09-.48.07-.72.09-1.62.17-3.23.38-4.84.47s-3.08.71-4.63 0a1.43 1.43 0 0 0 -.74 0 11.26 11.26 0 0 1 -2.33.36 9.94 9.94 0 0 1 -2.18-.67 1.14 1.14 0 0 0 -.37 0 13.82 13.82 0 0 1 -4.2-.31c-2.32-.49-4.67-.78-7-1.14-.95-.15-1.9-.79-2.86 0a.72.72 0 0 1 -.67-.09c-1.27-1.43-3.37-.49-4.76-1.7-.46-.41-2.73-.24-3.23-.54a5.81 5.81 0 0 0 -2.05-.74c-1.16-.16-2.21-1.4-3.52-.36-.12.09-.62-.23-.9-.42a21 21 0 0 0 -2-1.34c-.66-.32-1.14-.13-1.29.76-.2 1.23-.33 1.26-1.58 1.24h-2.4c-2.44-.05-2.62.13-2.44 2.6a5.35 5.35 0 0 0 .07.56c-.55-.09-1.09-.21-1.64-.27s-1.22.79-1.36 1.48.2.9.75 1.05a6.83 6.83 0 0 0 .87.29c1.18.17 1.78-.52 1.5-1.7-.07-.3-.12-.6-.18-.9a5.67 5.67 0 0 0 5.78 2.16c.74-.13 1.49-.15 2.23-.28 1-.19 1.24-.74.68-1.58-.41-.62-.86-1.22-1.27-1.85-.07-.11 0-.32 0-.49.17 0 .42 0 .5.12a19.09 19.09 0 0 0 1.93 2.5c1.82 1.66 2.81 3.92 4.41 5.73a1.7 1.7 0 0 1 .17.48 1.36 1.36 0 0 1 -.44-.19 12.87 12.87 0 0 0 -1.21-1.43 4.77 4.77 0 0 0 -2-1.31 48.54 48.54 0 0 0 -5.78-.42c-.8 0-1.1.56-.73 1.27.22.44.73.76.85 1.21.66 2.38 2.22 3.1 4.53 2.72.47-.07 1.3-.24 1.32.55 0 .29-.77.62-1.22.9-.14.09-.37 0-.55.07-1.52.18-1.52.18-1.1 1.7a5.3 5.3 0 0 1 .1.55h.05a3 3 0 0 1 -.76-.51c-1.57-2-3.77-2.49-6.16-2.48-.62 0-1.31-.06-1.43.82-.05.34-.12.46-.41.13a3.21 3.21 0 0 0 -.84-.72.74.74 0 0 0 -.68 0 .78.78 0 0 0 -.24.64 2.17 2.17 0 0 0 .36.84 29.63 29.63 0 0 1 1.65 2.48 3.17 3.17 0 0 0 3.39 1.8c1.31-.11 2.62-.23 3.93-.25a4.89 4.89 0 0 1 1.61.37c.17.06.39.4.35.54a.68.68 0 0 1 -.54.4c-1.75 0-3.49-.06-5.23-.17-.65 0-1.33-.34-1.14.78 0 0-.35.22-.45.16s-.34-.39-.55-.49a4.16 4.16 0 0 1 -2.69-2.82c-.28-1.07-1.54-1.9-2.45-2.75-.43-.4-.85-1.24-1.7-.54a.51.51 0 0 1 -.47-.15c-.68-1.55-2.06-1.09-3.25-1.12a1.23 1.23 0 0 0 -1.46 1.12c0 .16-.27.45-.35.42-.91-.22-1.19.51-1.5 1a5.83 5.83 0 0 0 -.79 2.06 1.54 1.54 0 0 0 .68 1.16c.54.36.52.53.09.93-.09.08.06.66.19.69.73.21 1.34.38.75 1.34-.09.16.15.52.24.78.28-.1.7-.11.81-.31a10.26 10.26 0 0 0 .81-1.86 1 1 0 0 0 -.14-.68c-.13-.29-.53-.64-.46-.8a1.72 1.72 0 0 1 .86-.93 3.28 3.28 0 0 1 1.73.07c.13 0 .17.95 0 1.32a2 2 0 0 0 -.12 2c1 1.75 2 3.48 3 5.19a1.49 1.49 0 0 0 1.58.73c1.42-.15 2.85-.18 4.28-.2s2.73.08 4.09.09c.46 0 1.1-.38 1.24.27.06.27-.53.79-.93 1a2.08 2.08 0 0 1 -1.24.15c-1.79-.24-3.57-.6-5.36-.79-.69-.08-1.83 0-2 .34-.55 1-.84 1-1.49.18a1.58 1.58 0 0 0 -.82-.43c-.68-.2-.78-.72-1.06-1.31a22.19 22.19 0 0 0 -2.39-3.72c-.4-.54-.9-.32-1.2.21a3 3 0 0 0 -.41 1 6.29 6.29 0 0 1 -.85 2.16c-.52 1-1.24 2.26-.54 3.54s1.5 2.58 2.27 3.86a2.22 2.22 0 0 0 2.18 1.19h.75a22 22 0 0 0 5.94-.58c.68-.19 1.65.48 1.57 1.1s-.72.55-1.19.59a8.52 8.52 0 0 1 -1.13 0c-1.67-.13-3.35-.3-5-.37a7 7 0 0 0 -1.6.28c.17.5.32 1 .52 1.49.09.23.28.42.38.64a3.61 3.61 0 0 1 .19.64 2.35 2.35 0 0 1 -.73-.41 14.66 14.66 0 0 0 -1.76-2.13 4.5 4.5 0 0 1 -1.78-2.49 7.39 7.39 0 0 0 -1.24-2.07c-.08-.11-.57-.1-.58-.07-.29 1.1-1.77 1.68-1.36 3.11a1.07 1.07 0 0 1 -.46.89c-.75.45-.77 1.15-.95 1.9-.36 1.48.52 2.5 1.07 3.66a2.25 2.25 0 0 0 2.38 1.43c2.43-.14 4.88.2 7.28-.49a.94.94 0 0 1 .82.45 1 1 0 0 1 -.34.88 7.43 7.43 0 0 1 -2.17.54c-1.24.08-2.51-.13-3.74 0-1.54.22-3-.51-4.51-.3-.19 0-.52-.29-.64-.52s0-.62-.11-.92c-.25-1.06-.92-1.8-1.33-1.5-.78.58-.56 1.28-.07 2 .29.4.19.7-.3.8-1.05.23-.86.89-.55 1.57s.77 1.57 1.13 2.36a1.23 1.23 0 0 1 0 .51 3.27 3.27 0 0 1 -.47-.18c-.27-.15-.52-.36-.79-.5-1-.49-1.37-.39-1.67.65a23.61 23.61 0 0 0 -.43 2.54c-.06.32-.06.77-.27.94a1.71 1.71 0 0 0 -.34 2.22 27.52 27.52 0 0 0 1.87 3.67 6.57 6.57 0 0 0 1.63 1.46 6 6 0 0 0 .87.33c.77.4.91 1.05.33 1.88-.43.61-.68-.13-1-.26a5.32 5.32 0 0 0 -3.66-.3c-.71.19-.89.59-.63 1.25.4 1 .77 2 1.15 3-1.2-.47-1.52-1.68-1.94-2.64a3.51 3.51 0 0 0 -2.61-2.14c-.55-.14-1.66-.08-.31-.93a1.24 1.24 0 0 0 .17-1.17 11.69 11.69 0 0 0 -1.88-3 3.79 3.79 0 0 1 -1.34-2.32 1.29 1.29 0 0 0 -1.17-1.28 1.76 1.76 0 0 0 -1.82.65 5 5 0 0 1 -1.33 1.22c-.91.59-1.15.91-.85 2a26.71 26.71 0 0 0 1.06 3c.44 1.06 1 1.09 1.76.18a7.22 7.22 0 0 1 .73-.83.61.61 0 0 1 .5 0 11.49 11.49 0 0 1 .38 1.74c0 .13-.29.3-.45.44-1.06.88-1.16 1.28-.7 2.59.31.88.64 1.76.92 2.66.06.2-.07.45-.11.68a3.27 3.27 0 0 1 -.48-.35c-.26-.24-.45-.62-.76-.76-.82-.36-1.41.32-1.85 2-.27 1.08-.05 1.54.85 1.66a2.19 2.19 0 0 0 1.11 0c1.58-.68 3.12-.27 4.68.08a3.18 3.18 0 0 1 .55.07 12.64 12.64 0 0 1 1.31.7c.13.08.16.31.23.47a1.45 1.45 0 0 1 -.5.16 13.94 13.94 0 0 1 -3.44-.28 18 18 0 0 0 -5-.78c-3.43-.1-3.46 0-2 3.11a26.24 26.24 0 0 0 2.1 3.73 10.93 10.93 0 0 0 2 1.65c.45.38.35 1.62-.15 2.31-.14.19-.13.18-1-.76-.24-.27-.53-.63-.85-.7-1.88-.41-3.77-.82-5.67-1.07-.81-.11-1.08.43-.83 1.24.14.47.35.93.47 1.41a.55.55 0 0 1 -.19.48.54.54 0 0 1 -.47-.17 21.89 21.89 0 0 0 -1.63-2.28 14.18 14.18 0 0 0 -2-1.48 3.71 3.71 0 0 0 0-2.74 1.21 1.21 0 0 1 0-.18c-.14-.68-.22-1.2.76-.63.19.11.87-.21 1-.48.58-1.35 1.59-2.6 1-4.25a1.06 1.06 0 0 1 .36-.91c1.62-1.13 1.79-3 2.39-4.62.47-1.32.72-2.72 1.26-4 .62-1.53 1.64-2.86 1.51-4.7a5.91 5.91 0 0 1 .81-2.9 40.71 40.71 0 0 1 2.3-3.56c0-.06.09-.12.08-.17 0-.35-.09-.7-.13-1.05-.28.1-.64.12-.81.31a24.44 24.44 0 0 0 -2.25 2.74 2.85 2.85 0 0 0 -.35 1.75c.06.63.17 1-.68.8a1.6 1.6 0 0 0 -1.19.26c-1.38 1.22-1.82 2.9-2.22 4.63-.27 1.19.43 1.71 1 2.42.15.17.09.54.12.83a5.81 5.81 0 0 1 -.61-.31c-1-.58-1.8-.44-2.07.54a8.13 8.13 0 0 0 -.29 2.9 1.85 1.85 0 0 1 -.64 1.78c-.47.43-1.1 1.42-.93 1.68.69 1 .39 1.58-.56 2.08 0 0-.06.11-.06.17a24.43 24.43 0 0 1 -1.41 5.69c-.3 1 .36 2.2-1 2.87-.17.09-.16.58-.18.89a7.64 7.64 0 0 0 1.32 4c.17.33.81.52 1.27.59.74.1 1.52-.05 2.24.09 1 .2 2 .36 2.77-.54a.68.68 0 0 1 .64-.07 21.69 21.69 0 0 1 2.18 1c.23.13.35.46.53.7a4 4 0 0 1 -.81.26 14.34 14.34 0 0 1 -5.33-.48 7.56 7.56 0 0 0 -1.84-.25c-.2 0-.49.32-.58.55a3.16 3.16 0 0 0 -.06 1 8.16 8.16 0 0 0 -.71-.83 5 5 0 0 0 -1.29-1 17.23 17.23 0 0 0 -2.17-.55c-.16 0-.28-.2-.42-.31.12-.09.24-.23.38-.26.37-.06.75 0 1.11-.12a.55.55 0 0 0 .33-.39c0-.15-.14-.47-.2-.46-1.77.15-1.14-1.18-1.22-2s.24-2-.4-2.91c-.5-.75-.41-.75.67-.84a1.31 1.31 0 0 0 .9-.7c.48-1.15.79-2.37 1.3-3.51.64-1.4.94-2.7-.32-3.92a.55.55 0 0 1 -.06-.5.46.46 0 0 1 .44-.11c.83.58 1.22-.11 1.41-.63a20.91 20.91 0 0 0 1.25-4.11 13.16 13.16 0 0 1 1.18-4.45 3.57 3.57 0 0 0 .43-1.8c-.09-1.19-.58-2.39.59-3.37.1-.08-.19-.61-.29-.93a2.56 2.56 0 0 0 -.76.37c-.3.3-.45.8-.78 1a4.43 4.43 0 0 0 -1.79 2.77 2.54 2.54 0 0 0 1.21 3.06c.11.08.06.44 0 .65 0 0-.31.06-.48 0s-.2-.15-.31-.19c-1.48-.62-2.11-.37-2.51 1.12a8.82 8.82 0 0 0 -.3 2.4c0 1.63-1.42 2.9-1 4.59 0 0-.08.09-.12.14-1.83 2.13-1.18 5.06-2.34 7.41 0 .08.09.25.06.36a5.82 5.82 0 0 1 -.32 1c-.45 1-1 2-1.38 3s-.78 2.29.55 3.16c.17.11.18.45.3.67 1.31 2.49 2.65 5 3.93 7.45a11.69 11.69 0 0 1 .64 1.92s-2-1.48-2.28-2.46c-.57-2.33-2.47-3.88-3.17-6.1-.25-.75-1-.69-1.4 0a15.2 15.2 0 0 1 -.73 1.52 1.05 1.05 0 0 1 -.93.31c-.2-.06-.4-.58-.36-.86.09-.74.41-1.45.46-2.19a5.65 5.65 0 0 1 .48-1.91c1.18-2.84 2.19-5.76 3.24-8.66a3.47 3.47 0 0 0 .32-1.46 3.51 3.51 0 0 0 -.57-1.68c-.63-.85-1-.78-1.47.16-.3.61-.58 1.24-.83 1.88-.47 1.21-1.16 2.4-.47 3.77a.87.87 0 0 1 -.14.64c-.88 1.47-1.16 4-1.62 5.73-.38 1.48-.72 2.76-.09 4.18-.73 1.14-.05 2 .58 2.87.9 1.2 2.29 2.08 2.37 3.8 0 0 .08.09.12.13 1.17 1.55 2.35 3.07 3.48 4.64.76 1.05 1.38 2.2 2.16 3.23a33.11 33.11 0 0 0 2.46 2.82 21.52 21.52 0 0 0 1.92 1.78c.56.47 1.23.81 1.76 1.32 2 1.9 3.89 3.88 6.73 4.51a7.89 7.89 0 0 1 1.23.45c2.88 1.18 5.71 2.5 8.65 3.51a39.52 39.52 0 0 0 5.15.86c2.18.42 4.34 1.12 6.54 1.34a48.65 48.65 0 0 0 9.5.53 16.07 16.07 0 0 1 5.23.1 19.57 19.57 0 0 0 4.37.24 2 2 0 0 0 2-1.32 13.68 13.68 0 0 1 1.07-1.65l-.05-.05c0 .63 0 1.25-.06 1.88a1.12 1.12 0 0 0 1 1.32c.73.09.89-.57 1.09-1.08a1.45 1.45 0 0 0 .13-.9c-.39-1.22.3-2.1.82-3.05.3-.55.51-1.14.79-1.7a2.19 2.19 0 0 0 0-2.31 1.82 1.82 0 0 1 -.14-.64c1.48-.15 1.45-1.46 1.88-2.43 0-.07.2-.08.31-.12a1.24 1.24 0 0 1 .1.35c-.12 1.36-.25 2.72-.4 4.07 0 .16-.23.3-.29.47a30.61 30.61 0 0 0 -1.35 4 2.36 2.36 0 0 0 .7 1.81 3.55 3.55 0 0 0 3.91 1.05c1.16-.44 1.72-1.37 1.15-2.42a2.3 2.3 0 0 0 -1.28-.95c-1.09-.35-1-1.34-1.32-2.09s.33-1 .65-1.38a5.59 5.59 0 0 0 1-1.55c.44-1.41.74-2.87 1.1-4.3a4 4 0 0 1 .28-.68c.45-.95.9-1.89 1.37-2.84a3.28 3.28 0 0 1 .32-.44c0 .21.14.45.07.62-.71 1.79-1.13 3.57-.19 5.41-1.29.57-1.53 1.21-.83 2.34.17.26.67.62.79.55.32-.19.75-.63.7-.9a10.56 10.56 0 0 0 -.72-2c.91-.12 1.75-.39 2-1.37a34.46 34.46 0 0 0 1.32-4.85 3.38 3.38 0 0 1 1.08-2.44 3.45 3.45 0 0 0 1.3-2.41c.09-.8.14-1.6.25-2.4a3.07 3.07 0 0 1 .34-.71c.25.21.69.42.7.65a4.42 4.42 0 0 1 -.28 1.77 14.59 14.59 0 0 0 -1.5 5.74 1.65 1.65 0 0 1 -.7 1.4 1.79 1.79 0 0 0 -.29 2.78 9.66 9.66 0 0 0 1.21 1.42c.17.17.52.16.79.23 0-.3.16-.64.06-.88a14.13 14.13 0 0 1 -.87-1.41 1.61 1.61 0 0 1 .18-1.21c.1-.17.63-.16 1-.1 1 .19 1.08.18.85-.83-.16-.69-.26-1.15.57-1.47a2.42 2.42 0 0 0 1.51-2.56 2.4 2.4 0 0 1 0-.93c.1-.24.42-.39.65-.59.12.23.38.48.36.69a2.63 2.63 0 0 0 1.47 2.93c.26.14.41.49.66.65a5 5 0 0 0 .93.37 4.16 4.16 0 0 0 .08-1.21c-.06-.25-.4-.45-.61-.68-.43-.47-1.3-.8-.73-1.61.07-.11 1 .39 1.55.6.26.11.61.35.78.26a.94.94 0 0 0 .38-.77 9.67 9.67 0 0 0 -.53-1.54c-.09-.26-.15-.53-.23-.79.24 0 .47 0 .7.05 1 .15 1.4-.3 1.1-1.19a3.25 3.25 0 0 0 -.57-1c-.78-1-1.62-1.88-2.38-2.86a2.63 2.63 0 0 1 -.23-1c.32 0 .71 0 .94.12 1.78 1.21 3.7 2.26 4.77 4.31a6.56 6.56 0 0 0 1.56 1.6 1.14 1.14 0 0 0 1.68.07 1 1 0 0 0 -.1-1.63 16.92 16.92 0 0 0 -2.81-2.09c-1.89-1-2.33-2.62-.91-4.05.39-.4 1-.82 1.05-1.26.08-1.05.83-.92 1.43-1.07a6.92 6.92 0 0 1 1.4.12zm-16.85 125.72-1.54.2a29.77 29.77 0 0 0 -10.49 3.7c-4.13 2.3-8.34 4.46-11.69 7.91a19 19 0 0 1 -2.14 2.07c-1.69 1.25-3.46 2.38-5.19 3.58a2.57 2.57 0 0 0 -.59.71c-.71 1.08-1.38 2.19-2.13 3.25-.42.61-1 1.11-1.45 1.7-1.15 1.53-2.27 3.09-3.38 4.64a1 1 0 0 0 -.23.78 18.66 18.66 0 0 0 1.1 2.74 5.54 5.54 0 0 0 1.08 1.2 5.25 5.25 0 0 0 1-1.06 8.06 8.06 0 0 0 1-2.36c.22-1.3.45-1.58 1.53-.88.68.44 1 .31 1.34-.26s.7-1.33 1.06-2a11.73 11.73 0 0 1 .89-1.39c.49-.62 1.1-1.16 1.55-1.81a6.27 6.27 0 0 1 2-1.85c1.53-.94 3.49-1.58 3.86-3.78 0-.17.41-.45.54-.41 1.28.4 1.54-.7 2.14-1.35a6.61 6.61 0 0 1 1.61-1.52c2.14-1.14 4.32-2.23 6.53-3.22 2.67-1.2 5.42-2.22 8.08-3.45.83-.38 1.41-.75 2.34-.14a1.43 1.43 0 0 0 2.13-.45c.62-1.68 1.46-3.32 1.27-5.22a1.18 1.18 0 0 0 -1-1.2 11.56 11.56 0 0 0 -1.22-.13zm9.43-357.42a32.53 32.53 0 0 1 -3.4.4c-1.41 0-2.12 1.22-3.22 1.73a.55.55 0 0 0 -.08.5 1 1 0 0 0 .57.33.85.85 0 0 0 .51-.19c1-.7 1.62-.21 2.2.57.26.34.5.71.78 1 .69.79 1.39 1.57 2.11 2.34.11.11.34.1.52.15 0-.22.1-.49 0-.66a19.51 19.51 0 0 1 -1.23-2c-.49-1.16-.3-1.31 1-1.11.22 0 .53.08.68 0 .85-.67 1.41-.12 1.9.47 1.33 1.57 2.61 3.17 3.92 4.76a11.61 11.61 0 0 0 1.37 1.52c.2.17.64.06 1 .08 0-.28.13-.63 0-.84a9.56 9.56 0 0 0 -1.1-1.51c-1.31-1.5-2.66-3-4-4.48a2.68 2.68 0 0 1 -.36-.92c.35 0 .77-.11 1 0a3.62 3.62 0 0 1 1.11 1c1.07 1.45 2 3 3.14 4.41 1.42 1.88 2.93 3.69 4.37 5.56a6.86 6.86 0 0 1 .75 1.45 1.25 1.25 0 0 1 -.46.31 5.8 5.8 0 0 1 -.81-.91c-.49-.71-.89-1.49-1.42-2.16-.18-.22-.65-.22-1-.32a7.25 7.25 0 0 0 0 1c0 .17.2.31.3.46 1.25 1.82 2.89 3.35 3.68 5.51.45 1.22 1.37 1.33 3 .36 1-.59-.06-1.1-.26-1.63-.09-.23-.33-.46-.31-.67.14-1.65-.91-2.93-1.37-4.39a2.92 2.92 0 0 0 -.64-1.12c-1.91-2-3.4-4.41-5.56-6.19-.05 0-.12-.09-.12-.14 0-.26-.07-.53-.1-.79.23.06.52.06.66.21 1 1.08 2 2.2 3 3.29a5.32 5.32 0 0 0 1.11 1c.55.32.9 0 .79-.55-.16-.85-.46-1.67-.7-2.51a5.25 5.25 0 0 0 -4.2-4.07c-3.04-.55-6.21-.87-9.13-1.25zm46.52 67.5c-.12-1.48-.12-1.47-1.63-1.2-1.9.34-3.79.78-5.7.94-3.35.28-5.3 2.46-7.1 4.89-.55.75-.27 1.33.64 1.43 3.12.31 6.08 0 8.6-2.15.43-.36 1.19-1.43 1 .32a.6.6 0 0 0 .29.43c.69.43 3.09-.26 3.3-1 .32-1.16.99-2.24.6-3.66zm-79.29 2.2a4.74 4.74 0 0 0 -1.35.58 6.6 6.6 0 0 0 -2.3 3.53 1.72 1.72 0 0 1 -.59 1 3.23 3.23 0 0 0 -1.32 2.56 1.48 1.48 0 0 1 -.3.72 20.15 20.15 0 0 0 -1.64 2 1.63 1.63 0 0 0 .31 2.33 1.74 1.74 0 0 0 2.36-.34c.76-.89 1.37-1.91 2-2.87a5.42 5.42 0 0 1 .48-.67c.47-.49 1-.92 1.43-1.42.78-.84 1.23-2 2.35-2.54a8.43 8.43 0 0 0 1.75-1.64c.41-.4.62-.93.08-1.28-1.02-.79-2.18-1.38-3.26-1.96zm74.26-14.17c-.72.24-1.47-.43-2.14.34-1.18 1.37-2.48 2.64-3.7 4a7.11 7.11 0 0 0 -.68 1.06c.44.18.86.39 1.3.53a1.39 1.39 0 0 0 .73 0c2.33-.68 4.64-1.4 7-2.06a3.16 3.16 0 0 1 1.76-.13c2.11.73 3.32-.75 3.16-2.57s-.07-1.76-1.71-1.63c-1.94.09-3.85.26-5.72.42zm-9.36 36.17a6.55 6.55 0 0 0 -4.74 3.14 3.55 3.55 0 0 1 -1 1 1.22 1.22 0 0 0 -.56 1.6 3.06 3.06 0 0 0 1.3 1.19c.59.29 1.1 0 1.29-.68.12-.4.3-.55.6-.21a1.85 1.85 0 0 0 2.19.61 6.34 6.34 0 0 0 2.22-1.27 15 15 0 0 1 1.34-1.17 11.54 11.54 0 0 0 2.36-2.32.88.88 0 0 0 -.67-1.5c-1.28-.16-2.58-.22-4.33-.39zm-23.89 48.43h.3l-.21.6a2.24 2.24 0 0 1 -.33-.43c-.61-1.27-1.69-2.25-2.11-3.65a1.52 1.52 0 0 0 -1.78-1.06 2.06 2.06 0 0 0 -1.9 1.54 2.32 2.32 0 0 0 1.52 2.47c1 .15.92.48.63 1.22-.55 1.38.35 2.37 1.12 3.34a.76.76 0 0 0 .66.25c1-.31 2.26-.54 2.59-1.62s.85-1.16 1.68-1.36c1.08-.27 1.64-1.08 1.37-1.9a7 7 0 0 0 -2.79-3.83c-.27-.17-.78 0-1.19.07.05.32.07.64.14.95a6.48 6.48 0 0 1 .29 1c.04.84.01 1.64.01 2.44zm-42.51 19.62v-.14c.68 0 1.38 0 2-.11s1-.55.67-1.21-.78-1.57-1.23-2.32c-1.38-2.25-3.53-2.63-5.63-1-.36.29-.6.38-.94.08a1.71 1.71 0 0 0 -2.38.08 2.15 2.15 0 0 0 -.79 2.35c.17.74.39 1.5 1.49 1.15a1.07 1.07 0 0 1 .82.2 2.08 2.08 0 0 0 2.73.34c.15-.11.45 0 .67 0zm33.88 230a9 9 0 0 0 -.43-2 1.64 1.64 0 0 0 -1.07-.8c-.27-.05-.73.38-.91.7a2.76 2.76 0 0 0 -.25 1.26c0 3.17-.11 6.35-.1 9.53a3.51 3.51 0 0 0 .52 1.92 4.8 4.8 0 0 1 .71 2.45c.12 1.18-.9 1.36-1.44 2-.31.35-.79 1.06-.71 1.15a3.25 3.25 0 0 0 1.48 1c.94.2 1.64-.45 1.71-1.5s0-1.87 0-2.8c.11-2.86.37-5.71.34-8.57-.01-1.49-.79-2.97.15-4.27zm-.8-247.65a5.51 5.51 0 0 0 -.8-1.56 4.47 4.47 0 0 1 -1.2-2.4c-.38-1.94-1.65-2.33-3.25-1.18-.88.62-1 .93-.41 1.83a11.25 11.25 0 0 0 1.53 1.56c.19.19.55.41.54.59a16.72 16.72 0 0 1 -.35 2 2 2 0 0 1 -.31-.13c-.66-.45-1.05-.08-1.59.35-1.09.87-1.36 2.63-3.1 2.79-.14 0-.33.65-.29 1a.91.91 0 0 0 .68.5 3.72 3.72 0 0 0 1.19-.33c.2-.06.45-.32.55-.27 1.43.79 2.43-.32 3-1.12a4.05 4.05 0 0 1 2.43-1.57 1.77 1.77 0 0 0 1.38-1.99zm-57.88 44.6c-.17-.42-.44-1.18-.77-1.91s-.88-.64-1.39-.28a2.38 2.38 0 0 0 -.83 1 5.74 5.74 0 0 1 -1.39 2.13 2 2 0 0 0 -.29 1.69c.14.44.17.58-.19.84a4.12 4.12 0 0 0 -1.58 3.79c0 .83.26 1.73-.71 2.35-.23.14-.31.84-.17 1.17.22.52.7.31 1.1.07a1 1 0 0 1 .68-.19c.81.22 1.13-.25 1.39-.88a35.1 35.1 0 0 0 1.42-3.44c.24-.84.71-1.73.05-2.68-.53-.76-.2-1.26.77-1.37 1.42-.11 1.92-.6 1.91-2.22zm71.41 84.65a5.64 5.64 0 0 0 1-.94 37.42 37.42 0 0 0 4-7.74 4.18 4.18 0 0 0 0-1.42 10.1 10.1 0 0 0 -1.27.48c-.27.14-.42.5-.69.62s-.95.39-1.15.23c-.84-.68-1.3-.16-1.6.47a45.82 45.82 0 0 1 -2.59 4.84c-.84 1.54.27 3.41 2.3 3.53zm-1.9-121.15c1.95-.75 4.31-.5 5.37-2.41a11.3 11.3 0 0 1 3.19-3.09c.24-.2.45-.43.68-.65a1.22 1.22 0 0 0 .27-1.53c-.73-1.66-1.64-1.88-3-.67-.18.17-.34.36-.52.54a4.68 4.68 0 0 0 -.95 1.95c-.16.4-1.22.44-1.88.64a.35.35 0 0 0 -.14.13 10.45 10.45 0 0 1 -3.16 3 1.55 1.55 0 0 0 -.53.52c-.15.3-.39.75-.27.95s.63.48.94.69zm20.24-64.09a11.55 11.55 0 0 0 2.84-.38c2-.85 3.44-2.61 5.14-3.95.75-.59.5-1.29-.45-1.41s-2.12 0-3.18-.08a3.42 3.42 0 0 0 -2.69 1.1c-.78.81-1.58 1.6-2.33 2.44-.52.57-1.42.86-1.4 1.84zm14.57-11.38c-.47-.35-.78-.79-1.08-.78-1.62.06-3.23.22-4.84.39a1.1 1.1 0 0 0 -.63.38c-1 1.09-2 2.18-3 3.32-.2.24-.39.86-.28 1a1.67 1.67 0 0 0 1.12.39c1.11-.13 2.2-.51 3.3-.53a6.72 6.72 0 0 0 3.75-1.52c.72-.49 1.05-1.58 1.66-2.58zm-45.39 73.97c.07 0 .75-.09.92-.43a4.1 4.1 0 0 1 2.76-1.83 2 2 0 0 0 1.05-.75 1.71 1.71 0 0 0 .26-1.32 13.64 13.64 0 0 0 -1.57-2.31 1 1 0 0 0 -1.63 0 4.66 4.66 0 0 0 -.7 1.08c-.35.6-.12 1.88-1.53 1.2-.14-.07-.62.36-.82.65-.65.9-1.14 1.92-2.44 2.12-.24 0-.51.67-.51 1 0 .19.53.53.84.55.98.12 1.96.04 3.37.04zm39.34-82.58c.41 0 .6 0 .78-.08 2.28-.6 4.56-1.2 6.83-1.82a1.94 1.94 0 0 0 1.46-2.24c-.17-1-.67-1.21-2-1.16a10.91 10.91 0 0 0 -7.48 3.71c-.23.24-.51.73-.41.94s.62.53.82.68zm-13 68.41c-.77.22-1.48.4-1.57 1.23a3.65 3.65 0 0 0 1.2 3.5 1.89 1.89 0 0 1 .91 1.64c0 .64.19 1.45 1 1.56a3 3 0 0 0 2.73-1.3 1.57 1.57 0 0 0 0-2.21c-1.2-1.4-2.47-2.77-3.73-4.13a1.71 1.71 0 0 0 -.57-.26zm7.62-43.33c.9-.1 2.19-.25 3.49-.36a1.53 1.53 0 0 0 1.42-1 2.94 2.94 0 0 1 1.7-2.07c.21-.07.35-.62.32-.92s-.46-.45-.7-.44c-1.11 0-2.22.28-3.33.26-2.4-.06-3.72 1.43-4.84 3.23-.56.91-.39 1.22.61 1.32.28.03.59.01 1.3.01zm-106.63 132.32v-.1h1.31c1.62-.1 1.87-.54 1-2-1-1.65-2-3.27-3.07-4.89-.43-.67-.92-.67-1.21.06-.56 1.45-1 2.93-1.53 4.41-.37 1.13-.08 1.79 1.08 2.15a14.52 14.52 0 0 0 2.42.37zm154.91 10.41-.72-1c-.29.28-.56.57-.87.83a2 2 0 0 1 -.83.58c-.22 0-.23-.85-.76-.37a2.89 2.89 0 0 0 -.57.94c-.39.84-.72 1.71-1.13 2.55-.56 1.16-1.17 2.3-1.72 3.48a.71.71 0 0 0 .14.65.84.84 0 0 0 .67.08 3.81 3.81 0 0 0 .8-.47 17.75 17.75 0 0 1 2.92-2 2.31 2.31 0 0 0 1.46-1.76c.24-1.08.38-2.19.61-3.51zm-152.87-27.78c-.33.37-.83.72-1 1.18-.48 1.53-.88 3.09-1.22 4.67a3.27 3.27 0 0 0 .2 1.46c.16.62.46 1.19 1.2 1.27s1.13-.41 1.41-1c.53-1.12 1.06-2.25 1.53-3.4a2.54 2.54 0 0 0 .31-1.56 9.32 9.32 0 0 0 -1.42-2.15c-.15-.21-.53-.26-1.01-.47zm64.77-64.84c-.61-.7-1.11-1.3-1.63-1.89a.88.88 0 0 0 -1.3-.14 4.4 4.4 0 0 0 -2 2.17c-.19.52-.23.77-1 .92a5 5 0 0 0 -2.42 1.83c-.46.55-.1 1.33.45 1.84s.92.08 1.35-.17a1.5 1.5 0 0 0 .32-.19 15.48 15.48 0 0 1 2.14-2 28.41 28.41 0 0 1 2.74-1.09c.53-.23.84-.75 1.35-1.28zm-56.12 290.85a3.3 3.3 0 0 0 2.6-1.81c.36-.88-.16-1.46-.75-1.92a14 14 0 0 0 -2.17-1.39c-.56-.3-1.27-.85-1.81 0-.72 1.11-1.06-.35-1.6-.16-.1 0-.18.18-.25.28a1.05 1.05 0 0 0 0 1.51c1.09 1.09 2.19 2.18 3.31 3.23a1.86 1.86 0 0 0 .67.26zm76.05-296.57c-.5-.08-.74-.14-1-.15-1.23-.08-1.61.37-1.28 1.52a3 3 0 0 0 1.57 2.19c.58.24.76.47.6 1.08s-.1 1.39.6 1.57c.44.11 1-.24 1.51-.44a2.22 2.22 0 0 0 .6-.43c1.08-.94 1.23-1.68.31-2.71a3.61 3.61 0 0 1 -.86-1.75c-.08-.35-.62-.7-1-.85a2.48 2.48 0 0 0 -1.05-.03zm21 267.68c-.64-1.25-1.15-2.39-1.8-3.42-.35-.56-.9-.32-1.21.18-.58 1-1.15 1.92-1.66 2.92s.48 3.29 1.52 3.62c.27.08.75.08.88-.09.79-1.01 1.5-2.09 2.28-3.21zm-91.39 23.7a3.26 3.26 0 0 0 -.26-.57 2.14 2.14 0 0 0 -.52-.52c-1.61-1.06-3.22-2.12-4.85-3.15-.48-.31-1-.55-1.52 0a1.21 1.21 0 0 0 .08 1.7l.12.13c1.34 1.22 2.66 2.45 4 3.64a2.41 2.41 0 0 0 1 .47 1.72 1.72 0 0 0 1.96-1.7zm5.88-249.69c-.21-1.14-.73-2.08-1.39-2.21a2.16 2.16 0 0 0 -2 1.39 12.65 12.65 0 0 0 -.82 2.08 2.86 2.86 0 0 0 .69 3.09c.61.55 1.42.59 1.76-.08.69-1.38 1.2-2.85 1.77-4.27zm98.87-133.74v.09c-.62 0-1.24-.05-1.86 0a5 5 0 0 0 -3.65 2 1.16 1.16 0 0 0 -.28 1c.11.23.62.38.93.36a19.09 19.09 0 0 0 7.28-2 .88.88 0 0 0 .43-.7.91.91 0 0 0 -.62-.57c-.74-.16-1.52-.14-2.23-.18zm-9.86 41.67c1.23-.35 2.36-.69 3.49-1a2.28 2.28 0 0 0 1.62-1.64c.28-.81.49-1.54-.27-2.2a1.5 1.5 0 0 0 -2 .16 45.8 45.8 0 0 0 -3.41 3.13 1.11 1.11 0 0 0 -.2 1c.06.25.5.38.77.55zm-6.25 312.34c-.45-.78-.9-1.66-1.44-2.47-.38-.55-.77-.39-.82.24s-.09.94-.82.61c-.11-.05-.5.32-.64.57-.46.8-.89 1.62-1.27 2.46a2.52 2.52 0 0 0 1 2.57 1 1 0 0 0 .83-.16c.9-.85 1.78-1.73 2.62-2.65a4.89 4.89 0 0 0 .54-1.17zm-43.49-257.85a2.29 2.29 0 0 0 1.92-3.42 5.4 5.4 0 0 0 -4-2.15.85.85 0 0 0 -.78 1.4 1.67 1.67 0 0 0 1 .75c.58.07 1.17-.29.41.71a1.78 1.78 0 0 0 1.45 2.71zm14.79 120c-1-.11-1.61.49-1.24 1.37a6.68 6.68 0 0 0 1.34 2c.79.84 1.49.62 1.61-.53a2.48 2.48 0 0 1 1.12-2.16 1.52 1.52 0 0 0 .18-1.35 6 6 0 0 0 -1.09-1.69c-.43-.52-.94-1.08-1.73-.68-.48.23-.56 1.29-.21 2.06a4.29 4.29 0 0 0 .33.45l.31.45zm-61.73-69c-.17.14-.59.44-1 .78a12.12 12.12 0 0 1 -1.18 1.1c-.84.52-1.11 1.11-.72 1.88s1.83 1.71 2.42 1.5c1.76-.64 2-2.26 2.28-3.73.27-1.16-.25-1.61-1.8-1.53zm56.91-55.43a2.14 2.14 0 0 0 -.65.58c-.31.57-.45 1.38.11 1.71.87.52 1.15.91.54 1.85-.35.53.48 2.24 1.1 2.58.81.45 1.22-.32 1.78-.64a1.13 1.13 0 0 0 .41-1.74l-1.08-2a4.43 4.43 0 0 1 -.4-.78c-.11-.38 0-1-.22-1.14a4.8 4.8 0 0 0 -1.59-.45zm-46.73 36.09c-.41-1.26-.79-2.6-1.32-3.9a.54.54 0 0 0 -1 0 32.62 32.62 0 0 0 -1.07 3.35c0 .12.29.45.49.5 1 .28 1.06.3.32 1.13a1.64 1.64 0 0 0 -.36 1.88c.2.45.58.7 1 .33a4.21 4.21 0 0 0 1.94-3.32zm25.07 214.16c0 1.56 1 2.25 2.44 1.65a13.44 13.44 0 0 0 1.82-.91 1.21 1.21 0 0 0 .48-1.62 2.17 2.17 0 0 0 -2.37-1.66 3.18 3.18 0 0 0 -2.37 2.54zm104.52-162c-.16-.72-.32-1.51-.52-2.3a2.35 2.35 0 0 0 -.35-.61c-.25.15-.6.23-.73.45-1.19 1.93-1.08 4.19-1.47 6.32a1.2 1.2 0 0 0 .61 1c.27.08.81-.26 1-.56 1.02-1.21 1.16-2.73 1.49-4.29zm-148.52-33.95a2.24 2.24 0 0 0 .8-.52c.81-1.09 1.6-2.2 2.3-3.37a2.2 2.2 0 0 0 .23-1.41c-.14-.84-.86-1-1.47-.39s-1.25 1.2-1.82 1.84a9.12 9.12 0 0 0 -1.22 1.63 1.67 1.67 0 0 0 1.18 2.22zm-7.85-119a6.88 6.88 0 0 0 -.45-1.41 1.44 1.44 0 0 0 -.87-.54c-.09 0-.45.44-.45.69a2.14 2.14 0 0 1 -1 2 .61.61 0 0 0 -.08 1.09c1.28.85 2.56 1.69 3.91 2.41.57.3 1-.18.77-.74a7.75 7.75 0 0 0 -1.35-2c-.38-.37-.9-.61-.45-1.48zm-20.36 152.8a6.23 6.23 0 0 0 .4 1.35 14.73 14.73 0 0 0 1.18 1.55l1-1.27a8 8 0 0 0 .67-.89 1.92 1.92 0 0 0 -.54-2.59.92.92 0 0 1 -.25-.64c0-.3.19-.6.16-.88a.79.79 0 0 0 -.45-.51c-.14 0-.51.22-.51.34 0 .84-.57 1.3-1 1.9a6 6 0 0 0 -.63 1.66zm87 34.29a5.21 5.21 0 0 0 .51 1.4c.33.4.82.93 1.26.95.69 0 .94-.66 1.07-1.3a3.13 3.13 0 0 1 .28-1c1-1.6 1-1.59-.24-2.87-.41-.44-.78-1.15-1.49-.74s-.27 1.09 0 1.64.36.89-.41 1.1c-.36.08-.62.55-.93.86zm-26.54-111.06 4.28-.77a.57.57 0 0 0 .4-.33c0-.11-.15-.32-.28-.42-.67-.45-1.36-.87-2-1.31-1.51-1-2-.92-3.2.35-.46.48-.87 1.05-.46 1.63.27.43.9.62 1.26.85zm39.41 105.47a6 6 0 0 0 -.78-1.54 23.54 23.54 0 0 0 -2.33-2.13 3.38 3.38 0 0 0 -1-.41 3.11 3.11 0 0 0 -.32 1.18c.19 1.58 1.37 2.6 2.33 3.72a1.45 1.45 0 0 0 1.27.37c.38-.14.55-.74.83-1.19zm-59.21 150.63c.28.47.61 1.12 1 1.7.29.39.7.26.89-.14.51-1.12 1-2.24 1.45-3.41a1.27 1.27 0 0 0 -.76-1.69 1.42 1.42 0 0 0 -1.85.79 27.22 27.22 0 0 0 -.73 2.75zm37.21-261.61c-.39.19-.71.23-.81.41a5.33 5.33 0 0 1 -2.66 2.06 1.61 1.61 0 0 0 -.54 1.27c0 .21.64.44 1 .6a1.31 1.31 0 0 0 1.79-.49 3.22 3.22 0 0 1 .94-.72 8.89 8.89 0 0 0 1-.55c.57-.52.39-1.15.08-1.71a5 5 0 0 0 -.8-.88zm21.82-47.66c-.18.31-.45.56-.42.77a3.06 3.06 0 0 0 .47 1.19c.84 1.24 1.72 2.45 2.6 3.67.34.47.74.94 1.38.44a1 1 0 0 0 .19-1.49c-1-1.32-2.1-2.62-3.18-3.9a5.06 5.06 0 0 0 -1.04-.69zm33.16 312.5c-.09-.21-.19-.5-.33-.77-.38-.76-.45-.74-1 0-.14.18-.43.24-.65.37a3.83 3.83 0 0 0 -1.17.74 9 9 0 0 0 -.94 1.83 1.35 1.35 0 0 0 .49 1.82c.76.45 1.24-.17 1.73-.67.85-.86.41-2.48 1.8-3 .03-.07.03-.17.07-.33zm-55.75-299.17a5.42 5.42 0 0 0 -.25-1.32c-.18-.36-.49-.84-.8-.89s-.78.33-1 .65a9.69 9.69 0 0 0 -.7 1.69 11.88 11.88 0 0 0 -.65 1.68 2.93 2.93 0 0 0 0 1.35c.05.18.49.25.75.37a4.75 4.75 0 0 1 .23-.63c.1-.2.3-.57.36-.56.8.27 1.17-.19 1.43-.82s.48-1.12.63-1.52zm74.57 319.24c.14-1 .27-1.72-.54-1.87-.15 0-.71.84-.7 1.3a28.39 28.39 0 0 0 .43 4.41c.1.53.68 1 1.14 1.41s1-.1.84-.53c-.59-1.3.22-2.93-1-4.08-.22-.19-.17-.66-.17-.64zm-113.41-240.17a26.18 26.18 0 0 0 .59 2.7c.11.33.6.53.91.79a5.4 5.4 0 0 0 .5-1c.15-.53.15-1.12.33-1.63.49-1.37-.19-2.41-.9-3.44a.53.53 0 0 0 -1 .15 19.44 19.44 0 0 0 -.43 2.43zm-.34 20.31c1.22 0 1.84-.51 1.46-1.28a14.54 14.54 0 0 0 -1.75-2.59 1 1 0 0 0 -1-.1c-.65.33-1 1.87-.73 2.7a1.73 1.73 0 0 0 2.02 1.27zm59.6-111.2c-.19.23-.44.4-.47.6a1.22 1.22 0 0 0 .15.87c1.44 1.61 2.91 3.18 4.4 4.74a1 1 0 0 0 .59-.39.82.82 0 0 0 -.13-.7q-1.82-2.34-3.71-4.64a2.71 2.71 0 0 0 -.83-.48zm20.81 299.76c0 1 .1 1.23 1.25 2.47.32.35.53.9 1.17.57a1.41 1.41 0 0 0 .92-1.64 9.32 9.32 0 0 0 -1-2.36c-.48-.82-1.17-.82-1.79-.06a4.78 4.78 0 0 0 -.55 1.02zm-71.72-4.54c-.13.1-.5.23-.59.47a12 12 0 0 0 -.82 2.78c-.05.42.42 1 .79 1.36a.63.63 0 0 0 1.08-.18 18.6 18.6 0 0 0 1.18-2.31 1.79 1.79 0 0 0 -1.64-2.14zm30.36-254.15c.16.68.25 1.29.44 1.87.31.93 1 1.38 1.59 1.16a1.83 1.83 0 0 0 1.09-1.94 11 11 0 0 0 -1.15-2.3.91.91 0 0 0 -1.55.07 5.4 5.4 0 0 0 -.42 1.12zm-35.14 37.33a3.42 3.42 0 0 0 -.16-1c-.26-.44-.56-1-1-1.17s-1.85.81-1.76 1.36a5 5 0 0 1 -.11 3.36c0 .08.16.36.29.41a.56.56 0 0 0 .49-.13 3.39 3.39 0 0 1 1.88-1.89c.26-.18.28-.71.37-.96zm45.38 207.49a10.7 10.7 0 0 0 -.68-1.41c-.39-.59-.89-.65-1.31 0-.52.84-1.08 1.67-1.53 2.55a.8.8 0 0 0 .49 1.21c1.03.37 3.03-1 3.03-2.35zm36.9-249.43c-1.24 0-1.92.86-1.47 1.63a36.39 36.39 0 0 0 2.39 3.3c.09.12.41.23.48.17s.37-.39.33-.56a37.61 37.61 0 0 0 -.91-3.77c-.13-.37-.66-.62-.83-.77zm-56.12 259.58a1.78 1.78 0 0 0 .39-.45c.21-.44.35-.92.55-1.37.42-1 .9-1.9 1.29-2.87a1.14 1.14 0 0 0 -.17-.84c-.05-.08-.48-.05-.66.06a7.08 7.08 0 0 0 -2.63 3.7c-.23.55.61 1.69 1.23 1.77zm77.08-348.71a12.81 12.81 0 0 0 2.08-1 1.07 1.07 0 0 0 .25-1.5 1.13 1.13 0 0 0 -1.42-.56 5.84 5.84 0 0 0 -1.76.94 5.73 5.73 0 0 0 -.92 1.47zm33.82 184.88a8.77 8.77 0 0 0 -.28-1.47c-.09-.24-.38-.41-.58-.61-.16.18-.43.33-.47.53-.35 1.45-.69 2.9-1 4.37a1.87 1.87 0 0 0 .28 1.05.81.81 0 0 0 .59.38.71.71 0 0 0 .5-.44c.39-1.26.69-2.65.96-3.81zm-3.84-11.87a4.7 4.7 0 0 0 0 .74 3 3 0 0 0 .2.65c.16-.16.42-.3.48-.5a27.6 27.6 0 0 0 1.19-3.92 7.89 7.89 0 0 0 -.26-2.57.72.72 0 0 0 -.52-.4c-.19 0-.4.25-.53.43a1 1 0 0 0 -.15.53c-.13 1.62-.25 3.23-.41 5.04zm-78.32 29.9c-.12.2-.42.46-.42.72 0 .7 2.67 3.91 3.3 4.09a.88.88 0 0 0 1.09-.9c-.02-.64-3.11-3.8-3.97-3.91zm-18-104.32c.29.46.47 1.07.87 1.29s.9-.09 1.34-.23a1.79 1.79 0 0 0 .57-.47 1.48 1.48 0 0 0 -.07-2.48c-.67-.59-1.31-.47-2 .47a9.4 9.4 0 0 0 -.67 1.42zm17.18 122.27a3.08 3.08 0 0 0 1.45 2.79 1.25 1.25 0 0 0 1.14 0 1.51 1.51 0 0 0 .5-1.23 6.72 6.72 0 0 0 -1.25-2 1.51 1.51 0 0 0 -1.25-.47c-.29.13-.5.75-.59.91zm-19.7 118.09a3.18 3.18 0 0 0 2.91-1.92 1.14 1.14 0 0 0 -.37-1c-1-.49-3.23.67-3.5 1.77a.89.89 0 0 0 .96 1.15zm-17.84 11.17a2.72 2.72 0 0 0 .19.69c.14.25.37.59.59.61a1 1 0 0 0 .71-.45 13.84 13.84 0 0 0 1.24-2.26c.15-.38-.06-.89-.1-1.34a4.23 4.23 0 0 0 -1.36.18c-1.04.52-1.07 1.59-1.3 2.57zm26.79-133.36a3 3 0 0 0 -2-2.68 1 1 0 0 0 -.72.41c-.61.87-.4 1.53.87 2.67.32.3.91.63 1.23.52s.46-.73.59-.92zm65.45-193.86a3.05 3.05 0 0 0 -1-.53 2.89 2.89 0 0 0 -2.52 2.33 1.11 1.11 0 0 0 .56.82c.87.29 2.9-1.35 2.96-2.62zm-107.29 331.86-.21.13a9.92 9.92 0 0 0 1 1.64 1 1 0 0 0 .94-.11 7 7 0 0 0 .78-2 1.22 1.22 0 0 0 -.47-.95 1.47 1.47 0 0 0 -1.14-.34c-.32.09-.58.54-.78.88-.16.21-.1.5-.12.75zm76.19-286.28c0-.26 0-.4-.09-.49-.88-1.28-1.75-2.58-2.7-3.81-.16-.21-.65-.17-1-.24 0 .33-.12.76 0 1 .76 1.14 1.59 2.24 2.43 3.32a1.44 1.44 0 0 0 .77.47c.2.03.43-.17.59-.25zm4.27 283c-.43-.73-.89-1.6-1.45-2.39a1 1 0 0 0 -.91-.33 1 1 0 0 0 -.42.89 20.58 20.58 0 0 0 1.4 3c.26.47.76.38 1.05-.09a5.38 5.38 0 0 0 .33-1.08zm-39.52-16.26a3.2 3.2 0 0 0 -.49-.71 1.32 1.32 0 0 0 -1.79.43c-.42.51-.69 1.09-.06 1.62.38.31.92.51.53 1.14-.26.42-.43.88.22 1 .23 0 .79-.58.74-.8a2.31 2.31 0 0 1 .49-1.7c.14-.32.22-.62.36-.98zm-45.91-199.91c-.32-.45-.58-.85-.89-1.22-.05-.06-.38 0-.47.11a5.27 5.27 0 0 0 -1.46 3.17 1.14 1.14 0 0 0 .4.77.67.67 0 0 0 .65-.1c.63-.86 1.15-1.76 1.77-2.73zm18.59 223.3c.4-.8.93-1.35.83-1.72-.36-1.26.35-2.15.8-3.15.13-.28.38-.58.35-.84a3.6 3.6 0 0 0 -.5-1.05 5 5 0 0 0 -1 .57 1.06 1.06 0 0 0 -.21.7c-.07 1.53.16 3.11-.65 4.55-.07.11.14.37.38.94zm-22.82-202.44c-1.12-.14-1.53.25-1.25.89a12.47 12.47 0 0 0 1.3 2.23c.1.15.77.13.87 0a2.05 2.05 0 0 0 .36-2.26c-.31-.49-1.03-.71-1.28-.86zm145.73 30.4c-.11.12-.28.23-.35.38a17.88 17.88 0 0 0 -.63 1.73c-.2.67-.81 1.54.08 2s1.16-.62 1.56-1.16a2.13 2.13 0 0 0 -.3-2.81c-.08-.09-.21-.09-.36-.14zm-97.7 153.86a6.61 6.61 0 0 0 -1.33-1.45c-.39-.25-1.53 1.71-1.44 2.52s.59.73 1.1.68a1.83 1.83 0 0 0 1.67-1.75zm16.74-139.15c.86.19 1.53.18 1.76-.69.13-.49-1.82-2.14-2.36-2-.11 0-.27.11-.29.2a7 7 0 0 0 -.32 2.27c.12.8.87.23 1.21.24zm50.69-173.82c-.32-.06-.55-.18-.68-.12-.29.16-.75.4-.76.61 0 .65-.07 1.51.3 1.9s.49-.42.78-.61.6 0 .89.06a.89.89 0 0 0 1.28-.65c.18-.68-.17-1.06-.85-1.12-.33-.02-.74-.03-.96-.05zm-129.6 127.74c1.11 0 2.29-2.07 1.76-3.13-.09-.16-.63-.31-.7-.23a15.84 15.84 0 0 0 -1.83 2.29c-.34.62.07 1.08.77 1.07zm34.41 200.85c-.19-.27-.42-.58-.64-.9-.24.26-.6.48-.7.79a22.81 22.81 0 0 0 -.71 2.7 2.29 2.29 0 0 0 .09 1.1c.05.17.34.32.55.37s.36-.17.4-.3c.34-1.2.65-2.38 1.01-3.76zm64.26-6.42c-.58-.69-1-1.27-1.5-1.78s-1.29-.33-1.3.41a4.82 4.82 0 0 0 .45 1.93c.15.33.76.79.9.72a8.74 8.74 0 0 0 1.45-1.28zm-32.22-136.39a4.41 4.41 0 0 0 -1.55-2.27 3.06 3.06 0 0 0 -.95-.34c-.09.38-.38.86-.25 1.14a10.28 10.28 0 0 0 1.32 2c.16.2.59.42.75.34s.46-.55.68-.87zm-54.37 177.44c-.11-.32-.11-.5-.19-.54-1.22-.67-2.45-1.33-3.68-2-.09.23-.31.62-.26.66 1.06.83 2.13 1.65 3.25 2.39.14.09.61-.34.88-.51zm118.21-371c0-.94-1.4-1.49-2.17-1.17s-1.34 1.24-1 1.54a2.19 2.19 0 0 0 1.56.64 5.07 5.07 0 0 0 1.61-1zm-96.17 333.5a2.9 2.9 0 0 0 .07.72 1.13 1.13 0 0 0 .45.49c.09 0 .4-.12.45-.24.47-1.22.92-2.44 1.35-3.68a.53.53 0 0 0 -.2-.47.58.58 0 0 0 -.52.09 4.54 4.54 0 0 0 -1.6 3.1zm118.29-187c.05.72.07 1.22.15 1.7a.91.91 0 0 0 .54.08c.63-1.35 1.3-2.71.76-4.27a.78.78 0 0 0 -.49-.47.69.69 0 0 0 -.5.44c-.2.95-.34 1.87-.46 2.57zm-60.33-98.46c-.45-1-.83-2-1.33-2.89-.31-.56-.82-.5-1.2 0s-.69 1-.19 1.5a20.35 20.35 0 0 0 2.37 1.7 4.14 4.14 0 0 0 .35-.26zm-23.4 151.48a8.92 8.92 0 0 0 -1.29-1.31c-.29-.21-1-.33-1.11-.21a2.84 2.84 0 0 0 -.38 1.48c0 .3.36.65.65.85s.84.52 1.11.41.57-.63 1.02-1.17zm-62.64-71.38a2.12 2.12 0 0 0 -.36.1 3.57 3.57 0 0 0 -1.44 3 .67.67 0 0 0 .52.26 14.82 14.82 0 0 0 2-2.14.87.87 0 0 0 -.72-1.17zm4.61-10.82c.3.5.43 1 .73 1.13s.71-.13.93-.36a4.67 4.67 0 0 0 1-1.5 1.31 1.31 0 0 0 -.43-1.06 1 1 0 0 0 -.94 0 14.46 14.46 0 0 0 -1.29 1.84zm56.13-178a1.22 1.22 0 0 0 -1.05-1.27c-.91-.08-2 .42-2 1s.8 1.28 1.34 1.34c.76.04 1.68-.51 1.71-1.07zm27.19 388.92c.06-1.22-.76-2.58-1.32-2.47-.71.13-.95.71-1 1.36-.09.91.65 1.85 1.46 1.72.36-.1.68-.48.86-.61zm-20.41-139.42c0-.94-2.13-2.92-2.86-2.81a.57.57 0 0 0 -.25.39c.64 1 1.3 1.94 2 2.88a.68.68 0 0 0 .65.14 1.94 1.94 0 0 0 .46-.6zm65.86-172.65c0-.1-.07-.26-.13-.27a.67.67 0 0 0 -.36.06c-1.95.62-2.83 2.43-4.18 3.73-.06.06 0 .32 0 .33s.39.11.49 0c1.08-.83 2.18-1.65 3.21-2.55a7.92 7.92 0 0 0 .97-1.3zm-138.88-16.69c0-1.47-.31-2-1.08-2s-1.63.45-1.57 1c.07.68 1.28 1.84 2 1.72.34-.07.55-.6.65-.72zm128.27 365.21a3.15 3.15 0 0 0 -1.4-2.85c-.14-.08-.45.12-.68.19.42 1.22.83 2.46 1.28 3.68a.51.51 0 0 0 .47.15c.13 0 .24-.24.29-.4a4.51 4.51 0 0 0 .04-.77zm.76-5.67h-.17a15.94 15.94 0 0 0 .57 1.9c.09.21.48.36.75.41.11 0 .3-.32.41-.52.68-1.2-.22-2-.79-2.81-.11-.16-.41-.2-.62-.29a3.1 3.1 0 0 0 -.15.52c-.02.29 0 .52 0 .79zm-96.85-343.64c-.14.12-.79.4-.81.72-.06.82 1.06 2.15 1.35 1.89a3.3 3.3 0 0 0 1-1.61c.15-.79-.47-1.02-1.54-1zm-35-10.57c-.24-.2-.57-.68-1-.84s-1.12.61-1.12 1.43c0 .58.07 1.17.78 1.31.45.09 1.31-.96 1.34-1.9zm76.08 39.88c-.1.16-.36.39-.35.6a2.58 2.58 0 0 0 1.86 1.9.68.68 0 0 0 .76-.81 3.45 3.45 0 0 0 -2.27-1.69zm-1.64 147a4.43 4.43 0 0 0 -2.08-2.63c-.15 0-.59.57-.55.63a29.66 29.66 0 0 0 2 2.36c.01.01.45-.3.63-.4zm-9.14 8.73a.79.79 0 0 0 .68-1.2 6.91 6.91 0 0 0 -1.67-1.47c-.07 0-.63.34-.68.58-.12.64 1.06 1.99 1.67 2.05zm22-241.88a7.11 7.11 0 0 0 -.63-1.08c-.54-.66-1.14-1.27-1.7-1.91-.25-.28-.44-.6-.68-.89-.07-.08-.22-.09-.33-.13 0 .17-.17.4-.1.5.82 1.32 1.67 2.62 2.53 3.91.09.13.38.28.45.23a2.22 2.22 0 0 0 .51-.67zm75.21 205.33-.2.09c.36.88.69 1.78 1.11 2.63.1.19.52.22.79.32.09-.28.34-.63.25-.82-.47-1-1-2-1.57-3-.11.07-.27.12-.31.23a1.9 1.9 0 0 0 -.02.51zm-64.74-109.49c-.07-.37-.05-.59-.15-.72-.6-.78-1.22-1.55-1.86-2.29a.44.44 0 0 0 -.47 0 .5.5 0 0 0 -.16.47c.58.93 1.17 1.86 1.82 2.74.06.09.56-.13.82-.2zm-21.26-91.71c.11-.85-1.66-2.88-2.34-2.76-.18 0-.46.59-.41.65.69.78 1.42 1.52 2.18 2.23.08.08.39-.04.57-.12zm-41.95 133.74c-.19-.23-.45-.78-.88-1s-1.75 1.06-1.52 1.53a1.65 1.65 0 0 0 1.11.7c.77.11 1.29-.34 1.29-1.23zm43.95-194.49c-.64-.85-1.33-1.8-2.07-2.71a.72.72 0 0 0 -.67 0c-.14.1-.24.53-.15.63.77.89 1.59 1.74 2.41 2.59 0 .06.25 0 .31 0s.11-.23.17-.51zm20 157.48a5.89 5.89 0 0 0 -1-1.05 1.79 1.79 0 0 0 -1.3-.21c-.43.16-.28 1.23.31 1.57a3.4 3.4 0 0 0 1.55.27c.12.01.27-.31.51-.58zm-94.88 310.48c.11-.07.18-.09.21-.13.68-1.09 1.37-2.17 2-3.28.08-.12-.1-.4-.16-.6-.16.06-.42.07-.48.19-.61 1.12-1.19 2.26-1.75 3.4-.02.09.12.29.18.42zm71.75-326.66a15.75 15.75 0 0 0 -1-1.69 3.88 3.88 0 0 0 -1-.74 14.4 14.4 0 0 0 -.8 1.37c0 .11.28.54.31.53 1-.4 1.47.33 2 .86.08.07.21.06.32.09zm1.84-81.92c.71 0 1-.7.65-1.08a19.15 19.15 0 0 0 -2.15-1.65.46.46 0 0 0 -.31 0c0 .16-.09.37 0 .48.4.62.81 1.24 1.26 1.82a2.56 2.56 0 0 0 .55.43zm-2.45 95.34c.43.48.67 1 1 1.06.61.12 1-.33 1.12-1s-.46-1.62-.81-1.44a6.79 6.79 0 0 0 -1.31 1.38zm-8.18-4.16c-.37-.78-.76-1.69-1.24-2.55-.1-.18-.5-.19-.77-.28 0 .28-.23.64-.12.84a27.21 27.21 0 0 0 1.49 2.34c.07.11.3.13.46.13a2.51 2.51 0 0 0 .18-.48zm1.25-91.45c-.63-.61-1.22-1.19-1.84-1.75-.06-.06-.3.07-.46.11.15.57.29 1.14.46 1.7a1.25 1.25 0 0 0 .37.62 1.09 1.09 0 0 0 .8.18c.23-.14.34-.44.67-.86zm25.6 78.88c-.53-.54-.79-1-1.16-1.13s-1.21.44-1.3 1 .24 1.08.76 1a6.25 6.25 0 0 0 1.7-.87zm56.07 92.78a5.58 5.58 0 0 0 -2.45-2.65c-.09 0-.29 0-.31.09s-.09.39 0 .48c.67.8 1.35 1.58 2.06 2.34a.51.51 0 0 0 .47.13c.14-.06.23-.33.23-.39zm-85.94-94.28a7.06 7.06 0 0 0 -.85 1.45 1 1 0 0 0 .69 1.32c.51.15 1.26-.54 1.13-1.15a7.08 7.08 0 0 0 -.95-1.62zm-2.58 5.48c1-.1 1.74-1.42 1.33-2.14a1.08 1.08 0 0 0 -.72-.28 11.12 11.12 0 0 0 -1 1.85c-.09.13.3.43.41.57zm1.6 2.87c.44-.46 1-.77 1.12-1.22a2.29 2.29 0 0 0 -.2-1.33.88.88 0 0 0 -.62 0 14.09 14.09 0 0 0 -.85 1.91c-.02.08.29.3.57.63zm-27 295.88c-.41-.35-.67-.73-1-.81s-.58.36-.72.63a4.31 4.31 0 0 0 -.3 1.25 2.78 2.78 0 0 0 .09.69c.27-.06.63 0 .79-.19a17.55 17.55 0 0 0 1.19-1.57zm41.04-385.89c-.07.08-.2.15-.21.24a3.93 3.93 0 0 0 1.77 2.44c.16 0 .43 0 .49-.12s.21-.56.12-.65c-.63-.65-1.32-1.25-2-1.86a.69.69 0 0 0 -.17-.05zm.88 353.11c-.06-.87-.09-1.36-.15-1.86 0-.1-.17-.27-.21-.26s-.35.14-.4.26a7 7 0 0 0 -.32 1.27c-.08.65-.34 1.38.47 1.81zm-50.28-326.46c-.44-.39-.77-.89-1-.85a1.19 1.19 0 0 0 -1 1.33c0 .54.29 1.14.83.92s.72-.83 1.17-1.4zm46.05-21c-.23.11-.38.13-.44.21a.36.36 0 0 0 0 .32c.59.62 1.18 1.25 1.81 1.83.12.11.6.1.63 0 .11-.25.22-.71.09-.81-.66-.53-1.41-1.03-2.09-1.52zm27.57 95.59a20.09 20.09 0 0 0 -2.19-2.31c-.29-.23-.71.36-.46.7a12.82 12.82 0 0 0 1.66 1.72c.1.12.4-.01.99-.08zm-71.1 279.94c-.34-.45-.54-.95-.9-1.13s-1 .62-.92 1.31.71 1.29 1 1.06a4.21 4.21 0 0 0 .82-1.21zm54.49-378.46c-.17.25-.37.44-.33.51a12.8 12.8 0 0 0 1 1.63s.66-.15.69-.3a1.31 1.31 0 0 0 -.16-1 5.75 5.75 0 0 0 -1.2-.84zm-53 46.25c0-1-.61-1.58-1.17-1.43a.84.84 0 0 0 -.46.66c.07.6.17 1.33 1 1.38.23.01.52-.48.65-.58zm22.27 59.24a8.39 8.39 0 0 0 -.84.11s0 .23 0 .26a17.28 17.28 0 0 0 1.84 1.11c.13.06.61-.22.65-.4a.83.83 0 0 0 -.37-.71 6.65 6.65 0 0 0 -1.28-.37zm99.69 71.84a2.5 2.5 0 0 0 -1.4-1.85c-.09 0-.27 0-.3.12-.35.82.38 1.18.75 1.7a.9.9 0 0 0 .24.27c.15.08.36.2.47.15s.21-.29.27-.39zm-88.53-81.83c-.5-.55-1-1.13-1.55-1.7 0 0-.2 0-.31.07.22.61.43 1.22.66 1.82a.86.86 0 0 0 .35.42.54.54 0 0 0 .48 0c.21-.05.21-.26.4-.61zm-19.66 278.39c-.11-.44-.18-.68-.24-.92l-.15-.52c-.17.14-.41.25-.48.43a5.32 5.32 0 0 0 -.49 1.54c0 .48.36.66.74.33a4.43 4.43 0 0 0 .62-.86zm-37.83-209.7c-.58.77-1 1.25-1.31 1.78 0 .09.34.61.52.6.73 0 1-.58 1.14-1.22.04-.24-.14-.52-.35-1.16zm69.53-59.74c0-.94-.71-1.14-1.32-1.41-.11 0-.31.1-.47.16.22.47.43.94.66 1.4a.48.48 0 0 0 .27.24 1.34 1.34 0 0 0 .66 0c.12-.03.15-.29.2-.39zm57.32-51.59c.91-.3.89-.94.82-1.55a.68.68 0 0 0 -.42-.48c-.45-.07-1.13.8-1 1.31.08.28.42.51.6.72zm-53.45-56.58c0-.23 0-.37-.09-.45q-.73-.93-1.5-1.83a.33.33 0 0 0 -.32 0c-.08 0-.18.25-.14.3.47.74 1 1.48 1.48 2.19.04.01.39-.21.57-.21zm-13.07 90.35c-.07.1-.18.19-.2.29-.09.53 1 2.18 1.44 2.23.1 0 .33-.29.3-.34-.38-.7-.78-1.38-1.21-2.06-.06-.08-.24-.08-.33-.12zm-15.26 6.78c-.17.51-.28.67-.26.81a1.64 1.64 0 0 0 .25.69c.34.46.73.88 1.1 1.32.08-.08.26-.19.24-.24a12.67 12.67 0 0 0 -.59-1.48 9.6 9.6 0 0 0 -.76-1.1zm89.58 70c0-.13 0-.22 0-.25-.58-.64-1.17-1.28-1.76-1.91a.33.33 0 0 0 -.32 0 .37.37 0 0 0 -.08.32c.57.65 1.14 1.29 1.74 1.91.03.04.27-.07.4-.1zm-70.65-53.18c-.48-.53-.69-.92-1-1.09a1 1 0 0 0 -.92.14.63.63 0 0 0 .42 1 7.07 7.07 0 0 0 1.48-.08zm-30.88-42.38c-.5-.52-.85-.93-1.25-1.28-.15-.13-.42-.11-.64-.16 0 .27-.12.62 0 .8a3.88 3.88 0 0 0 1 1c.1.07.46-.21.87-.39zm98 350.75c.32-.71.6-1.06.57-1.38s-.42-.48-.65-.71c-.21.25-.59.5-.58.75s.28.62.64 1.31zm-67.55-332.74a2.57 2.57 0 0 0 -.11-.82 9.4 9.4 0 0 0 -.77-1 8.28 8.28 0 0 0 -.25 1.3c0 .2.22.42.37.6a5.79 5.79 0 0 0 .51.48zm8.3 9.19c-.28-.49-.51-1-.81-1.39 0 0-.6.1-.66.26-.19.47.5 1.48 1 1.5.11 0 .23-.14.47-.37zm-49.85-57.34-1.3-.78c-.12.24-.39.54-.32.7a3.71 3.71 0 0 0 .71.89zm43.15 205.71.74-.53-1.05-1.1c-.2.19-.6.5-.56.56a8.71 8.71 0 0 0 .87 1.07zm21.8-158.07c.14-.09.28-.14.32-.23a5 5 0 0 0 .36-1.05 3.92 3.92 0 0 0 0-.84c-.26.12-.68.18-.77.39a4.37 4.37 0 0 0 -.25 1.36c0 .12.23.3.34.37zm-5 274.81c-.11 0-.26.05-.31.13-.29.39.28 1.75.79 1.89a.38.38 0 0 0 .31-.14 1.78 1.78 0 0 0 -.79-1.88zm-35.74 1.32c.83-.12 1-.68 1.07-1.22 0-.14-.27-.33-.42-.49-.33.4-.69.78-1 1.21-.02.07.25.35.35.5zm81.4 55.58c.35-.58.61-.82.61-1.06 0-.55-.28-1-.89-1-.14 0-.4.37-.37.51a11.45 11.45 0 0 0 .65 1.55zm-47-339.18c-.22.17-.43.25-.49.39a1 1 0 0 0 .54 1.39.55.55 0 0 0 .48-.07 1.46 1.46 0 0 0 .08-.84 4.15 4.15 0 0 0 -.61-.87zm-18-73.77a11.64 11.64 0 0 0 -1.3-.83s-.47.43-.46.65c0 .65.55.76 1.05.76.16 0 .32-.26.67-.58zm20.7 77.66-.44-.42a13.08 13.08 0 0 0 -.84 1.12s.3.43.45.43c.57-.03.83-.4.83-1.13zm53.54 331.14.43-.38a9.61 9.61 0 0 0 -1.1-.83c-.06 0-.47.27-.47.43-.04.66.44.78 1.12.78zm-47.33-47.45c-.44.33-.59.39-.62.48a1.47 1.47 0 0 0 .77 1.5c.13 0 .45-.05.46-.12a1.73 1.73 0 0 0 -.05-.82 8.37 8.37 0 0 0 -.58-1.04zm-12.73-255.18c-.34-.37-.54-.78-.8-.82a1 1 0 0 0 -.81.49c-.15.52.25.8.75.77.24-.01.48-.23.86-.44zm16.2 246.3c0-.06 0-.16 0-.18l-2-1.17s-.09.08-.13.12c.48.42.95.85 1.44 1.25a1 1 0 0 0 .52.18c.01.01.09-.13.17-.2zm-7.44 6.19c-.29.44-.55.69-.5.78a9.55 9.55 0 0 0 .75 1.16c.18-.2.54-.47.5-.6a7.12 7.12 0 0 0 -.75-1.34zm46 47.93a7.58 7.58 0 0 0 -1.12-.67c-.09 0-.47.39-.44.42a3 3 0 0 0 .73.84c.09.05.43-.28.85-.59zm-66.75-412.8c-.23.39-.48.65-.43.74a6.63 6.63 0 0 0 .76.92c.17-.2.54-.49.49-.59a5.88 5.88 0 0 0 -.82-1.07zm-72.81 43.62c-.23.6-.46.92-.44 1.22s.35.43.54.64a2.55 2.55 0 0 0 .41-.87c.02-.23-.19-.47-.51-.99zm10.84 120.48c-.32-.15-.52-.31-.58-.26-.5.34-1.07.66-.93 1.4 0 .13.25.22.39.33zm71.2-63.32c-.4-.49-.72-.9-1.07-1.28a2.36 2.36 0 0 0 -.4.24c.27.45.54.9.84 1.33a5.26 5.26 0 0 0 .63-.29zm-5.53-103.26-1.49-1.14c-.13.17-.41.45-.37.5a4.24 4.24 0 0 0 .91 1c.11.02.43-.19.95-.36zm-.19 96a12.42 12.42 0 0 0 1 .86s.45-.37.42-.47a6.84 6.84 0 0 0 -.59-1.05zm-42.58 285.39-.41-1.06a6 6 0 0 0 -.72 1.18c0 .14.31.43.48.66zm65-24a13.87 13.87 0 0 0 -1.23-.88c-.12-.07-.34 0-.52.05.34.39.66.79 1 1.16.03.01.33-.15.72-.36zm-9.69-359.16a2.38 2.38 0 0 0 -.39.15c.11.49.23 1 .37 1.46 0 0 .28 0 .28-.07a4 4 0 0 0 .11-1c-.02-.22-.25-.38-.37-.54zm4 372.2-.9-1.11c-.15.16-.42.3-.43.47a.85.85 0 0 0 .77 1.06c.13.01.27-.19.57-.42zm35.61-316.92c.33-.5.59-.86.8-1.25 0 0-.22-.32-.35-.33-.65 0-.85.4-.86.94 0 .14.18.28.42.64zm-135 139.16-.17-.49c-.11.05-.29.08-.32.15-.24.65-.46 1.31-.68 2l.13.06c.39-.63.76-1.22 1.06-1.72zm138.5-41.71c0-.11 0-.26-.13-.34-.49-.46-1-.91-1.51-1.35a1.71 1.71 0 0 0 -.18.2c.4.46.82.92 1.24 1.37a.68.68 0 0 0 .29.22c.08.02.19-.06.29-.1zm6.16 11.59-1.2-.91s-.13.09-.13.09c.21.4.43.8.65 1.19a.28.28 0 0 0 .15.11c.11 0 .26.08.32 0s.1-.17.21-.48zm-69.73 83.31c-.21.28-.47.56-.43.62a1.74 1.74 0 0 0 .7.62c.11 0 .37-.31.56-.49zm17.94-247.13-.84-1.24c-.1.08-.32.19-.3.22a12 12 0 0 0 .5 1.3.33.33 0 0 0 .31.1c.12-.02.12-.16.33-.38zm21.38 84.95c-.38-.27-.6-.54-.82-.54s-.63.27-.64.43.3.69.42.68a3.56 3.56 0 0 0 1.04-.57zm-22.2 3.28c.35-.49.63-.74.69-1s-.33-.4-.51-.6c-.18.21-.46.4-.52.64s.15.46.34.96zm-23.2 153.31c-.19.36-.38.59-.33.65.26.35.58.66.88 1 .06-.17.2-.38.14-.5a10.18 10.18 0 0 0 -.69-1.15zm21.14-236c.18-.46.38-.72.32-.82a2.46 2.46 0 0 0 -.72-.68s-.46.36-.43.4a9.22 9.22 0 0 0 .83 1.13zm-20.61 105.85a4.07 4.07 0 0 0 -.53-.69 1.47 1.47 0 0 0 -.63-.25s-.17.26-.14.29c.31.31.63.6 1 .89a2.85 2.85 0 0 0 .3-.24zm10.34 1.09c-.12.2-.29.39-.26.44a4.86 4.86 0 0 0 .68.82c.09.08.31 0 .47 0 0-.16 0-.37 0-.47a9.76 9.76 0 0 0 -.89-.79zm69.35 304.94c-.4-.18-.67-.41-.9-.38s-.29.4-.43.61a2.39 2.39 0 0 0 .73.31c.19.01.32-.27.6-.54zm-95.17-43.78-.56-.51a4 4 0 0 0 -.58.78c0 .08.22.31.35.48zm21.35-14.7c-.29-.21-.48-.41-.53-.38-.31.21-.6.47-.89.71.11.13.29.38.33.36a11.5 11.5 0 0 0 1.09-.69zm-56.13 47.89.44.56c.26-.36.53-.71.76-1.08 0-.05-.08-.21-.13-.31zm-16.34-218.37.53-1.71c-.15 0-.4-.09-.44 0a4.42 4.42 0 0 0 -.49 1c-.03.03.13.2.4.71zm19.15-20.33a5.72 5.72 0 0 0 .44-1 1.09 1.09 0 0 0 -.5-.3 2.3 2.3 0 0 0 -.53.78c-.03.02.32.22.59.52zm-2.87-.9c-.3-.24-.54-.51-.62-.47a1.42 1.42 0 0 0 -.6.59c-.06.11.17.37.28.56zm95.36-54.75c.38-.33.66-.48.79-.71s-.12-.4-.2-.61a2.37 2.37 0 0 0 -.66.49c-.09.1.03.38.07.8zm-31.62 142.48c-.29-.23-.47-.47-.65-.48s-.34.25-.51.39a2.7 2.7 0 0 0 .56.56c.08.04.33-.25.6-.47zm5.86-152.91c.29.34.51.61.75.86a1.54 1.54 0 0 0 .35-.28 4.86 4.86 0 0 0 -.57-.85 2.41 2.41 0 0 0 -.53.27zm-67.22-68-.78-.63c-.08.16-.26.38-.22.45a6.5 6.5 0 0 0 .68.71zm35 335.06c.3-.29.6-.56.87-.85a4.44 4.44 0 0 0 -.29-.35c-.29.28-.59.56-.86.85a3.9 3.9 0 0 0 .33.37zm20.51-379.66a9.1 9.1 0 0 0 -.87-.72s-.23.17-.36.27a9 9 0 0 0 .69.69c.06.04.25-.12.54-.24zm-22.75 122.89-.35-.45a8.79 8.79 0 0 0 -.57.79s.22.22.34.33zm1.94 264.18a3.66 3.66 0 0 0 -.48-.39 2.82 2.82 0 0 0 -.51.63s.29.32.35.29a4.68 4.68 0 0 0 .64-.53zm22.11-256.06a5.48 5.48 0 0 0 -.69-.61s-.36.24-.34.32a4.25 4.25 0 0 0 .35.71zm22.21-31.58.75-1c-.16-.05-.38-.21-.46-.15a3.42 3.42 0 0 0 -.68.69 3.48 3.48 0 0 0 .39.46zm68 136.79a4.92 4.92 0 0 0 -1.25-.11c-.19 0-.34.27-.5.41.2.09.41.26.6.23a5.13 5.13 0 0 0 1.16-.53zm-133.3-197.66c-.48-.21-.69-.37-.87-.35s-.37.22-.56.34c.18.12.36.32.55.34s.38-.14.88-.33zm56.91 80.19a2.48 2.48 0 0 0 -.34.24c.16.3.34.59.52.88l.39-.26zm-2.12-98.55-.44-.58c-.14.14-.42.32-.4.43a2.09 2.09 0 0 0 .39.67zm-19.65 238.24a5 5 0 0 0 -.77-.46c-.05 0-.21.22-.31.34a4 4 0 0 0 .59.5s.24-.14.49-.38zm15.48-252.11-.84-.65c-.06.09-.2.23-.18.26.19.28.4.55.61.82zm-2.27 120.18a8 8 0 0 0 -.81-1c-.07-.06-.31.06-.46.09a3.74 3.74 0 0 0 .38.86c.04.13.38.05.89.05zm15.33-25.91a3.07 3.07 0 0 0 -.43-.36 4.58 4.58 0 0 0 -.66.73s.17.23.27.35zm-75.5 91.87a5.47 5.47 0 0 0 -.68-.55s-.34.26-.32.28a2.39 2.39 0 0 0 .47.58s.26-.1.53-.31zm86.42-63.79c-.28-.17-.5-.36-.55-.32a3.67 3.67 0 0 0 -.54.57c.13.11.31.34.36.31a4.77 4.77 0 0 0 .73-.56zm-37.77-103.24c0 .39-.14.65-.07.83s.32.23.49.34a2.4 2.4 0 0 0 .06-.7c-.02-.13-.22-.23-.48-.47zm15.1-1.8-.35.21c.28.31.56.61.85.91a1.73 1.73 0 0 0 .21-.17c-.23-.32-.48-.64-.71-.91zm-2.8 350.11-.54-.5c-.1.13-.29.27-.28.4a2.2 2.2 0 0 0 .22.62zm10.31-259.69c-.13.38-.28.59-.23.68a6 6 0 0 0 .6.75c0-.17.16-.36.11-.51a5.54 5.54 0 0 0 -.48-.92zm46.83-43.08-.47-.61c-.1.19-.31.41-.28.59a2.55 2.55 0 0 0 .42.72zm-53.29 24.14-.53-.8c-.09.12-.27.3-.24.35a7.5 7.5 0 0 0 .58.81zm-18.79 44.79c-.12.51-.25.75-.19.93s.31.26.47.38c.07-.17.21-.34.18-.49a3.72 3.72 0 0 0 -.46-.82zm8.62-134.45-.69-.82c-.06.1-.2.23-.18.29.14.33.31.64.47 1zm12.74 256.55c-.22-.1-.38-.25-.52-.23a.48.48 0 0 0 -.28.35c0 .12.17.25.27.37zm11.09-141.55c-.12.21-.3.4-.26.47s.29.26.44.39c.06-.16.18-.32.16-.46s-.19-.18-.34-.4zm-15-145.31.32.47c.12-.09.34-.17.35-.28a.52.52 0 0 0 -.22-.41c-.07-.04-.26.12-.45.22zm.68 34.3-.64-.44c0 .1-.15.25-.12.28a7.27 7.27 0 0 0 .56.55zm-61.11 168.46.28.46c.12-.09.31-.17.33-.28s-.12-.29-.19-.43zm66.48-154.62c-.16-.13-.29-.32-.41-.32s-.33.28-.3.33a2.15 2.15 0 0 0 .43.48zm-93.53 186.54-.43-.28c-.07.15-.21.31-.19.44s.21.21.32.31zm-5.13 1a8.75 8.75 0 0 0 .53-1 1.54 1.54 0 0 0 -.06-.51 4.65 4.65 0 0 0 -.49.7c-.07.14 0 .34.02.83zm30.36-181.7a2.7 2.7 0 0 0 -.62-.47c-.06 0-.33.22-.32.33a.58.58 0 0 0 .34.36c.12.04.29-.1.6-.22zm36.57 353.16a5.2 5.2 0 0 0 -.16 1.06c0 .11.21.21.32.31a2 2 0 0 0 .25-.62c.01-.14-.15-.3-.41-.75zm-2.17-351.22c.11-.14.29-.28.27-.36s-.26-.34-.31-.32a2.13 2.13 0 0 0 -.42.38zm26.32 91.39-.47-.3c0 .1-.16.22-.14.29a1.59 1.59 0 0 0 .27.37zm-18.48 255.54a3.68 3.68 0 0 0 .31-.47s-.17-.21-.22-.19a2.08 2.08 0 0 0 -.42.26zm15-267.41a2.19 2.19 0 0 0 -.29-.39s-.18.06-.27.09l.3.54zm-69.08 68.37a2.49 2.49 0 0 0 .4-.46c0-.08 0-.21-.07-.31-.13.06-.32.09-.38.2s0 .29.07.57zm154.74 51.83c-.17-.1-.36-.25-.41-.21a.54.54 0 0 0 -.23.39c0 .09.19.18.3.27zm-78.66-224.36c-.14.08-.31.16-.3.19a2.43 2.43 0 0 0 .19.47c.11-.08.31-.16.31-.23a1.29 1.29 0 0 0 -.2-.43zm-6.9 116.1c-.17-.17-.31-.35-.48-.49s-.2 0-.31.07c.17.21.33.43.5.63zm59.92 43.76a6.1 6.1 0 0 0 -.5-.51s-.18 0-.27.07a4.44 4.44 0 0 0 .4.54s.22-.05.37-.1zm54 56.19a1.56 1.56 0 0 0 -.46-.07c-.06 0-.1.18-.14.28a2.37 2.37 0 0 0 .46.11s.08-.12.14-.32zm-155.3-154.37c-.1-.05-.22-.15-.29-.12s-.1.19-.15.29c.1.05.23.15.3.12s.1-.19.14-.29zm39.44-58.7c0 .1-.14.22-.11.28s.18.1.27.14.14-.21.11-.28-.18-.09-.27-.14zm-56.75 166.45c-.1 0-.22-.13-.29-.1s-.09.18-.13.27.22.14.28.11.09-.18.14-.28zm44.4-59.75-.4-.33c0 .1-.12.22-.09.29a.45.45 0 0 0 .24.25s.14-.11.25-.21zm8.26-90.51c0 .09-.13.21-.1.28s.17.09.27.13.12-.21.1-.27-.18-.06-.27-.14zm-.36-12.35-.11-.31-.31.13.2.42zm59.76 63.16-.17-.36a1.45 1.45 0 0 0 -.19.45c0 .12.13.24.21.36zm-52.91-121.44a1.28 1.28 0 0 0 -.14.21s.07.12.1.12a1.28 1.28 0 0 0 .24-.11zm9.37 52.16a1.28 1.28 0 0 0 -.11.24s.09.11.11.1a1 1 0 0 0 .21-.14zm41 419 .13-.09a2.41 2.41 0 0 0 -.21-.24s-.09 0-.13.08zm-30.73-404.2-.08.38a.9.9 0 0 0 .23 0s0-.11 0-.16a1.36 1.36 0 0 0 -.15-.22zm-25.6 7.8a1.12 1.12 0 0 0 -.28-.16s-.11 0-.16.06.09.22.12.22a1.39 1.39 0 0 0 .32-.12zm3.56 5.11-.31.13a1.07 1.07 0 0 0 .27.16s.1 0 .16-.06zm-27.11 36.84c0-.09.15-.19.15-.28s-.1-.19-.16-.28c-.06.09-.16.19-.16.28s.11.19.17.28zm29.22 33.72-.28-.15v.29s.12.08.13.07a1.66 1.66 0 0 0 .15-.21zm17 4.38.23.22s.1-.12.09-.13a2.28 2.28 0 0 0 -.22-.22zm-5.26 260.9-.26-.13a.76.76 0 0 0 0 .26s.11.09.12.08.09-.1.14-.21zm-32.24-256.75-.29-.19a1.53 1.53 0 0 0 -.07.29s.12.1.14.09a1.3 1.3 0 0 0 .22-.19zm7.64 4a1 1 0 0 0 -.14.22s.08.14.11.13a1.74 1.74 0 0 0 .25-.11zm3.35 4.15-.19-.26c-.06.09-.17.18-.17.27s.12.17.18.26zm19.32 1.26v.16l.26-.14s0-.09 0-.14zm-21.1 134.13-.25-.13s-.08.1-.07.12a1.92 1.92 0 0 0 .18.22zm.83-242.84.08-.14h-.12zm-84.34 202.21-.1-.14-.13.12.18.17zm91.79-196.11h-.23s.07.08.11.09.08-.07.12-.09zm-61 17.46-.06-.13s-.09.07-.09.11 0 .09.06.14zm-6.11 149.32a.55.55 0 0 0 -.05.17s.08 0 .12.05a.58.58 0 0 0 .05-.16s-.12-.04-.16-.06zm122.06-27.6a.5.5 0 0 0 0-.13h-.1s0 .09 0 .13.02-.01.06 0zm-94.22-90.48a.37.37 0 0 0 0-.14s-.07 0-.11-.05a.83.83 0 0 0 0 .15zm13.2 26 .13.08v-.11zm37.9 3.94-.08-.12s-.11.09-.1.1a.65.65 0 0 0 .13.16zm-7.25 276.61a.93.93 0 0 0 0 .13s.06 0 .1.05a.79.79 0 0 0 0-.13s-.07-.04-.14-.06zm10.28-271.68-.08-.15s-.1.08-.1.13 0 .1.07.15zm-32.73 23a.83.83 0 0 0 0-.15h-.11a.37.37 0 0 0 0 .14s.03-.06.07-.04zm48-11.27.08-.14h-.12zm-38.53 4.13v-.15l-.09.19zm16.01 4.09.08-.14h-.13z"/><path d="m310.87 290c.83-.25 1.43 1.13 2.21.44a5.54 5.54 0 0 0 1.15-1.89c.35-.79.55-1.64.9-2.43.13-.29.51-.47.77-.71 0 .36.19.76.07 1.05-.43 1.09-1 2.14-1.45 3.21a2.51 2.51 0 0 0 -.26.89 2.27 2.27 0 0 1 -1 2 5.32 5.32 0 0 0 -1.22 2.28 1.83 1.83 0 0 0 .56 2c2 2 2.88 1.85 4.25-.51a8.91 8.91 0 0 0 .67-2.65c.17-.68 1.32-1.06 1.8-1.74a16.29 16.29 0 0 0 1-2.38c.29-.59.79-1.09 1.05-1.7q1-2.31 1.77-4.68a2.67 2.67 0 0 0 .08-1.48c-.43-1.67.42-3.12.68-4.68 0-.18.22-.33.35-.49a5 5 0 0 1 .07.54v2.25c0 .25.29.49.44.74a5 5 0 0 0 .59-.38c.13-.13.18-.34.31-.46s.28-.08.43-.12c0 .12.06.27 0 .35a3.41 3.41 0 0 0 -.29 3l.05-.05a1.67 1.67 0 0 0 -1.79 1.32c-.67 1.92-1.78 3.68-2 5.77a1.43 1.43 0 0 1 -.56.89 3.76 3.76 0 0 0 -1.55 2.27c-.33 1.72-1.8 2.74-2.47 4.25-.44 1-1 1.9-.31 3 .05.09-.15.48-.21.47-1.32-.15-1.73.74-2 1.75a.87.87 0 0 1 -.14.34c-.31.28-.64.53-.95.8 0-.4 0-.8.05-1.19a1.65 1.65 0 0 1 .11-.36c.74-2.3.14-3.47-2.2-4.08a1.18 1.18 0 0 0 -1 .43 17.57 17.57 0 0 0 -1.06 2.38c-.19.45-.34.93-.53 1.39a.47.47 0 0 1 -.29.17c-.11-.11-.28-.26-.27-.39a5.47 5.47 0 0 1 .28-1.46c.8-1.89 1.64-3.76 2.48-5.63.23-.52.53-1 .75-1.51a1.56 1.56 0 0 0 -.58-2.26c-.29-.17-.44-.58-.65-.88z"/><path d="m302.25 277.91a2.39 2.39 0 0 0 -1.6 1.41c-.91 1.62-1 3.44-1.54 5.16a8.92 8.92 0 0 1 -.72 1.41 4.64 4.64 0 0 1 -.22-1.66 31.58 31.58 0 0 1 1.18-3.34c.11-.28.34-.52.46-.81.81-1.93.67-2.48-1-3.8-.24-.2-.54-.32-.76-.53s-.12-.33-.17-.49c.16-.05.38-.18.48-.12a8 8 0 0 1 1.5 1.07c.58.58 1 .66 1.45-.11s1-1.69 1.53-2.54a.86.86 0 0 0 .12-.35c.32-1.55.32-1.55 1.54-2h-.05a5.1 5.1 0 0 0 .26 1.43c.25.53.39.8-.38.66-.06 0-.16 0-.17 0-.65 1.54-2.49 2.57-2 4.61z"/><path d="m310.91 289.9a3.63 3.63 0 0 1 -1 0c-1.18-.34-1.55-.23-2 .89s-.77 2.24-1.18 3.35a4.3 4.3 0 0 1 -.45.74 2.83 2.83 0 0 1 -.13-1 18.58 18.58 0 0 1 .88-2.64c.81-1.9.75-2.25-.84-3.64a6 6 0 0 1 -.66-.67 1 1 0 0 1 -.12-.34c.15 0 .34-.16.45-.1a6 6 0 0 1 1.29.71c.68.55 1.17.38 1.48-.33.55-1.24 1-2.53 1.56-3.76.44-.95 1-1.84 1.5-2.74a1.65 1.65 0 0 1 .34-.36 1.69 1.69 0 0 1 0 .5c-.57 1.48-.61 3.16-1.69 4.44a1.73 1.73 0 0 0 -.25.51c-.73 2.14-1.69 2.39.81 4.45z"/><path d="m183.76 294.46c-.62.41-.84.67-1.09.69a3.69 3.69 0 0 1 -1.07-.18c-1.94-.42-3.86-.88-5.81-1.23-1.15-.21-2.33-.24-3.5-.36a6.22 6.22 0 0 1 -.71-.19 6.6 6.6 0 0 1 .81-.38 1.07 1.07 0 0 1 .71-.09c2.23 1.18 4.62.46 6.93.65a17.13 17.13 0 0 1 2.71.55 6.58 6.58 0 0 1 1.02.54z"/><path d="m200.33 254.29c-1.27-.12-2.92-.26-4.57-.43a2.27 2.27 0 0 1 -.63-.26 2.52 2.52 0 0 1 .54-.33c1.64-.5 3.3 0 5-.1a13.85 13.85 0 0 1 2.23.06 2.77 2.77 0 0 1 .89.45c-.33.2-.63.53-1 .58a20.44 20.44 0 0 1 -2.46.03z"/><path d="m304.46 284.34a1.11 1.11 0 0 1 0 .37c-1 2.51-2.1 5-3.15 7.52a.83.83 0 0 1 -.18.32c-.21.18-.45.33-.68.5-.07-.27-.27-.58-.19-.8a16.16 16.16 0 0 1 .94-2.42c.83-1.65 1.71-3.28 2.62-4.9.13-.24.48-.36.73-.54z"/><path d="m320.41 277.72s-.44.12-.53.37c-.42 1.08-.75 2.2-1.11 3.31-.06.2-.11.58-.19.59a2 2 0 0 1 -1.05-.15c-.17-.11-.23-.55-.19-.82s.31-.36.46-.55a6.5 6.5 0 0 0 1.76-3.39c0-.29.39-.55.6-.82l.67.56a1.66 1.66 0 0 1 .22.3c.13.2.26.4.38.6z"/><path d="m218.27 308.45c.17 0 .33 0 .41.1 1.16 1 2.57 1.81 2.94 3.48a2.85 2.85 0 0 1 0 .51c-.11 0-.24 0-.32-.09-1.11-1-2.22-2-3.31-3a.87.87 0 0 1 -.11-.69c.05-.13.28-.22.39-.31z"/><path d="m234.05 295.15-.48.94c-.18-.21-.38-.4-.55-.62-.59-.79-1.12-1.63-1.78-2.35a2.17 2.17 0 0 1 -.65-1.84.4.4 0 0 1 .75-.18c.22.44.32.95.57 1.36a14.94 14.94 0 0 0 1.19 1.54c.31.4.63.77.95 1.15z"/><path d="m304.84 279.86a.55.55 0 0 0 .18 0l1.53-.44c.14.46.24.94.41 1.38.08.22.31.38.47.56v-.05a1.87 1.87 0 0 0 -1.86 1.2 19.5 19.5 0 0 1 -1.15 1.84l.05.05a6.73 6.73 0 0 1 .52-1.9 2 2 0 0 0 -.15-2.67z"/><path d="m181.51 300.05-4.93-.34a1.85 1.85 0 0 1 -.5-.17c.2-.13.4-.38.59-.38 1.74.07 3.47.17 5.19.29.21 0 .4.23.59.35a4.3 4.3 0 0 1 -.57.28 1.14 1.14 0 0 1 -.37 0z"/><path d="m236.55 298.35c-.33.76-.68 1.59-1.05 2.42 0 .06-.2.08-.3.11s-.12-.24-.09-.33a4.16 4.16 0 0 0 .14-2.74c-.06-.15.23-.6.4-.62a1 1 0 0 1 .74.35c.14.15.1.46.16.81z"/><path d="m229.75 304.58a14.87 14.87 0 0 0 -.23-1.63c-.18-.71.22-.89.77-1 .14 0 .43.07.43.13a5.84 5.84 0 0 1 0 1.82c-.08.27-.66.4-1 .6z"/><path d="m226 297.9a10.8 10.8 0 0 1 1.91 1.63c.31.39.2 1.11.25 1.69 0 0-.39.1-.41.06-.58-1.13-1.14-2.28-1.7-3.42z"/><path d="m223.05 316.31a18.34 18.34 0 0 1 -.14-2.21c0-.25.43-.48.66-.72a4.3 4.3 0 0 1 .52.61c.77 1.29-.58 1.58-1.09 2.27z"/><path d="m264.26 306.1c-.13 1.37-1.07 1.58-2.19 1.51v.05c.39-1.45.39-1.45 2.2-1.51z"/><path d="m261.77 304.84c-.31.15-.52.34-.66.3a1.49 1.49 0 0 1 -.76-1.68.53.53 0 0 1 .45-.11c.32.43.6.9.97 1.49z"/><path d="m219.11 300.75c.13.06.2.08.23.12.64.75 1.28 1.51 1.9 2.27a.71.71 0 0 1 .09.34c-.1 0-.25.09-.29 0-.7-.78-1.39-1.56-2.06-2.36-.05-.01.08-.22.13-.37z"/><path d="m313.49 276.85c-.1.71.22 1.53-.51 2.07a.87.87 0 0 1 -.48.14s-.1-.2-.12-.32a1.52 1.52 0 0 1 1.16-1.84z"/><path d="m224.71 308.55.59-1a11.85 11.85 0 0 1 .6 1.37c0 .11-.26.32-.41.48z"/><path d="m309.2 275.21-.88 1c-.13-.17-.41-.39-.37-.51a2.47 2.47 0 0 1 .51-.85 3.13 3.13 0 0 1 .74.36z"/><path d="m200 236.35c.36.51.62.82.81 1.16.05.1-.12.3-.18.46a5.13 5.13 0 0 1 -.8-.74c-.14-.12.02-.41.17-.88z"/><path d="m316.07 264.39c-.15.65-.3 1.3-.47 1.94 0 .07-.22.15-.3.12a.33.33 0 0 1 -.14-.29c.3-.59.63-1.16 1-1.73z"/><path d="m221.48 218.63c.35.48.34.49.05 0z"/><path d="m311.2 261.06c-.1.36-.18.72-.3 1.08s-.2.47-.3.71c0-.24-.11-.53 0-.72a7.56 7.56 0 0 1 .67-1z"/><path d="m265.45 305.37c0-.65.45-.82.94-1 .05 0 .13.12.19.18l-1.17.74z"/><path d="m311.93 259.49c0 .66 0 1.25-.73 1.57h.05l.73-1.56z"/><path d="m229.7 304.54a.55.55 0 0 1 0 .18c0 .34-.09.67-.14 1 0 0-.11-.09-.11-.13.09-.33.19-.67.29-1z"/><path d="m313.54 276.9a1.1 1.1 0 0 1 0-.18l.15-1s.11.1.11.13c-.09.33-.19.66-.29 1z"/><path d="m302.2 278c.23.27.47.53.71.8v-.05l-.7-.79z"/><path d="m192.58 267.05.35.78v-.05l-.34-.77z"/><path d="m226 297.86-.26-.38.21.42z"/><path d="m302.91 278.75.45.12c-.05 0-.11.06-.13 0a2.92 2.92 0 0 1 -.28-.21z"/><path d="m261.28 308 .83-.33v-.05l-.83.33z"/><path d="m297.59 226.1-.08.15-.06-.16z"/><path d="m304.51 271.25.13-.43s.05.1 0 .13l-.22.26z"/><path d="m291.76 213.33-.46-.11c.05 0 .11-.07.14-.06l.28.22z"/><path d="m257.2 286.22a1.67 1.67 0 0 1 .23-.23s.09 0 .13 0l-.41.15z"/><path d="m272.6 317.43.11-.46s.07.11.06.13a2.77 2.77 0 0 1 -.22.29z"/><path d="m256.17 318.52.07-.14.05.16z"/><path d="m256.75 286.57-.38.38h.05l.37-.37z"/><path d="m257.15 286.17-.4.4v.05l.41-.4z"/><path d="m261.28 310.66.12.07-.08-.12z"/><path d="m260.88 310.25.4.41v-.05l-.4-.4z"/><path d="m294.36 217.88v.05z"/><path d="m254.92 279.11.08-.11-.1.1z"/><path d="m264.31 306.15.06-.14-.11.09z"/><path d="m307.43 281.35h.12l-.08-.09z"/><path d="m265.41 305.33-.06.15.1-.11z"/><path d="m184.36 257.31v-.14l-.1.1z"/><path d="m304.88 279.82-.12-.06.08.1z"/><path d="m192.93 267.83.13.05-.09-.1z"/><path d="m217.36 121c1.11-1.32 1.06-1.76-.43-2.49a23.08 23.08 0 0 0 -2.61-.93c-.17-.06-.41 0-.53-.11-.36-.3-1-.74-.94-1 .15-.62.78-.69 1.39-.54s1.44.33 2.14.55a.85.85 0 0 1 .54.43 2.93 2.93 0 0 0 2.11 1.94 1.94 1.94 0 0 1 .72.57c.32.34.67.66-.21.79a14.05 14.05 0 0 0 -2.22.73z"/><path d="m199.39 95.17a6.66 6.66 0 0 0 -.26-.9c-.27-.58-.49-1.08.52-1a.66.66 0 0 0 .75-.82c-.08-.53.18-.71.62-.65a10.81 10.81 0 0 1 1.35.37c-.26.21-.65.37-.76.64a5 5 0 0 1 -2.27 2.34z"/><path d="m272.21 156.72c-1.38-1.43-2.79-2.84-3.06-4.95a9.58 9.58 0 0 1 3.06 4.95z"/><path d="m226 136.09.54-1a2.17 2.17 0 0 1 .26.12l-.85.86z"/><path d="m207.63 126.31a1.47 1.47 0 0 1 .12-.52c.07-.14.24-.23.37-.35a1.59 1.59 0 0 1 -.06.63c-.07.11-.32.13-.48.19z"/><path d="m273 157.85-.8-1.19c.67.09.71.64.8 1.19z"/><path d="m273 150.29h-.12l.08.09z"/><path d="m274.85 148.78-.16-.05.11.1z"/><path d="m188.45 109.37a2.92 2.92 0 0 1 .21.28s0 .08 0 .13l-.11-.45z"/><path d="m184.29 116.53h.05z"/><path d="m290.61 446.48c-1.33-1.23-2-2.92-2.93-4.39-.08-.12.12-.41.18-.63.15.08.37.13.43.26.77 1.59 1.52 3.2 2.27 4.8z"/><path d="m290.56 446.52c.88.5.83 1.46 1.13 2.25h.05c-.93-.47-.86-1.44-1.13-2.24z"/><path d="m291.69 448.77a1.71 1.71 0 0 1 .4.35 2.77 2.77 0 0 1 .26.64l-.2.12a4.21 4.21 0 0 1 -.33-.63 2.26 2.26 0 0 1 -.08-.53z"/><path d="m292.46 459.68c-.07-.1-.19-.18-.21-.28a2 2 0 0 1 0-.48 3.81 3.81 0 0 1 .15.44 2.2 2.2 0 0 1 0 .36z"/><path d="m308.2 118.8-.76-1.93c1.2.25 2.4.5 3.6.78.14 0 .25.21.38.32-.14.09-.3.28-.39.25a4 4 0 0 0 -2.83.58z"/><path d="m309 107.89.79-.58.11.28-.95.25z"/><path d="m254.89 14.77c.58.45 1.16.89 1.72 1.36.09.09.05.33.08.5-.16 0-.4.07-.45 0-.45-.62-.87-1.27-1.3-1.9z"/><path d="m251.14 28.29c.41.37.83.74 1.21 1.14.09.09 0 .32 0 .48-.16-.07-.38-.09-.45-.2-.27-.47-.5-1-.74-1.47z"/><path d="m192.6 476.9h-.12l.07.1z"/><path d="m192.55 477h.13l-.08-.09z"/><path d="m225.63 160.09c-.07-.1-.14-.19-.2-.29s0-.08 0-.12l.1.45z"/><path d="m228.68 196.09-.14-.05.09.09z"/><path d="m256.46 203.22h-.12l.07.09z"/><path d="m279.13 452.31c.19.25.35.36.39.51a1.31 1.31 0 0 1 -.07.51c-.12-.12-.3-.22-.35-.37s.01-.33.03-.65z"/><path d="m250.06 311.77-.44-.44z"/><path d="m247.43 317-.43-.44z"/><path d="m247.06 316.65-.44-.43z"/></g></svg>