<?xml version="1.0" encoding="utf-8"?>
<!-- Generator: Adobe Illustrator 23.0.1, SVG Export Plug-In . SVG Version: 6.00 Build 0)  -->
<svg version="1.1" id="Layer_1" xmlns="http://www.w3.org/2000/svg" xmlns:xlink="http://www.w3.org/1999/xlink" x="0px" y="0px"
	 viewBox="0 0 611.2 451.5" style="enable-background:new 0 0 611.2 451.5;" xml:space="preserve">
<style type="text/css">
	.st0{fill:#999999;}
</style>
<title>delska-logo</title>
<g>
	<path class="st0" d="M107.5,223.8c25,0,68.7,1,85.9-30.7c9.5-18.2,0.8-43-19-58.2c4.8-3.4,9.9-6.2,15.2-8.4
		c7.2-3,15.5-5.2,23.5-5.2c6,0,10.2,1.2,12.5,2.5c2.8,1.5,2.8,3,3.2,2.8s0-2.2-2-3.8c-2.2-1.8-6.8-4-14.7-4
		c-8.9,0.1-17.6,1.6-26,4.5c-5.9,2-11.6,4.6-17,7.8c-13-8-29.5-15.5-59.2-15.5c-43.7,0-89.7,23.7-89.4,53.7
		c0.2,15.2,17.7,23.5,34.5,24c14.7,0.8,31.7-3.5,40.7-10.8c10-8,15-19.2,14-29c-0.7-7.9-7.3-14.1-15.2-14.2c-9.2-0.5-15.5,5-18,7.5
		c-3.2,3.2-4.5,6.2-4,6.5c0.8,0.2,1.2-1.8,4.8-4.7c4-3.5,9.5-6.8,16-6.5c6.1,0.1,11.1,5.1,11,11.2v0.2c0,7-5.2,16.2-13.5,24
		c-8.8,8.2-21.7,14.2-35.5,13.5c-12-0.8-19-7-18.7-20c0.2-28,34-53,73.5-53c29,0,45.2,7.8,56.2,15c-11,6.5-31.7,21.2-48,41.2
		c-15,18.5-27,38-48,43.7c-13-2-27-3.5-35-3.5c-21.2-0.5-34.7,0-35.2,5c-0.8,4.8,17,4,39.5,4c7,0,25-1,29.5-2
		C75.7,222.1,94.2,223.8,107.5,223.8z M140.2,178.1c11.7-13.7,20.7-29.7,31.7-40.7c10,12.5,10,33.5-0.8,50.2
		c-15,23.7-42.2,33.7-67.5,33.7c-9.5-0.3-18.9-1.2-28.2-2.8C98.5,212.1,120.9,202.1,140.2,178.1z"/>
	<path class="st0" d="M570,133.1c-4,0.1-7.9,1.1-11.5,2.8c-1.5,0.8-2.2,1.5-2,2c0.5,0.5,1.5,0,2.8-0.5c3.3-1.4,6.9-2,10.5-2
		c16.2,0,31.5,8.2,31.5,30c0,10.2-3.5,20.2-9.8,28.2c-6.2,8-16.5,17.2-26,21.7c-7.2,3.5-15.2,6.2-24,6.2c-2,0-4-0.5-4.7-1.8
		c-0.8-1-0.8-3.2,1-6.2c1.5-2.5,5.8-9,10-14.5c5-6.7,8-10.5,13-16.5c2.5-3,1.2-4-6.8-4c-9.7,0-10.2,0-16.7,6.7c0.2-3.5-1.3-8-9.5-8
		c-9,0-18.2,2.8-24.2,5.2c-6.2,2.6-12.2,5.7-17.7,9.5c-2.5,1.7-4.9,3.5-7.1,5.4l-0.1,0.1l-0.3,0.2c-0.7,0.6-1.5,1.3-2.2,2l0,0
		c-2.7,2.4-6.1,5.3-10,8.5c-3,2.4-6.1,4.6-9.5,6.5c-2.2,1.3-4.8,2.2-6.5,2c-2.5-0.5-3.8-2.7-4.2-9.2c-0.2-4.2,0-9.2,1.5-11
		c1.8-2,6.5-2.8,11.2-3.5c7-1.2,11-4,11-7.8s-3.8-8-12.7-8c-5.7-0.1-11.3,1-16.5,3.2c-5.9,2.9-11.5,6.4-16.7,10.6
		c-8.5,6.8-15,13-21.5,18.7l-0.2-0.2c3.5-5,15.5-21.7,27.5-37.2c16.5-21.5,32-41,42.5-50.7c13.2-12,27-20.5,51.2-20.5
		c18.7,0,30.5,9.2,29.7,20c-0.2,3.2-1.2,5-0.8,5.2c0.8,0.2,2-2,2.5-5.2c2-13.7-7.5-28-28.5-28c-25,0-53.2,18.7-67.7,29.7
		c-14.7,11.6-28.4,24.4-41,38.2c-6.8,7.5-15,17.2-19,22.5c-5.9,5.2-11.6,10-15.8,13.7l-0.4,0.3c-5.1,4.8-10.5,9.1-16.2,13
		c-3.2,2.1-6.7,3.8-10.3,5.2c8.9-7.3,10.9-20.2,4.5-29.7c-1.8-2.5-2.5-5.5-0.5-7.5c1.8-1.5,3.8-2.2,6-3.8c6.7-4.8,5.2-7.5-0.5-7.5
		c-2.9,0-5.7,1.2-7.8,3.2c-1.6,1.8-2.9,3.8-4,6c-3.5,3-9,7.5-15,12c-4,3-7.8,5.8-11.2,8c-1.5,1-2.2,1.7-1.8,2.5s1.8,0,3-0.8
		c2.2-1.2,8-5.2,12-8.2c3-2.2,9-7,11-9l0.2,0.2c-2.8,4-6.2,18.2-11.8,27c-5.2,8.5-10.5,12.2-16,12.2c-3,0-6.2-1.5-6.5-5.5
		c0-3,1.5-5.2,4-7.2c2.7-2.2,3.7-4,3.7-6.2c0-3-2.5-5.7-8-5.7c-6.4,0.3-11.7,5.2-12.4,11.6c-0.4,0.3-0.8,0.6-1.1,0.9
		c-5.2,4-9.2,6.5-13,8c-1.4,0.6-2.9,0.6-4.2,0c-1.2-0.8-1.5-2.5-0.5-5.2c2.2-7.2,24-36,40.7-56.2c13.2-16.2,32.7-37,38-41.2
		c-0.8-1.5-3.8-2.8-8-2.8c-6.5,0.2-12.8,2.7-17.5,7.2c-9.6,9.1-18.7,18.7-27.2,28.7c-10.7,12.2-24.2,28.5-30.5,36.7
		c-6.2,5.5-12.2,10.5-16.5,14.2c-0.4,0.3-0.7,0.6-1,0.9c-4.3,3.8-8.8,7.3-13.5,10.6c-11,7.2-21,9.5-24.2,9.5h-0.2c-4,0-6-2-6-5.2
		c0.1-1.8,0.6-3.6,1.5-5.2c9-1.5,17.8-4.1,26.2-7.7c7.8-3.7,16.2-8.7,16.8-15.5c0.2-4.2-3.5-7.7-12.5-7.7
		c-11.2,0-25.5,4.2-36.7,11.7c-12,8-16,17.2-16,22.7c0,6.5,4,12.5,20.2,11.7c10.5-0.5,21.2-4.2,31.5-11.2c4.6-3.2,9-6.7,13.1-10.5
		c0.2-0.2,0.4-0.3,0.6-0.5c2.5-2.2,7.7-7.2,12.2-11.2l0.2,0.2c-6.2,7-14.2,17.7-14.2,25.2c0,4.5,2.8,8.5,11.5,8.5
		c10.5,0,19.7-5.5,27.5-11.2c0.9-0.6,1.8-1.4,2.9-2.2c0.9,7.2,8.7,12.9,21.1,12.9c8.3-0.1,16.5-1.3,24.5-3.5c6.5-2,12-4,18.5-8.5
		c4.3-3,8.4-6.3,12.3-9.9c0.1-0.1,0.3-0.2,0.4-0.4l0.5-0.4c0.9-0.8,1.7-1.5,2.3-2.1l0.2-0.2c2.7-2.5,6.2-5.7,9.3-8.5l0.2,0.2
		c-3,3.8-6.7,8.7-8.5,11.2c-4.2,6-8.5,12.5-10.5,16.7c-1.5,3.2-1,4.5,7.5,4c5.5-0.2,9.8-1.2,11.8-2.8c7.5-5,18-16,27.2-23.5
		c6.8-5.5,12.7-10,18.5-12.5c3.5-1.5,7.5-2.2,9.2-1.3c2.5,1.5,1,6.5-0.5,8.2c-1.6,2-4,3.2-6.5,3.5c-3.5,0.5-9.2,1.2-11.8,3.5
		c-2,1.8-5,6.7-5.5,13.5c-0.8,8.5,3,12.2,13,12.2c11,0,18.7-4.5,26.2-10.2c5.6-4.5,10.4-8.7,13.6-11.7l0.4-0.3c0.2-0.2,2.2-2,2.2-2
		l0.2,0.3c-5.5,5.7-8,10.7-8,15c0,7.2,6,9.7,15,9.7c13.2,0,25.5-9.7,32-15.5l0.2,0.2c-1.9,2.5-2.7,5.6-2.2,8.7c0.8,3.8,3.5,7,15.8,7
		c12.5,0,25.2-3,32.7-6.8c12.2-6,23-13.5,30.5-21.7c5.7-6.5,14.5-17.5,14.5-31C611.2,140.1,589.4,132.4,570,133.1z M234.1,190.4
		c7.2-8,12-10.5,14.7-10.5c2.2,0,3,1.5,2.5,3.8c-0.8,3.2-4.7,9.5-11.2,14.5c-6.8,5-13.2,7.2-17.5,7.7
		C225.1,201.1,228.4,196.6,234.1,190.4z M517,207.4c-6.8,6.2-16.2,11.7-21,11.7c-1.8,0-3-0.8-3.2-2.5c-0.2-3.2,4.5-10.5,13.7-19.7
		c9.3-9,18.7-16.5,23.5-16.5h0.2c2.8,0,4.8,1.2,4.5,4.5C534.5,188.9,524.7,200.3,517,207.4L517,207.4z"/>
	<path class="st0" d="M149,75.6c-2.9,4.1-4.5,9-4.5,14.1c0.2,5.2,2.1,8.8,5.9,10.8c4,2.3,9.3,1.9,16-1c4.5-1.8,8.5-4.7,11.5-8.4
		c0,0.2-0.1,0.7-0.1,1.6c-0.1,1-0.1,1.8-0.1,2.4c-0.1,0.8-0.1,1.7,0,2.5c-0.1,0.8,0.1,1.6,0.6,2.2c0.7,0.8,1.7,1.4,2.8,1.5
		c1.2,0.2,2.3,0.4,3.5,0.4h5.9c0.8-0.1,1.4-0.7,1.3-1.5c-0.1-0.7-0.6-1.2-1.3-1.3h-5.8c-1-0.1-2.1-0.2-3.1-0.4
		c-0.4-0.1-0.8-0.2-1.1-0.4v-0.7c-0.1-0.7-0.1-1.5,0-2.2c0-0.5,0-1.3,0.1-2.4c0.1-0.8,0.1-1.4,0.1-1.7c0-0.5,0-2.8,0.1-6.9
		s0.1-7.7,0.1-10.8c-0.1-2.9-0.3-5.9-0.6-9.1c-1.1-12.4-4-20.7-8.6-25c-2.8-2.7-6.9-3.6-12.4-2.7c-5.1,0.9-8.9,2.9-11.4,5.9
		c-1.4,1.7-2.1,4.2-2.1,7.5c-0.1,2.4,0.1,4.9,0.6,7.3c0.1,0.7,0.7,1.2,1.4,1.1c0.1,0,0.1,0,0.2,0c0.7,0,1.3-0.7,1.2-1.4
		c0-0.1,0-0.2,0-0.2c-0.4-2.2-0.6-4.5-0.6-6.8c0-2.6,0.5-4.5,1.6-5.8c2.1-2.4,5.2-4,9.6-4.8c4.5-0.7,7.8-0.1,10,1.8
		c3.9,3.8,6.5,10.9,7.6,21.4c-5.3,0.7-10.5,1.8-15.6,3.5C156.5,67.6,152,71,149,75.6z M177.6,65.3c0.4,4.9,0.5,11.5,0.3,20
		c-0.1,0.1-0.1,0.3-0.1,0.4c-1.9,4.7-6.1,8.4-12.5,11.2c-5.8,2.5-10.4,2.9-13.6,1c-2.7-1.5-4.2-4.3-4.4-8.3c0-4.5,1.4-8.9,4-12.5
		c2.6-4.1,6.6-7,11.3-8.3C167.5,67.2,172.5,66,177.6,65.3z"/>
	<path class="st0" d="M192.8,40.3c4.3,0,10.5,0.3,18.6,1c-0.5,15.2-0.7,23.7-0.7,25.4c0,0.7-0.1,2.9-0.3,6.8s-0.2,7-0.1,9.4
		c0.1,2.4,0.3,4.7,0.7,7.1c0.6,2.9,1.9,5.6,3.6,7.9c1.6,2.4,3.7,4.3,6.2,5.7c2.7,1.5,5.2,1.7,7.6,0.7c2.5-1,4.4-3.5,5.6-7.3
		c0.3-0.5,0.2-1.3-0.4-1.6c-0.1-0.1-0.3-0.1-0.4-0.2c-0.6-0.3-1.3-0.1-1.6,0.5c-0.1,0.1-0.1,0.3-0.1,0.4c-1,3-2.4,4.9-4.2,5.6
		c-1.7,0.6-3.6,0.4-5.1-0.6c-2.1-1.2-4-2.9-5.3-4.9c-1.5-2-2.6-4.4-3-6.9c-0.3-1.8-0.5-3.7-0.7-5.6c-0.1-2.1-0.1-3.9-0.1-5.4
		s0.1-3.6,0.3-6s0.2-4.4,0.2-5.7c0-1.9,0.2-10.3,0.7-25.2c7.7,0.6,13.7,0.8,18,0.8c0.8,0.1,1.5-0.5,1.5-1.3c0.1-0.8-0.5-1.5-1.3-1.5
		c-0.1,0-0.2,0-0.2,0c-4.3,0-10.3-0.3-17.9-1c0.2-7.7,0.3-14.3,0.3-19.8c-0.1-0.8-0.7-1.4-1.5-1.3c-0.7,0.1-1.2,0.6-1.3,1.3
		c0,5.4-0.1,12-0.3,19.7c-8.1-0.7-14.3-1-18.7-1c-0.8-0.1-1.5,0.5-1.5,1.3c-0.1,0.8,0.5,1.5,1.3,1.5
		C192.8,40.3,192.8,40.3,192.8,40.3L192.8,40.3z"/>
	<path class="st0" d="M241.7,64.4c0.1,0.1,0.3,0.2,0.4,0.1c-0.2,2.4-0.2,4.9,0,7.3c0.4,5,1.7,9.9,3.7,14.4c2,4.3,5,8.1,8.8,11
		c3.9,3,8.6,4.5,13.5,4.4c3.6,0.1,7.3-0.7,10.5-2.3c3.3-1.8,6.3-4.3,8.7-7.2c0.6-0.6,0.5-1.6-0.1-2.1s-1.6-0.5-2.1,0.1
		c-2.1,2.7-4.8,4.9-7.7,6.6c-2.9,1.4-6.1,2.1-9.3,2c-6.3,0.1-12.2-2.8-16-7.9c-4.1-5.2-6.5-11.7-7.2-19.4c-0.2-2.3-0.2-4.6,0-6.9
		c1.2,0.1,2.4,0.2,3.6,0.1c3.2,0.1,7.6,0.2,13.4,0.3c5.2,0.1,9.6,0.2,13.4,0.3h6.8c1-0.1,1.8-0.8,2.1-1.7c0.8-2.4,1.2-5,1.1-7.6
		c0.1-2.5-0.2-5-0.7-7.5c-1.3-4-4.7-7.5-10.1-10.4c-5.5-3-10.3-3.9-14.2-2.7c-5.1,1.6-9.4,5.1-12.2,9.6c-3.1,5-5,10.7-5.6,16.5
		c-0.7-0.2-1.4,0.2-1.5,0.9c0,0,0,0.1,0,0.1C240.5,63.6,240.8,64.2,241.7,64.4z M250.4,47c2.5-4,6.3-7,10.8-8.5
		c3.2-1,7.2-0.3,12,2.3c4.8,2.6,7.7,5.5,8.6,8.8c0.6,2.2,0.8,4.4,0.7,6.6c0,2.2-0.3,4.4-0.9,6.5h-6.2c-3.8-0.1-8.3-0.2-13.4-0.3
		c-6.1-0.1-10.6-0.2-13.5-0.3c-1.3,0-2.5,0-3.5-0.1C245.7,56.6,247.5,51.5,250.4,47L250.4,47z"/>
	<path class="st0" d="M292.4,97.7c-0.3,0.9-0.1,1.5,0.8,1.8c3,1.2,8,1.8,14.9,1.7c2.9-0.1,5.7-0.3,8.6-0.7c2.2-0.3,4.4-1.1,6.3-2.2
		c0.6-0.5,0.7-1.3,0.3-2s-1.3-0.7-2-0.3c-1.5,1-3.3,1.5-5.1,1.7c-1.9,0.3-4,0.5-6.3,0.7c0.1-0.2,0.1-0.5,0.1-0.7
		c-1-8.1-1.4-20.4-1-37c0.4-16.6,0-29.1-1-37.5c0-0.1-0.4-2.2-1.1-6.3c-0.4-2-0.7-4.1-0.8-6.2c-0.3-2.8-0.5-4.7-0.7-5.8
		c-0.2-1.5-0.8-2.9-1.8-4c-1.1-1-2.6-1.2-4.5-0.6c-2.1,1.1-4.2,2.4-6,3.9c-0.6,0.3-0.8,1.1-0.5,1.7c0.1,0.1,0.1,0.2,0.2,0.3
		c0.3,0.6,1.1,0.8,1.7,0.5c0.1-0.1,0.2-0.1,0.3-0.2c1.6-1.4,3.4-2.6,5.4-3.5c0.8-0.3,1.4-0.3,1.7-0.1c0.5,0.7,0.9,1.6,1,2.5l0.6,5.5
		c0.2,1.6,0.5,3.7,1,6.3c0.6,3.2,0.9,5.3,1,6.2c1,8.2,1.4,20.6,1,37.1c-0.4,16.8,0,29.2,1,37.4c0,0.2,0,0.3,0.1,0.4
		c-6.2,0-10.5-0.5-13.1-1.4c-0.5-0.5-1.3-0.4-1.8,0.1C292.5,97.3,292.4,97.5,292.4,97.7z"/>
	<path class="st0" d="M343.8,13.3c0.8,0,1.5-0.3,2-0.9c1.1-1,1.1-2.7,0.1-3.8c0,0-0.1-0.1-0.1-0.1c-1.1-1.1-2.9-1.1-4,0.1
		c-0.5,0.5-0.8,1.2-0.8,1.9c0,0.8,0.3,1.5,0.8,2C342.4,13.1,343.1,13.3,343.8,13.3z"/>
	<path class="st0" d="M329.4,42.1c1.7,0.8,4.4,0.9,8.1,0.1c1.9-0.4,3-0.6,3.4-0.7h1.1c0.1,0.5,0.2,1,0.1,1.5
		c0.2,1.3,0.4,3.3,0.6,5.9c0.3,4.3,0.6,10.5,0.9,18.4c0.2,3.5,0.4,7.8,0.6,13c0.2,5.2,0.4,9.4,0.5,12.6c0.1,3.2,0.3,5.3,0.4,6.5v0.3
		c-3.6,0.2-7.2-0.2-10.7-1.1c-0.7-0.2-1.5,0.1-1.7,0.8c0,0.1,0,0.1-0.1,0.2c-0.3,0.7,0,1.4,0.7,1.7c0.1,0,0.2,0.1,0.2,0.1
		c3.3,0.9,7.7,1.3,13.2,1c0.8,0,2.8-0.1,5.9-0.4c3.1-0.2,5.4-0.4,7-0.3c0.8-0.1,1.4-0.7,1.3-1.5c-0.1-0.7-0.6-1.2-1.3-1.3
		c-0.4,0-4.3,0.2-11.8,0.7v-0.4c-0.1-1-0.2-3.1-0.4-6.3c-0.1-3.2-0.3-7.3-0.5-12.5s-0.4-9.5-0.6-13.1c-0.3-8-0.6-14.1-0.9-18.4
		c-0.2-2.6-0.4-4.7-0.6-6.2c-0.1-0.8-0.2-1.4-0.3-1.8c0-0.2,0-0.5-0.1-0.7c-0.1-0.3-0.3-0.6-0.6-0.8c-1-0.6-2.2-0.8-3.4-0.6
		c-0.6,0.1-1.8,0.3-3.6,0.7c-3.1,0.7-5.1,0.7-6.2,0.1c-0.7-0.3-1.6,0-1.9,0.7C328.6,40.9,328.8,41.7,329.4,42.1L329.4,42.1z"/>
	<path class="st0" d="M368.6,64.4c0.1,0.1,0.3,0.1,0.4,0.1c-0.2,2.4-0.2,4.9,0,7.3c0.4,5,1.7,9.9,3.7,14.4c2,4.3,5,8.1,8.8,11
		c3.9,3,8.6,4.5,13.5,4.4c3.6,0.1,7.2-0.7,10.5-2.3c3.3-1.8,6.3-4.3,8.7-7.2c0.6-0.6,0.5-1.6-0.1-2.1s-1.6-0.5-2.1,0.1
		c-2.1,2.7-4.8,4.9-7.7,6.6c-2.9,1.4-6.1,2.1-9.3,2c-6.3,0.2-12.3-2.8-16-7.9c-4.1-5.2-6.5-11.7-7.2-19.4c-0.2-2.3-0.2-4.6,0-6.9
		c1.2,0.1,2.4,0.2,3.6,0.1c3.2,0.1,7.6,0.2,13.4,0.3c5.1,0.1,9.6,0.2,13.4,0.3h6.8c1-0.1,1.8-0.8,2.1-1.7c0.8-2.5,1.2-5,1.1-7.6
		c0.1-2.5-0.2-5-0.7-7.5c-1.3-4-4.7-7.5-10.1-10.4c-5.4-2.9-10.1-3.8-14.2-2.7c-5.1,1.6-9.4,5.1-12.2,9.6c-3.1,5-5,10.7-5.6,16.5
		c-0.7-0.2-1.3,0.2-1.5,0.9c0,0,0,0.1,0,0.1C367.4,63.6,367.7,64.2,368.6,64.4z M377.3,47c2.5-4,6.3-7,10.8-8.5
		c3.2-1,7.2-0.3,12,2.3s7.7,5.5,8.6,8.8c0.6,2.2,0.8,4.4,0.7,6.6c0,2.2-0.2,4.4-0.8,6.5h-6.2c-3.8-0.1-8.3-0.2-13.4-0.3
		c-6.1-0.1-10.6-0.2-13.5-0.3c-1.3,0-2.5,0-3.5-0.1C372.6,56.6,374.4,51.5,377.3,47L377.3,47z"/>
	<path class="st0" d="M421.6,44l3.2-1.3c1.4-0.7,2.8-1.3,4.2-1.8c1.3-0.5,2.7-1,4.1-1.3c0.4-0.2,0.9-0.2,1.4-0.1v0.4
		c0.2,0.6,0.4,1.2,0.4,1.8c0.2,1.6,0.3,3.8,0.4,6.5s0.2,6.1,0.3,10.3v0.8c0.1,1.4,0.1,4.1,0.1,8c0.2,19.7,0.3,30.5,0.4,32.5
		c-0.5,0-2.4,0-5.8,0.1s-6,0.1-7.7,0.1c-0.8,0.1-1.4,0.7-1.3,1.5c0.1,0.7,0.6,1.2,1.3,1.3c1.9,0,5.1-0.1,9.6-0.2s8.4-0.2,11.7-0.1
		s6.4,0.3,9.4,0.7c0.8,0.1,1.5-0.5,1.6-1.3c0.1-0.8-0.5-1.5-1.3-1.6c-4.9-0.5-9.7-0.7-14.6-0.7c-0.1-1.9-0.2-12.7-0.4-32.5
		c0-4.4,0-7.3-0.1-8.7c0.3-2,1.8-4.4,4.5-7.2c3-3.1,6.4-5.7,10.3-7.7c4-2.2,7.2-3.1,9.7-2.7c1,0.1,2,0.7,2.5,1.5
		c0.8,1.3,1.2,2.8,1.1,4.4c-0.1,0.8,0.5,1.5,1.3,1.5s1.5-0.5,1.5-1.3c0-0.1,0-0.2,0-0.2c0.1-2.1-0.4-4.2-1.5-6
		c-1.1-1.4-2.7-2.4-4.5-2.7c-3.1-0.5-6.9,0.5-11.5,3c-4.1,2.2-7.8,5-11,8.3c-0.9,1-1.8,2-2.5,3c0-1.6,0-3-0.1-4.4
		c0-2.2-0.2-4.4-0.6-6.6c-0.1-0.9-0.2-1.7-0.3-2.2c-0.1-0.7-0.3-1.3-0.7-1.8c-0.8-0.8-2.1-1.1-3.9-0.7c-1.5,0.3-3,0.8-4.5,1.4
		c-0.8,0.4-2.3,1-4.4,1.8c-1,0.5-2,0.8-3,1.1c-0.7,0.1-1.1,0.8-1,1.5c0,0.1,0,0.2,0.1,0.2c0.1,0.7,0.8,1.3,1.5,1.2
		C421.5,44,421.6,44,421.6,44z"/>
	<path class="st0" d="M540.3,262.3c-13-6.2-30.7-9.2-53-9.2c-23,0.1-45.9,4-67.7,11.6l-12,4.1c-19.1,6.8-38.1,14.3-56.8,22.7
		c-1.1-0.3-2.1-0.8-3.2-1c-5.3-1.8-10.3-3.8-15.4-5.7c-1.7-0.8-3.6-1.5-5.3-2.3c-4-1.6-7.8-3.3-11.6-5c4-1.4,7.8-2.6,11.6-3.9
		c4.6-1.5,9.2-3.1,13.9-4.7c2.3-0.8,4.6-1.5,6.7-2.2c6.1-1.8,12-3.6,17.7-5.1c-5.9-0.4-11.8-1.3-17.7-2.6c-3.6-0.8-7.3-1.8-11.1-2.9
		c-3.4-1.1-6.5-2.1-9.5-3.2c-5.9-2-11.3-3.9-16-5.9c-0.9,0.5-1.8,0.9-2.7,1.2c-6.6,2.9-13.4,5.3-20.4,7.1c-2.3,0.6-4.6,1.1-7.2,1.5
		c-5.3,1.1-10.3,2-14.9,2.5c-4.4,0.6-8.2,1.1-11.8,1.2c4,0.6,7.9,1.4,11.8,2.6c4.1,1.1,8.1,2.5,12,4c3.1,1.4,6.5,2.7,10.1,4.2
		c5.5,2.3,11.1,4.8,17,7.7c-5.7,1.8-11.3,3.6-17,5.6c-5.9,1.8-11.6,3.8-17,5.6c-1.7-0.8-3.4-1.6-5-2.4c-9.7-4.8-19.3-9.3-29.4-13.8
		c-9.7-4.2-19.6-8.1-29.4-11.6c-2.1-0.8-4.2-1.5-6.3-2.1c-12.3-4-24.9-7.2-37.6-9.6c-12.7-2.4-25.6-3.6-38.5-3.6
		c-8,0-15.9,0.6-23.8,1.9c-7.5,1.2-14.8,3.3-21.9,6.2c-6.1,2.5-11.5,6.3-16,11.1c-4,4.4-6.2,10.1-6.1,16c0,7.2,3.2,13.5,9.2,19.2
		c6.1,5.6,14.1,10.1,23.8,13.7c10.4,3.8,21.1,6.5,32,8.3c11.1,1.8,22.2,2.7,33.4,2.7c8,0,15.9-0.7,23.8-2.1c7.2-1.2,14.2-3.1,21-5.8
		c0.6-0.8,0.8-1.4,0.2-1.8c-0.6-0.3-1.4-0.2-1.9,0.3c-6.1,2.7-12.5,4.5-19.1,5.4c-7.2,1.1-14.4,1.6-21.7,1.7
		c-10.5,0-21-0.9-31.4-2.7c-10.3-1.8-20.5-4.6-30.3-8.3c-8.3-3.1-16-7.5-22.9-13.1c-5.9-5.3-8.8-11.1-8.8-17.4s1.9-11.3,5.9-15.4
		c4.1-4.4,9.2-7.8,14.9-9.9c6.3-2.4,12.9-4.1,19.6-5c6.6-0.9,13.3-1.3,20-1.4c23.8,0,47.3,4.4,69.6,12.8c4.2,1.6,8.6,3.3,12.8,5
		c18.3,7.4,36.4,15.5,54.2,24.7c-5.5,1.5-10.9,3.2-16.4,4.5c-5.6,1.6-11.3,2.7-17,3.5c-7.1-3.3-14.3-6.2-20.8-8.6l-6.9-2.3
		c-8-2.5-16.3-3.9-24.6-4.1c-4.5,0-8.9,0.7-13.2,1.8c-4.6,1.2-7,3-7,5.4s1.5,4.4,4.2,5.9c3.3,1.6,6.7,2.8,10.3,3.5
		c4.5,0.8,8.9,1.4,13.5,1.7c4.8,0.4,9.2,0.6,13.5,0.6c3.4,0,6.9,0,10.3-0.2c4-0.1,8.2-0.6,12.4-0.9c7.1,3.6,14.5,7.7,22.1,12.2
		c7.6,4.4,15.8,8.9,24.4,13.4c-6.1,2.4-11.8,4.6-17,6.8c-5.2,2.1-10.5,3.8-16,5.1c-5.7-1.2-11.2-2.4-16.6-3.3
		c-3.2-0.6-6.3-0.9-9.3-1.2c-2.1-0.1-4.2-0.1-6.3-0.1c-4.1,0-8.2,0.6-12.2,1.8c-3.8,1.2-5.9,2.9-5.9,5s2.3,3.6,6.5,4.4
		c4.2,0.8,8.4,1.2,12.6,1.2c1.7,0,3.4,0,5.3-0.2c2.3-0.3,5-0.6,8-1c5-0.8,10-1.8,14.9-3.1c6.7,2.4,13.9,5.3,21,8.6
		c5,2.2,9.9,4.8,14.9,7.7c2.1,1.4,4.4,2.7,6.7,4.1c-2.3,1.1-4.6,2.1-6.7,3c-6.8,3-13.8,5.6-21,7.8c-7.9,2.6-16.1,3.9-24.4,4
		c-2.5,0-5.2-0.1-7.8-0.3c-1.9,0-3.8-0.2-5.7-0.6c-0.4-0.1-0.8-0.1-1.5-0.3c-0.5-0.6-1.2-0.7-1.9-0.5c-0.4,0.3-0.4,0.8,0.2,1.2
		c1,0.4,2.1,0.7,3.1,1c4.8,1.5,9.7,2.2,14.7,2.1c7.4,0,15.8-1.5,25-4.5c6.3-2.1,12.6-4.4,19.1-7.1c3.1-1.4,6.5-2.9,10.1-4.4l12,8.1
		c6.1,4.4,11.8,8.7,17,13.1c-5.3,5.1-9.8,11-13.5,17.4c-1.6,2.7-2.8,5.6-3.6,8.6c-1,3.1-1.5,6.4-1.5,9.6c-0.1,3.4,0.4,6.8,1.5,10.1
		c1,3.6,2.8,7,5.3,9.9c3.8,4.5,8.8,7.1,15.1,7.8c1,0,2.1,0.2,3.4,0.2c6.3,0,11.3-1.2,15.3-3.8c1.5-0.8,2.8-2,3.8-3.3
		c4.4-4.6,6.5-10.4,6.5-17.3s-2.3-13.7-6.7-21.1c-1.1-1.8-2.3-3.6-3.6-5.4c-4.4-5.8-9.4-11.2-14.9-16c4.2-3.3,8.2-6.3,12.2-9.2
		c0.9-0.8,1.8-1.5,2.7-2.1c3.2-2.2,6.5-4.5,10.3-6.8c3.6,1.5,6.9,2.9,10.3,4.2c8.2,3.1,16.5,5.7,25,7.8c10.8,2.8,21.9,4,33,3.6
		c1.7-0.6,1.7-1,0-1.6c-10.2-0.3-20.3-2.1-30-5.1c-9.5-3.1-18.9-6.7-28-10.8c-1-0.4-2.3-1-3.6-1.6c1.3-0.6,2.5-1.2,3.6-1.7
		c10.9-5,22-9.2,33.5-12.8c4.8,1.3,9.8,2.3,14.7,3c3.9,0.6,7.9,0.9,11.8,1.1h1.9c4.9,0,9.7-0.5,14.5-1.4c5.3-1.1,8-2.7,8-5.1
		c0-3.6-5-5.6-15.1-5.6c-3.2,0-6.1,0.1-9.3,0.5l-6.9,0.9c-5.7,1.1-11.4,2.1-17.5,3.5c-12.3-3.9-24.2-8.9-35.6-14.9
		c-0.6-0.4-1.2-0.8-1.9-1.1c0.6-0.3,1.3-0.8,1.9-1.1c6.7-3.3,13.5-6.8,20-9.9c6.9-3.6,13.9-7.2,20.6-10.7c4.2,0.8,8.5,1.3,12.8,1.6
		c2.3,0.1,4.4,0.1,6.5,0.3h6.3c5.9,0.1,11.8-0.2,17.7-0.8c5.2-0.4,10.3-1.2,15.3-2.6c3.8-0.9,7.5-2.4,10.9-4.4
		c2.7-1.8,4.2-3.9,4.2-6.3c0.1-2.3-1.3-4.4-3.4-5.4c-2.1-1.2-6.1-1.8-11.8-1.8c-8.6,0.2-17.2,1.5-25.4,3.9
		c-4.7,1.2-9.3,2.7-13.9,4.5c-4.6,1.8-9.5,3.8-14.3,6c-7.2-1.4-13.9-2.9-20.4-4.5s-13-3.8-19.4-5.9c18.1-8.1,36-15.3,54-21.8
		c3.2-1.2,6.5-2.2,9.7-3.3c21.2-7.2,42.1-10.8,62.3-10.8c8.8,0,17.6,0.5,26.3,1.5c7.9,1,15.7,2.7,23.4,5.1c7.1,2.3,12.8,5.1,17,8.6
		c4.4,3.5,6.5,7.7,6.5,12.8c0,6.8-2.7,13.4-7.6,18.2c-5.7,5.6-12.4,10-19.8,12.9c-9,3.7-18.4,6.4-28,8c-10.3,1.9-20.8,2.9-31.3,2.9
		c-6.3,0-13.5-0.3-21.2-1c-8-0.6-17-2.6-27.6-5.7c-0.5-0.3-1.2-0.3-1.7,0c-0.2,0.3,0,0.6,0.6,1.2c8.3,2.5,16.8,4.4,25.5,5.7
		c8.8,1.5,17.6,2.2,26.5,2.3c11.8,0.1,23.5-0.9,35.1-2.9c10-1.5,19.7-4.3,29-8.1c7.7-3.1,14.6-7.8,20.3-13.9
		c4.9-5.3,7.6-12.3,7.6-19.6C560.1,275.8,553.3,268.5,540.3,262.3z M207,303.5c-3.8,0.3-7.6,0.5-11.4,0.5c-4.2,0-8.4-0.3-12.6-0.6
		c-4-0.4-8-1-12-1.8c-3.1-0.7-6.2-1.8-9-3.3c-2.3-1.4-3.4-2.9-3.4-4.8c0-1.5,1.9-2.7,5.7-3.3c3.7-0.7,7.4-1,11.1-1
		c5.3,0,11.1,1.2,18.1,3.6c4.2,1.5,8.6,3.3,13.5,5.4c2.9,1.3,6.3,2.9,9.7,4.7C213.5,303.1,210.1,303.3,207,303.5z M207,346.3
		c-2.3,0.2-4.4,0.3-6.3,0.3c-2.8,0-5.6-0.2-8.4-0.6c-2.7-0.5-4-1.2-4-2.6c0-1.1,1.5-2.1,4.4-2.9c3.2-0.8,6.4-1.2,9.7-1.2
		c1.5,0,2.9,0.2,4.6,0.2c6.3,0.7,12.5,2,18.5,3.9C219.4,344.8,213.2,345.8,207,346.3L207,346.3z M407.6,343.5c2.7-0.3,5.3-0.4,8-0.5
		c4.8,0,8.2,0.5,9.7,1.2s2.1,1.5,2.1,2c0,1.4-1.7,2.4-5,3.3c-3.7,0.8-7.4,1.2-11.2,1.2c-1,0-2.3-0.2-3.6-0.2
		c-6.8-0.5-13.5-1.6-20-3.5C394.1,345.2,400.8,344,407.6,343.5z M407.6,300c5.5-2.1,10.5-3.9,15.6-5.4c7.3-2.3,15-3.5,22.7-3.6
		c3.2,0,6.4,0.5,9.5,1.5c2.7,0.9,4,2.2,4,4.2c0,1.5-1.3,3-4,4.2c-3,1.4-6.2,2.3-9.5,2.7c-3.7,0.7-7.4,1.2-11.1,1.4
		c-3.8,0.3-6.7,0.4-9,0.4c-4.9,0-9.5-0.1-14.3-0.4c-1.3,0-2.5-0.2-3.8-0.2l-9.9-0.9C401.1,302.5,404.4,301.2,407.6,300z
		 M292.6,267.2c-1.5-0.8-3.2-1.3-4.6-2c-4.6-2.1-9.3-3.8-13.7-5.4c4.6-0.9,9.2-1.8,13.7-2.9c6.5-1.6,12.9-3.6,19.1-6l1.3,0.5
		c5.9,2.4,12.2,4.5,18.7,6.5c0.5,0.1,0.8,0.1,1.5,0.3c6.7,2,13.2,4.1,19.1,6c0.5,0.1,1,0.3,1.5,0.5c-0.4,0.1-1.1,0.1-1.5,0.3
		c-5.9,1.5-11.6,3.1-17,4.8c-1.2,0.5-2.4,0.9-3.6,1.2c-4.8,1.5-9.9,3.2-14.9,4.8c-1.3-0.5-2.5-1-3.8-1.6
		C302.9,271.7,297.8,269.5,292.6,267.2z M287.9,287.5c1-0.3,2.1-0.8,3.4-1.2c5.3-1.8,11-3.8,16.4-5.9c0.2,0,0.4,0.1,0.6,0.1
		c5.5,2.5,10.9,5.1,16.4,7.4c0.8,0.3,1.5,0.6,2.3,0.9c5.1,2.1,10.1,4.2,15.4,6.3c-5.3,2.6-10.3,5-15.4,7.2c-0.3,0.2-0.7,0.4-1,0.6
		c-5.5,2.5-10.9,5.1-16.6,7.8c-0.3-0.3-0.6-0.5-1-0.6c-5.7-3-11.1-6-16.6-9c-1.3-0.8-2.5-1.5-3.8-2.1c-4.6-2.4-9-4.8-13.7-7.1
		C278.9,290.5,283.5,288.9,287.9,287.5z M320.9,324.1c1.9,1.1,4,2.3,6.1,3.3c3,1.5,6.1,3,9.2,4.5c-3.1,1.6-6.3,3.3-9.2,5
		c-1.2,0.8-2.7,1.5-4,2.3c-4.2,2.2-8.4,4.7-12.6,7.1c-0.7-0.3-1.4-0.7-2.1-1.2c-4.8-2.9-9.7-5.6-14.3-8.3c-2.1-1.2-4-2.4-6.1-3.6
		c-3.6-2-7-3.8-10.3-5.7c3.4-1.5,6.8-3.2,10.3-4.5c1-0.5,2.1-0.9,3.4-1.4c4.6-2,9.2-3.9,13.7-6c1.1,0.6,2.3,1.2,3.4,1.6
		C312.7,319.6,317,321.8,320.9,324.1L320.9,324.1z M252.6,313.5c-7.6-3.9-15.2-7.7-22.7-11.1c5.9-0.7,11.7-1.9,17.5-3.5
		c5.7-1.4,11.3-3,17.2-4.5c0.4,0.2,0.8,0.3,1.3,0.4c5.9,3.2,11.8,6.2,17.5,9.5c1.7,0.9,3.2,1.6,4.6,2.6c4.6,2.6,9,5.1,13.7,7.5
		c-4.4,2.1-9,4.1-13.5,6h-0.2c-4.4,1.8-8.6,3.7-12.6,5.5l-9.5-5.4C261.4,318.1,257,315.8,252.6,313.5z M265.8,354.1
		c-2.3-1-4.6-2.1-6.7-3.2c-7.1-3.3-14.4-6-21.9-8.3c8.8-2.6,18.3-6,28.6-10.1c0.9-0.3,1.9-0.7,2.8-1.1c5.7,3,11.1,6,16.8,9.2
		c0.8,0.5,1.7,1,2.5,1.5c4.8,2.7,9.7,5.4,14.7,8.1c-3.8,2.1-7.4,4.1-11.1,6c-1.3,0.6-2.5,1.2-3.6,1.8c-2.5,1.2-5,2.3-7.6,3.3
		C275.5,358.9,270.7,356.5,265.8,354.1L265.8,354.1z M325.1,410.8c0.6,0.9,1.3,2,1.9,2.9c3.6,5.9,5.3,11.4,5.3,16.7
		c0,5.6-1.7,10.4-5.3,14.1c-4.8,5-12,7-18.7,5.3c-4.4-0.9-8.5-3.1-11.7-6.2c-4.8-4.7-7.4-11-7.4-19.3c0.1-6.2,1.7-12.3,4.8-17.8
		c3.4-6.1,7.7-11.7,12.6-16.7c0.6,0.6,1.1,1,1.7,1.6C314.6,397.3,320.2,403.8,325.1,410.8L325.1,410.8z M327,370.5
		c-1.9,1.2-3.8,2.4-5.7,3.6c-4,2.7-7.8,5.7-11.4,9c-0.6-0.4-1.2-0.9-1.7-1.5c-3.6-3.2-7.1-6.2-11-9c-3-2.4-6.2-4.6-9.5-6.6
		c-1.7-1.1-3.2-2-4.8-2.9c1.7-0.8,3.1-1.5,4.8-2.4c2.1-1.1,4.2-2.1,6.3-3.1c3.8-2,7.8-3.9,11.8-6c0.8,0.5,1.5,0.8,2.3,1.2
		c4,2.3,8,4.2,12,6.2c2.3,1,4.4,2.1,6.7,3.2c2.5,1.2,5.1,2.4,7.6,3.5L327,370.5z M347.6,337.2c3.6,1.5,6.9,2.9,10.3,4.1
		c6.5,2.3,12.6,4.2,18.5,5.9c-9.8,3.2-19.5,7.1-28.8,11.6c-2.1,1.1-4.2,2.1-6.3,3.2c-4.6-2.1-9-4.4-13.7-6.8
		c-0.2-0.1-0.4-0.1-0.6-0.3c-4.4-2.3-9-4.8-13.6-7.4c4-2.1,8.4-4.4,12.8-6.9c0.2-0.1,0.6-0.3,0.8-0.5c4.2-2.4,8.2-4.7,12-6.9
		C342,334.5,344.9,335.8,347.6,337.2L347.6,337.2z M383.8,307.1c-11.6,5.4-23.5,11.4-36.2,18.2c-1.6,1.1-3.6,2-5.3,3
		c-4.8-2.7-9.9-5.4-15.1-8c0-0.2-0.2-0.2-0.2-0.2c-5.2-2.7-10.3-5.4-15.3-8.3c5-2.3,10.1-4.5,15.3-6.9c0.5-0.3,1-0.5,1.5-0.8
		c5.5-2.7,11.4-5.3,17.2-8c0.6,0.3,1.3,0.5,1.9,0.8C359.5,301.1,371.6,304.5,383.8,307.1L383.8,307.1z"/>
</g>
</svg>
