<?xml version="1.0" encoding="utf-8"?>
<!-- Generator: Adobe Illustrator 23.0.2, SVG Export Plug-In . SVG Version: 6.00 Build 0)  -->
<svg version="1.1" id="Layer_1" xmlns="http://www.w3.org/2000/svg" xmlns:xlink="http://www.w3.org/1999/xlink" x="0px" y="0px"
	 viewBox="0 0 288 212.76" style="enable-background:new 0 0 288 212.76;" xml:space="preserve">
<style type="text/css">
	.st0{fill:#035662;}
</style>
<g>
	<path class="st0" d="M50.28,105.48c11.77,0,32.38,0.47,40.5-14.48c4.47-8.6,0.35-20.25-8.95-27.43c1.41-1.06,4.12-2.71,7.18-4
		c3.41-1.41,7.3-2.47,11.07-2.47c2.83,0,4.83,0.59,5.89,1.18c1.29,0.71,1.29,1.41,1.53,1.29c0.24-0.12,0-1.06-0.94-1.77
		c-1.06-0.82-3.18-1.88-6.95-1.88c-4.12,0-8.01,0.71-12.24,2.12c-3.41,1.18-6.24,2.59-8.01,3.65c-6.12-3.77-13.89-7.3-27.9-7.3
		c-20.6,0-42.27,11.18-42.15,25.31c0.12,7.18,8.36,11.07,16.25,11.3c6.95,0.35,14.95-1.65,19.19-5.06
		c4.71-3.77,7.06-9.07,6.59-13.66c-0.47-4.24-3.77-6.59-7.18-6.71c-4.36-0.24-7.3,2.36-8.48,3.53c-1.53,1.53-2.12,2.94-1.88,3.06
		c0.35,0.12,0.59-0.82,2.24-2.24c1.88-1.65,4.47-3.18,7.53-3.06c2.83,0.12,5.18,2.24,5.18,5.3v0.12c0,3.3-2.47,7.65-6.36,11.3
		c-4.12,3.89-10.24,6.71-16.72,6.36c-5.65-0.35-8.95-3.3-8.83-9.42c0.12-13.19,16.01-24.96,34.61-24.96
		c13.66,0,21.31,3.65,26.49,7.06c-5.18,3.06-14.95,10.01-22.61,19.43c-7.06,8.71-12.72,17.9-22.61,20.6
		c-6.12-0.94-12.72-1.65-16.48-1.65c-10.01-0.24-16.37,0-16.6,2.35c-0.35,2.24,8.01,1.88,18.6,1.88c3.3,0,11.77-0.47,13.89-0.94
		C35.32,104.65,44.04,105.48,50.28,105.48z M65.7,83.93c5.53-6.48,9.77-14.01,14.95-19.19c4.71,5.89,4.71,15.78-0.35,23.67
		c-7.06,11.18-19.9,15.89-31.79,15.89c-2.83,0-8.95-0.59-13.3-1.3C46.04,99.94,56.63,95.23,65.7,83.93z"/>
	<path class="st0" d="M268.21,62.74c-2.24,0.12-3.88,0.59-5.42,1.3c-0.71,0.35-1.06,0.71-0.94,0.94c0.24,0.24,0.71,0,1.29-0.24
		c0.94-0.47,2.94-0.94,4.95-0.94c7.65,0,14.83,3.89,14.83,14.13c0,5.53-2.12,10.12-4.59,13.3c-2.94,3.77-7.77,8.12-12.24,10.24
		c-3.42,1.65-7.18,2.94-11.3,2.94c-0.94,0-1.88-0.24-2.24-0.82c-0.35-0.47-0.35-1.53,0.47-2.94c0.71-1.18,2.71-4.24,4.71-6.83
		c2.36-3.18,3.77-4.94,6.12-7.77c1.18-1.41,0.59-1.88-3.18-1.88c-4.59,0-4.83,0-7.89,3.18c0.12-1.65-0.59-3.77-4.48-3.77
		c-4.24,0-8.59,1.3-11.42,2.47c-3.3,1.41-5.77,2.71-8.36,4.47c-1.07,0.71-2.15,1.5-3.37,2.56c-0.01,0.01-0.03,0.02-0.04,0.03
		c-0.04,0.03-0.08,0.07-0.12,0.11c-0.34,0.3-0.69,0.61-1.06,0.95c-0.01,0.01-0.01,0.01-0.02,0.02c-1.27,1.13-2.85,2.49-4.7,3.99
		c-1.88,1.53-3.41,2.47-4.47,3.06c-1.06,0.59-2.24,1.06-3.06,0.94c-1.18-0.24-1.77-1.3-2-4.36c-0.12-2,0-4.36,0.71-5.18
		c0.82-0.94,3.06-1.3,5.3-1.65c3.3-0.59,5.18-1.88,5.18-3.65s-1.77-3.77-6-3.77c-3.3,0-5.53,0.59-7.77,1.53
		c-2.36,1.06-4.95,2.71-7.89,4.94c-4,3.18-7.06,6.12-10.13,8.83l-0.12-0.12c1.65-2.35,7.3-10.24,12.95-17.54
		c7.77-10.13,15.07-19.31,20.02-23.9c6.24-5.65,12.71-9.65,24.13-9.65c8.83,0,14.36,4.36,14.01,9.42c-0.12,1.53-0.59,2.35-0.35,2.47
		c0.35,0.12,0.94-0.94,1.18-2.47c0.94-6.48-3.53-13.19-13.42-13.19c-11.77,0-25.08,8.83-31.91,14.01
		c-8.24,6.48-15.42,13.66-19.31,18.01c-3.18,3.53-7.06,8.12-8.95,10.6c-2.8,2.46-5.48,4.71-7.46,6.44c-0.06,0.05-0.13,0.1-0.19,0.15
		c-1.3,1.18-4.36,4-7.65,6.12c-1.88,1.18-3.53,2-4.83,2.47c1.3-1.06,2.35-2.36,3.18-4.36c1.29-3.3,0.82-6.71-1.06-9.65
		c-0.82-1.18-1.18-2.59-0.24-3.53c0.82-0.71,1.77-1.06,2.83-1.77c3.18-2.24,2.47-3.53-0.24-3.53c-1.18,0-2.71,0.47-3.65,1.53
		c-0.94,1.06-1.65,2.36-1.88,2.83c-1.65,1.41-4.24,3.53-7.06,5.65c-1.88,1.41-3.65,2.71-5.3,3.77c-0.71,0.47-1.06,0.82-0.82,1.18
		c0.24,0.35,0.82,0,1.41-0.35c1.06-0.59,3.77-2.47,5.65-3.89c1.41-1.06,4.24-3.3,5.18-4.24l0.12,0.12c-1.3,1.88-2.94,8.6-5.53,12.72
		c-2.47,4-4.95,5.77-7.54,5.77c-1.41,0-2.94-0.71-3.06-2.59c0-1.41,0.71-2.47,1.88-3.41c1.3-1.06,1.77-1.88,1.77-2.94
		c0-1.41-1.18-2.71-3.77-2.71c-2.33,0-5.4,1.89-5.83,5.47c-0.18,0.15-0.36,0.29-0.52,0.42c-2.47,1.88-4.36,3.06-6.12,3.77
		c-0.59,0.24-1.41,0.35-2,0c-0.59-0.35-0.71-1.18-0.24-2.47c1.06-3.41,11.3-16.95,19.19-26.49c6.24-7.65,15.42-17.42,17.9-19.43
		c-0.35-0.71-1.77-1.3-3.77-1.3c-3.41,0-6.36,1.65-8.24,3.41c-4.12,3.89-8.83,8.83-12.83,13.54c-5.06,5.77-11.42,13.42-14.36,17.31
		c-2.94,2.59-5.77,4.94-7.77,6.71c-0.17,0.15-0.32,0.29-0.46,0.43c-1.52,1.35-4.3,3.57-6.37,4.99c-5.18,3.41-9.89,4.47-11.42,4.47
		h-0.12c-1.88,0-2.83-0.94-2.83-2.47c0-0.82,0.35-1.88,0.71-2.47c3.18-0.47,8.83-2,12.36-3.65c3.65-1.77,7.65-4.12,7.89-7.3
		c0.12-2-1.65-3.65-5.89-3.65c-5.3,0-12.01,2-17.31,5.53c-5.65,3.77-7.53,8.12-7.53,10.71c0,3.06,1.88,5.89,9.54,5.53
		c4.95-0.24,10.01-2,14.83-5.3c2.61-1.77,4.75-3.64,6.19-4.94c0.09-0.07,0.19-0.14,0.29-0.24c1.18-1.06,3.65-3.41,5.77-5.3
		l0.12,0.12c-2.94,3.3-6.71,8.36-6.71,11.89c0,2.12,1.29,4,5.42,4c4.95,0,9.3-2.59,12.95-5.3c0.41-0.3,0.87-0.64,1.35-1.02
		c0.44,3.38,4.09,6.08,9.96,6.08c3.65,0,8.36-0.71,11.54-1.65c3.06-0.94,5.65-1.88,8.71-4c2.13-1.45,4.26-3.27,5.81-4.65
		c0.07-0.05,0.13-0.11,0.2-0.17c0.07-0.06,0.14-0.12,0.21-0.19c0.42-0.38,0.79-0.72,1.08-0.99c0.04-0.04,0.07-0.07,0.1-0.11
		c1.26-1.17,2.9-2.7,4.37-4.01l0.12,0.12c-1.41,1.77-3.18,4.12-4,5.3c-2,2.83-4,5.89-4.94,7.89c-0.71,1.53-0.47,2.12,3.53,1.88
		c2.59-0.12,4.59-0.59,5.53-1.29c3.53-2.36,8.48-7.53,12.83-11.07c3.18-2.59,6-4.71,8.71-5.89c1.65-0.71,3.53-1.06,4.36-0.59
		c1.18,0.71,0.47,3.06-0.24,3.89c-0.94,1.06-1.77,1.41-3.06,1.65c-1.65,0.24-4.36,0.59-5.53,1.65c-0.94,0.82-2.36,3.18-2.59,6.36
		c-0.35,4,1.41,5.77,6.12,5.77c5.18,0,8.83-2.12,12.36-4.83c2.66-2.11,4.9-4.1,6.43-5.51c0.06-0.05,0.11-0.09,0.16-0.14
		c0.12-0.12,1.06-0.94,1.06-0.94l0.12,0.12c-2.59,2.71-3.77,5.06-3.77,7.06c0,3.41,2.82,4.59,7.06,4.59c6.24,0,12.01-4.59,15.07-7.3
		l0.12,0.12c-0.82,0.94-1.3,2.83-1.06,4.12c0.35,1.77,1.65,3.3,7.42,3.3c5.89,0,11.89-1.41,15.42-3.18
		c5.77-2.83,10.83-6.36,14.36-10.24c2.71-3.06,6.83-8.24,6.83-14.6C287.64,66.04,277.4,62.39,268.21,62.74z M109.97,89.7
		c3.41-3.77,5.65-4.94,6.95-4.94c1.06,0,1.41,0.71,1.18,1.77c-0.35,1.53-2.24,4.47-5.3,6.83c-3.18,2.35-6.24,3.41-8.24,3.65
		C105.73,94.76,107.26,92.64,109.97,89.7z M243.25,97.71c-3.18,2.94-7.65,5.53-9.89,5.53c-0.82,0-1.41-0.35-1.53-1.18
		c-0.12-1.53,2.12-4.95,6.47-9.3c4.36-4.24,8.83-7.77,11.07-7.77h0.12c1.3,0,2.24,0.59,2.12,2.12
		C251.49,88.99,246.9,94.41,243.25,97.71z"/>
	<path class="st0" d="M69.84,35.61c-1.46,2.21-2.16,4.42-2.12,6.62c0.09,2.43,1.02,4.13,2.78,5.1c1.9,1.06,4.41,0.91,7.55-0.46
		c2.34-1.02,4.15-2.34,5.43-3.97c0,0.09-0.02,0.33-0.07,0.73c-0.04,0.49-0.07,0.86-0.07,1.13c-0.04,0.49-0.04,0.88,0,1.19
		c0,0.49,0.09,0.84,0.27,1.06c0.22,0.31,0.66,0.55,1.33,0.73c0.44,0.09,0.99,0.16,1.66,0.2h2.78c0.44,0,0.66-0.22,0.66-0.66
		c0-0.44-0.22-0.66-0.66-0.66h-2.72c-0.57-0.04-1.06-0.11-1.46-0.2c-0.22-0.04-0.4-0.11-0.53-0.2v-0.33c-0.04-0.26-0.04-0.62,0-1.06
		c0-0.22,0.02-0.59,0.07-1.12c0.04-0.4,0.07-0.66,0.07-0.8c0-0.22,0.01-1.3,0.03-3.24c0.02-1.94,0.03-3.64,0.03-5.1
		c-0.04-1.37-0.13-2.8-0.27-4.3c-0.53-5.83-1.88-9.76-4.04-11.79c-1.32-1.28-3.27-1.7-5.83-1.26c-2.38,0.44-4.17,1.37-5.36,2.78
		c-0.66,0.8-0.99,1.97-0.99,3.51c-0.04,0.88,0.04,2.03,0.26,3.44c0.09,0.4,0.34,0.56,0.76,0.5c0.42-0.07,0.61-0.32,0.56-0.76
		c-0.22-1.33-0.31-2.38-0.26-3.18c0-1.24,0.24-2.14,0.73-2.71c0.97-1.15,2.47-1.9,4.5-2.25c2.12-0.35,3.69-0.06,4.7,0.86
		c1.85,1.77,3.05,5.12,3.58,10.07c-1.85,0.18-4.31,0.73-7.35,1.66C73.3,31.9,71.3,33.41,69.84,35.61z M83.35,30.78
		c0.18,2.3,0.22,5.43,0.13,9.41c-0.04,0.09-0.07,0.15-0.07,0.2c-0.88,2.21-2.85,3.97-5.89,5.3c-2.74,1.19-4.88,1.35-6.42,0.46
		c-1.28-0.71-1.96-2.01-2.05-3.91c-0.04-1.99,0.58-3.95,1.89-5.89c1.3-1.94,3.08-3.25,5.33-3.91
		C79.22,31.51,81.58,30.96,83.35,30.78z"/>
	<path class="st0" d="M90.5,18.99c2.03,0,4.94,0.16,8.74,0.46c-0.22,7.15-0.33,11.15-0.33,11.99c0,0.31-0.04,1.38-0.13,3.21
		c-0.09,1.83-0.11,3.31-0.07,4.44c0.04,1.12,0.15,2.24,0.33,3.34c0.27,1.28,0.83,2.53,1.69,3.74c0.86,1.21,1.84,2.11,2.95,2.68
		c1.28,0.71,2.47,0.82,3.58,0.33c1.19-0.49,2.08-1.63,2.65-3.44c0.18-0.4,0.05-0.67-0.36-0.83c-0.42-0.15-0.7-0.01-0.83,0.43
		c-0.49,1.41-1.15,2.3-1.99,2.65c-0.71,0.31-1.51,0.22-2.42-0.27c-0.91-0.49-1.74-1.26-2.52-2.32c-0.77-1.06-1.25-2.14-1.42-3.24
		c-0.13-0.84-0.24-1.72-0.33-2.65c-0.04-0.97-0.06-1.82-0.03-2.55c0.02-0.73,0.07-1.68,0.13-2.85c0.07-1.17,0.1-2.06,0.1-2.68
		c0-0.88,0.11-4.83,0.33-11.86c3.62,0.27,6.45,0.4,8.48,0.4c0.44,0,0.66-0.22,0.66-0.66c0-0.44-0.22-0.66-0.66-0.66
		c-2.03,0-4.83-0.15-8.41-0.46c0.09-3.62,0.13-6.73,0.13-9.34c0-0.44-0.22-0.66-0.66-0.66c-0.44,0-0.66,0.22-0.66,0.66
		c0,2.56-0.04,5.65-0.13,9.27c-3.8-0.31-6.73-0.46-8.81-0.46c-0.44,0-0.66,0.22-0.66,0.66C89.84,18.77,90.06,18.99,90.5,18.99z"/>
	<path class="st0" d="M113.55,30.38c0.04,0.04,0.11,0.07,0.2,0.07c-0.09,1.15-0.09,2.3,0,3.44c0.22,2.47,0.8,4.74,1.76,6.79
		c0.95,2.05,2.33,3.78,4.14,5.17c1.81,1.39,3.93,2.09,6.36,2.09c1.94,0,3.6-0.35,4.97-1.06c1.37-0.71,2.74-1.83,4.11-3.38
		c0.26-0.35,0.23-0.67-0.1-0.96c-0.33-0.29-0.65-0.28-0.96,0.03c-1.24,1.46-2.45,2.5-3.64,3.11c-1.19,0.62-2.65,0.93-4.37,0.93
		c-3.09,0-5.6-1.24-7.52-3.71c-1.92-2.47-3.06-5.52-3.41-9.14c-0.09-1.06-0.09-2.14,0-3.24c0.44,0.04,1.02,0.07,1.72,0.07
		c1.5,0.04,3.6,0.09,6.29,0.13c2.43,0.04,4.52,0.09,6.29,0.13h2.19h0.6h0.2h0.2c0.53-0.13,0.86-0.4,0.99-0.79
		c0.31-0.75,0.49-1.94,0.53-3.58c0-1.55-0.11-2.71-0.33-3.51c-0.62-1.9-2.21-3.53-4.77-4.9c-2.61-1.41-4.83-1.83-6.69-1.26
		c-2.43,0.79-4.35,2.31-5.76,4.54c-1.41,2.23-2.3,4.82-2.65,7.78c-0.4-0.04-0.64,0.11-0.73,0.46
		C112.98,29.98,113.11,30.25,113.55,30.38z M117.62,22.13c1.3-2.01,2.99-3.34,5.07-4.01c1.5-0.49,3.39-0.12,5.66,1.09
		c2.27,1.22,3.63,2.59,4.07,4.14c0.22,0.66,0.33,1.7,0.33,3.11c-0.04,1.41-0.18,2.43-0.4,3.05h-0.07h-0.13h-0.6h-2.12
		c-1.81-0.04-3.91-0.09-6.29-0.13c-2.87-0.04-4.99-0.09-6.36-0.13c-0.62,0-1.17-0.02-1.66-0.07
		C115.49,26.5,116.32,24.15,117.62,22.13z"/>
	<path class="st0" d="M137.43,46.04c-0.15,0.42-0.03,0.7,0.36,0.83c1.41,0.57,3.75,0.84,7.02,0.8c1.55-0.04,2.89-0.15,4.04-0.33
		c1.37-0.26,2.36-0.62,2.98-1.06c0.35-0.26,0.4-0.57,0.13-0.93c-0.26-0.35-0.57-0.4-0.93-0.13c-0.44,0.35-1.24,0.62-2.38,0.79
		c-0.88,0.13-1.88,0.24-2.98,0.33c0.04-0.13,0.07-0.24,0.07-0.33c-0.49-3.8-0.64-9.61-0.46-17.45c0.18-7.84,0.02-13.72-0.46-17.65
		c0-0.04-0.18-1.04-0.53-2.98c-0.22-1.24-0.35-2.21-0.4-2.91c-0.13-1.32-0.24-2.23-0.33-2.71c-0.18-0.88-0.46-1.5-0.86-1.85
		c-0.53-0.49-1.24-0.57-2.12-0.27c-0.71,0.31-1.66,0.93-2.85,1.85c-0.35,0.27-0.4,0.57-0.13,0.93c0.26,0.35,0.57,0.4,0.93,0.13
		c1.1-0.88,1.94-1.43,2.52-1.66c0.4-0.13,0.66-0.15,0.79-0.06c0.18,0.18,0.33,0.57,0.46,1.19l0.27,2.58
		c0.09,0.75,0.24,1.74,0.46,2.98c0.27,1.5,0.42,2.47,0.46,2.91c0.49,3.89,0.64,9.71,0.46,17.48c-0.18,7.9-0.02,13.78,0.46,17.62
		c0,0.09,0.02,0.15,0.07,0.2c-2.91,0-4.97-0.22-6.16-0.66C137.88,45.51,137.58,45.63,137.43,46.04z"/>
	<path class="st0" d="M161.63,6.27c0.35,0,0.66-0.13,0.93-0.4c0.26-0.26,0.4-0.57,0.4-0.93c0-0.35-0.13-0.66-0.4-0.93
		c-0.26-0.26-0.57-0.4-0.93-0.4c-0.35,0-0.66,0.13-0.93,0.4c-0.26,0.27-0.4,0.57-0.4,0.93c0,0.35,0.13,0.66,0.4,0.93
		C160.97,6.14,161.28,6.27,161.63,6.27z"/>
	<path class="st0" d="M154.88,19.85c0.79,0.4,2.08,0.42,3.84,0.07c0.88-0.18,1.41-0.29,1.59-0.33h0.53
		c0.04,0.18,0.07,0.42,0.07,0.73c0.09,0.62,0.18,1.55,0.27,2.78c0.13,2.03,0.26,4.92,0.4,8.68c0.09,1.63,0.18,3.68,0.26,6.13
		c0.09,2.45,0.17,4.43,0.23,5.93c0.07,1.5,0.12,2.52,0.17,3.05v0.13c-2.08,0.04-3.75-0.13-5.03-0.53c-0.44-0.09-0.72,0.08-0.83,0.5
		c-0.11,0.42,0.03,0.7,0.43,0.83c1.55,0.44,3.62,0.6,6.23,0.46c0.4,0,1.32-0.06,2.78-0.17c1.46-0.11,2.56-0.17,3.31-0.17
		c0.44,0,0.66-0.22,0.66-0.66c0-0.44-0.22-0.66-0.66-0.66c-0.18,0-2.03,0.11-5.56,0.33v-0.2c-0.04-0.49-0.1-1.48-0.17-2.98
		c-0.07-1.5-0.14-3.47-0.23-5.89c-0.09-2.43-0.18-4.48-0.26-6.16c-0.13-3.75-0.26-6.64-0.4-8.68c-0.09-1.24-0.18-2.21-0.26-2.91
		c-0.04-0.35-0.09-0.64-0.13-0.86c0-0.13-0.02-0.24-0.07-0.33c-0.04-0.18-0.13-0.31-0.26-0.4c-0.35-0.26-0.88-0.35-1.59-0.26
		c-0.27,0.04-0.84,0.15-1.72,0.33c-1.46,0.31-2.43,0.33-2.91,0.07c-0.4-0.22-0.71-0.13-0.93,0.27
		C154.39,19.32,154.48,19.63,154.88,19.85z"/>
	<path class="st0" d="M173.36,30.38c0.04,0.04,0.11,0.07,0.2,0.07c-0.09,1.15-0.09,2.3,0,3.44c0.22,2.47,0.8,4.74,1.76,6.79
		c0.95,2.05,2.33,3.78,4.14,5.17c1.81,1.39,3.93,2.09,6.36,2.09c1.94,0,3.6-0.35,4.97-1.06c1.37-0.71,2.74-1.83,4.11-3.38
		c0.26-0.35,0.23-0.67-0.1-0.96c-0.33-0.29-0.65-0.28-0.96,0.03c-1.24,1.46-2.45,2.5-3.64,3.11c-1.19,0.62-2.65,0.93-4.37,0.93
		c-3.09,0-5.6-1.24-7.52-3.71c-1.92-2.47-3.06-5.52-3.41-9.14c-0.09-1.06-0.09-2.14,0-3.24c0.44,0.04,1.01,0.07,1.72,0.07
		c1.5,0.04,3.6,0.09,6.29,0.13c2.43,0.04,4.52,0.09,6.29,0.13h2.18h0.6h0.2h0.2c0.53-0.13,0.86-0.4,0.99-0.79
		c0.31-0.75,0.49-1.94,0.53-3.58c0-1.55-0.11-2.71-0.33-3.51c-0.62-1.9-2.21-3.53-4.77-4.9c-2.61-1.41-4.83-1.83-6.69-1.26
		c-2.43,0.79-4.35,2.31-5.76,4.54c-1.41,2.23-2.3,4.82-2.65,7.78c-0.4-0.04-0.64,0.11-0.73,0.46
		C172.78,29.98,172.91,30.25,173.36,30.38z M177.43,22.13c1.3-2.01,2.99-3.34,5.07-4.01c1.5-0.49,3.39-0.12,5.66,1.09
		c2.27,1.22,3.63,2.59,4.07,4.14c0.22,0.66,0.33,1.7,0.33,3.11c-0.04,1.41-0.18,2.43-0.4,3.05h-0.07h-0.13h-0.6h-2.12
		c-1.81-0.04-3.91-0.09-6.29-0.13c-2.87-0.04-4.99-0.09-6.36-0.13c-0.62,0-1.17-0.02-1.65-0.07
		C175.3,26.5,176.12,24.15,177.43,22.13z"/>
	<path class="st0" d="M198.32,20.71l1.52-0.6c0.93-0.44,1.59-0.73,1.99-0.86c0.8-0.31,1.44-0.51,1.92-0.6
		c0.26-0.09,0.49-0.11,0.66-0.07v0.2c0.09,0.22,0.15,0.51,0.2,0.86c0.09,0.75,0.15,1.77,0.2,3.05c0.04,1.28,0.09,2.89,0.13,4.83
		v0.26v0.13c0.04,0.66,0.07,1.92,0.07,3.77c0.09,9.27,0.15,14.37,0.2,15.3c-0.22,0-1.14,0.02-2.75,0.07
		c-1.61,0.04-2.82,0.07-3.61,0.07c-0.44,0-0.66,0.22-0.66,0.66c0,0.44,0.22,0.66,0.66,0.66c0.88,0,2.38-0.03,4.5-0.1
		c2.12-0.07,3.95-0.08,5.5-0.03c1.55,0.04,3.02,0.15,4.44,0.33c0.44,0.04,0.68-0.16,0.73-0.6c0.04-0.44-0.15-0.68-0.59-0.73
		c-1.86-0.22-4.15-0.33-6.89-0.33c-0.04-0.88-0.11-5.98-0.2-15.3c0-2.08-0.02-3.44-0.07-4.11c0.13-0.93,0.84-2.05,2.12-3.38
		c1.37-1.46,2.98-2.67,4.83-3.64c1.9-1.02,3.42-1.43,4.57-1.26c0.53,0.09,0.93,0.33,1.19,0.73c0.35,0.44,0.53,1.13,0.53,2.05
		c0,0.44,0.22,0.66,0.66,0.66c0.44,0,0.66-0.22,0.66-0.66c0-1.19-0.24-2.14-0.73-2.85c-0.49-0.66-1.19-1.08-2.12-1.26
		c-1.46-0.22-3.27,0.24-5.43,1.39c-1.94,1.06-3.67,2.36-5.17,3.91c-0.44,0.49-0.84,0.95-1.19,1.39c0-0.75-0.02-1.44-0.06-2.05
		c-0.04-1.32-0.13-2.36-0.27-3.11c-0.04-0.44-0.09-0.79-0.13-1.06c-0.09-0.35-0.22-0.62-0.4-0.8c-0.35-0.4-0.97-0.51-1.85-0.33
		c-0.53,0.09-1.24,0.31-2.12,0.66c-0.4,0.18-1.08,0.47-2.05,0.86c-0.71,0.31-1.17,0.49-1.39,0.53c-0.4,0.13-0.54,0.41-0.43,0.83
		C197.61,20.63,197.88,20.8,198.32,20.71z"/>
	<path class="st0" d="M254.24,123.59c-6.14-2.91-14.46-4.33-24.97-4.33c-10.4,0-21.01,1.78-31.91,5.46
		c-1.88,0.64-3.77,1.27-5.65,1.91c-9.01,3.19-17.93,6.73-26.75,10.7c-0.5-0.14-0.99-0.35-1.5-0.5c-2.48-0.85-4.85-1.77-7.23-2.7
		c-0.79-0.35-1.68-0.71-2.48-1.06c-1.88-0.78-3.66-1.56-5.45-2.34c1.88-0.64,3.67-1.21,5.45-1.84c2.18-0.71,4.36-1.49,6.54-2.2
		c1.09-0.35,2.18-0.71,3.17-1.06c2.88-0.85,5.65-1.7,8.32-2.41c-2.68-0.21-5.44-0.57-8.32-1.21c-1.68-0.35-3.46-0.85-5.25-1.35
		c-1.59-0.5-3.07-0.99-4.46-1.49c-2.77-0.93-5.35-1.85-7.53-2.77c-0.4,0.21-0.89,0.42-1.28,0.57c-3.17,1.42-6.34,2.48-9.61,3.33
		c-1.09,0.28-2.19,0.5-3.37,0.71c-2.48,0.5-4.86,0.92-7.04,1.2c-2.08,0.29-3.86,0.5-5.55,0.57c1.79,0.28,3.57,0.63,5.55,1.21
		c1.78,0.49,3.66,1.13,5.65,1.91c1.48,0.64,3.08,1.28,4.76,1.99c2.57,1.07,5.25,2.27,8.02,3.62c-2.67,0.85-5.34,1.7-8.02,2.62
		c-2.78,0.85-5.45,1.77-8.03,2.62c-0.79-0.35-1.59-0.78-2.38-1.13c-4.56-2.27-9.11-4.4-13.87-6.52c-4.56-1.99-9.22-3.83-13.87-5.46
		c-1-0.36-1.98-0.71-2.98-1c-5.84-1.91-11.69-3.4-17.74-4.53c-5.95-1.14-11.99-1.7-18.13-1.7c-3.67,0-7.44,0.29-11.2,0.92
		c-3.77,0.65-7.23,1.63-10.31,2.91c-3.07,1.35-5.55,3.04-7.53,5.24c-1.88,2.13-2.87,4.61-2.87,7.52c0,3.4,1.49,6.37,4.36,9.07
		c2.87,2.62,6.64,4.75,11.2,6.45c4.56,1.7,9.61,2.98,15.06,3.9c5.46,0.85,10.71,1.27,15.76,1.27c3.57,0,7.23-0.28,11.2-1
		c3.96-0.7,7.23-1.62,9.91-2.75c0.3-0.36,0.4-0.64,0.1-0.85c-0.2-0.14-0.59-0.14-0.89,0.14c-2.48,1.14-5.45,1.98-9.02,2.55
		c-3.47,0.5-6.94,0.78-10.2,0.78c-4.76,0-9.72-0.42-14.77-1.27c-5.15-0.92-9.81-2.2-14.27-3.9c-4.36-1.7-7.93-3.77-10.8-6.17
		c-2.78-2.48-4.17-5.25-4.17-8.22c0-2.91,0.89-5.32,2.78-7.24c1.79-1.98,4.16-3.55,7.04-4.68c2.98-1.14,6.04-1.91,9.21-2.34
		c3.27-0.42,6.44-0.63,9.42-0.63c11.1,0,22,1.98,32.8,6.02c1.98,0.78,4.06,1.56,6.05,2.34c8.62,3.47,17.14,7.3,25.56,11.62
		c-2.57,0.72-5.16,1.49-7.73,2.13c-2.57,0.71-5.25,1.27-8.03,1.63c-3.37-1.55-6.74-2.91-9.8-4.04c-1.09-0.35-2.18-0.71-3.27-1.06
		c-4.26-1.27-8.13-1.91-11.59-1.91c-1.98,0-3.97,0.28-6.24,0.85c-2.18,0.57-3.27,1.42-3.27,2.55c0,1.13,0.7,2.06,1.98,2.77
		c1.29,0.7,2.97,1.21,4.86,1.63c1.98,0.35,4.06,0.63,6.34,0.78c2.28,0.21,4.36,0.28,6.34,0.28c1.58,0,3.27,0,4.86-0.08
		c1.88-0.06,3.86-0.28,5.84-0.42c3.37,1.7,6.83,3.61,10.4,5.74c3.56,2.05,7.43,4.17,11.5,6.31c-2.87,1.13-5.55,2.19-8.03,3.19
		c-2.57,1-5.05,1.84-7.53,2.41c-2.68-0.56-5.26-1.13-7.83-1.56c-1.48-0.28-2.98-0.42-4.36-0.57c-1-0.07-1.98-0.07-2.98-0.07
		c-1.98,0-3.86,0.28-5.75,0.85c-1.79,0.57-2.78,1.34-2.78,2.34s1.09,1.7,3.07,2.06c1.99,0.35,3.97,0.57,5.95,0.57
		c0.8,0,1.59,0,2.48-0.07c1.09-0.14,2.38-0.28,3.76-0.49c2.28-0.36,4.66-0.85,7.04-1.49c3.17,1.13,6.54,2.48,9.91,4.03
		c2.37,1.06,4.65,2.27,7.03,3.61c0.99,0.64,2.08,1.28,3.17,1.91c-1.09,0.5-2.19,1-3.17,1.42c-3.47,1.49-6.74,2.76-9.91,3.68
		c-4.16,1.27-7.92,1.91-11.49,1.91c-1.19,0-2.47-0.07-3.66-0.14c-0.99,0-1.89-0.14-2.68-0.29c-0.2-0.07-0.4-0.07-0.7-0.14
		c-0.3-0.29-0.6-0.35-0.89-0.21c-0.2,0.14-0.2,0.35,0.1,0.57c0.49,0.21,0.99,0.35,1.49,0.49c2.28,0.71,4.56,1,6.93,1
		c3.47,0,7.43-0.71,11.8-2.13c2.98-0.99,5.95-2.05,9.02-3.33c1.48-0.64,3.07-1.35,4.76-2.05c1.88,1.28,3.77,2.56,5.65,3.83
		c2.87,2.05,5.55,4.11,8.02,6.17c-2.67,2.62-4.75,5.38-6.34,8.22c-0.8,1.35-1.29,2.62-1.68,4.04c-0.51,1.49-0.7,2.97-0.7,4.54
		c0,1.7,0.19,3.26,0.7,4.75c0.49,1.7,1.28,3.26,2.47,4.68c1.78,2.12,4.16,3.33,7.14,3.68c0.49,0,0.99,0.07,1.59,0.07
		c2.97,0,5.34-0.57,7.23-1.78c0.7-0.42,1.29-0.92,1.79-1.56c2.08-2.19,3.08-4.89,3.08-8.15c0-3.19-1.09-6.45-3.18-9.92
		c-0.5-0.85-1.09-1.7-1.69-2.55c-1.88-2.55-4.26-5.1-7.03-7.52c1.98-1.56,3.86-2.98,5.74-4.32c0.4-0.35,0.79-0.64,1.29-0.99
		c1.5-1.06,3.07-2.12,4.87-3.19c1.68,0.71,3.27,1.35,4.85,1.99c3.96,1.49,7.93,2.7,11.8,3.69c5.45,1.35,10.6,1.91,15.56,1.7
		c0.79-0.28,0.79-0.49,0-0.78c-4.66-0.14-9.32-0.92-14.17-2.41c-4.26-1.35-8.62-3.05-13.19-5.1c-0.49-0.21-1.09-0.5-1.68-0.78
		c0.59-0.28,1.19-0.57,1.68-0.78c5.27-2.41,10.52-4.39,15.76-6.03c2.38,0.64,4.76,1.14,6.94,1.42c1.89,0.29,3.77,0.42,5.55,0.5h0.9
		c2.08,0,4.36-0.21,6.83-0.63c2.48-0.5,3.77-1.28,3.77-2.41c0-1.7-2.38-2.62-7.14-2.62c-1.49,0-2.87,0.07-4.36,0.21
		c-1.09,0.14-2.18,0.28-3.26,0.42c-2.68,0.5-5.35,0.99-8.23,1.63c-5.15-1.56-10.71-3.9-16.76-7.01c-0.29-0.21-0.6-0.36-0.89-0.5
		c0.29-0.14,0.6-0.35,0.89-0.5c3.17-1.56,6.35-3.19,9.42-4.68c3.27-1.71,6.54-3.4,9.71-5.03c1.99,0.35,3.96,0.64,6.05,0.77
		c1.1,0.07,2.08,0.07,3.07,0.15h2.98c2.87,0,5.64-0.08,8.32-0.35c2.77-0.22,5.14-0.64,7.23-1.21c2.19-0.57,3.87-1.27,5.16-2.05
		c1.29-0.86,1.98-1.84,1.98-2.98c0-1.13-0.5-1.98-1.59-2.55c-0.99-0.57-2.87-0.85-5.55-0.85c-3.66,0-7.63,0.63-11.99,1.84
		c-2.18,0.57-4.36,1.28-6.54,2.13c-2.18,0.85-4.46,1.77-6.74,2.84c-3.37-0.65-6.54-1.35-9.61-2.13c-3.07-0.84-6.15-1.77-9.12-2.76
		c8.52-3.83,16.94-7.23,25.46-10.28c1.49-0.56,3.07-1.06,4.56-1.56c10.01-3.4,19.83-5.1,29.34-5.1c4.17,0,8.32,0.21,12.39,0.71
		c3.97,0.5,7.73,1.35,11,2.41c3.37,1.07,6.04,2.41,8.03,4.05c2.08,1.63,3.07,3.61,3.07,6.02c0,3.26-1.18,6.1-3.57,8.58
		c-2.37,2.41-5.44,4.47-9.31,6.09c-3.86,1.64-8.33,2.91-13.18,3.76c-4.96,0.93-9.91,1.35-14.77,1.35c-2.98,0-6.35-0.14-10.01-0.49
		c-3.77-0.29-8.03-1.21-12.99-2.7c-0.29-0.14-0.59-0.14-0.79,0c-0.1,0.14,0,0.28,0.3,0.57c3.66,1.13,7.73,2.05,11.99,2.69
		c4.26,0.72,8.52,1.06,12.48,1.06c5.85,0,11.29-0.43,16.54-1.35c5.16-0.85,9.72-2.13,13.68-3.83c3.96-1.69,7.14-3.89,9.51-6.51
		c2.38-2.62,3.57-5.74,3.57-9.22C263.55,129.96,260.38,126.49,254.24,123.59z M97.16,143.01c-1.79,0.15-3.57,0.22-5.36,0.22
		c-1.98,0-3.96-0.14-5.94-0.29c-2.08-0.21-3.97-0.5-5.65-0.84c-1.78-0.42-3.17-0.92-4.26-1.56c-1.09-0.64-1.59-1.35-1.59-2.27
		c0-0.71,0.89-1.27,2.68-1.56c1.68-0.35,3.46-0.5,5.25-0.5c2.48,0,5.25,0.57,8.52,1.7c1.98,0.71,4.06,1.56,6.34,2.55
		c1.38,0.63,2.97,1.35,4.56,2.2C100.23,142.8,98.65,142.94,97.16,143.01z M97.16,163.21c-1.09,0.07-2.08,0.14-2.98,0.14
		c-1.48,0-2.77-0.07-3.96-0.28c-1.29-0.21-1.88-0.57-1.88-1.21c0-0.5,0.7-1,2.08-1.35c1.39-0.35,2.98-0.57,4.56-0.57
		c0.69,0,1.39,0.07,2.18,0.07c2.68,0.28,5.55,0.84,8.72,1.84C102.61,162.57,99.73,163,97.16,163.21z M191.7,161.86
		c1.29-0.14,2.58-0.21,3.77-0.21c2.28,0,3.87,0.21,4.56,0.56c0.7,0.35,0.99,0.71,0.99,0.92c0,0.64-0.79,1.13-2.38,1.56
		c-1.59,0.35-3.27,0.57-5.26,0.57c-0.49,0-1.09-0.08-1.68-0.08c-2.77-0.14-5.84-0.7-9.41-1.63
		C185.56,162.65,188.63,162.08,191.7,161.86z M191.7,141.38c2.58-1,4.96-1.84,7.34-2.55c3.77-1.14,7.33-1.71,10.7-1.71
		c1.79,0,3.27,0.28,4.46,0.71c1.29,0.43,1.88,1.06,1.88,1.99c0,0.71-0.59,1.42-1.88,1.98c-1.19,0.57-2.68,0.99-4.46,1.27
		c-1.79,0.35-3.47,0.56-5.25,0.64c-1.79,0.14-3.17,0.21-4.26,0.21c-2.28,0-4.46-0.07-6.74-0.21c-0.6,0-1.19-0.08-1.79-0.08
		c-1.58-0.14-3.07-0.28-4.65-0.42C188.63,142.52,190.22,141.95,191.7,141.38z M137.49,125.93c-0.69-0.35-1.49-0.63-2.17-0.92
		c-2.19-0.99-4.36-1.77-6.44-2.55c2.17-0.43,4.36-0.85,6.44-1.35c3.17-0.78,6.24-1.78,9.01-2.84c0.2,0.07,0.4,0.14,0.6,0.22
		c2.77,1.13,5.75,2.12,8.81,3.05c0.21,0.07,0.4,0.07,0.7,0.14c3.17,0.92,6.24,1.91,9.02,2.83c0.31,0.07,0.51,0.14,0.7,0.21
		c-0.2,0.07-0.5,0.07-0.7,0.14c-2.77,0.7-5.45,1.48-8.02,2.26c-0.59,0.22-1.09,0.42-1.69,0.57c-2.28,0.71-4.65,1.49-7.03,2.26
		c-0.59-0.21-1.19-0.49-1.79-0.77C142.35,128.05,139.97,126.99,137.49,125.93z M135.32,135.43c0.49-0.14,0.99-0.35,1.58-0.57
		c2.48-0.85,5.16-1.77,7.74-2.76c0.1,0,0.19,0.07,0.3,0.07c2.57,1.2,5.15,2.41,7.73,3.47c0.4,0.14,0.7,0.28,1.09,0.42
		c2.38,0.99,4.76,1.99,7.23,2.98c-2.48,1.21-4.85,2.34-7.23,3.4c-0.2,0.14-0.38,0.22-0.49,0.29c-2.57,1.2-5.15,2.41-7.83,3.68
		c-0.19-0.15-0.3-0.22-0.49-0.28c-2.68-1.42-5.25-2.84-7.83-4.26c-0.59-0.35-1.18-0.7-1.78-0.99c-2.19-1.14-4.27-2.27-6.44-3.33
		C131.05,136.84,133.24,136.13,135.32,135.43z M150.88,152.72c0.89,0.51,1.88,1.07,2.87,1.57c1.39,0.71,2.87,1.42,4.36,2.12
		c-1.48,0.78-2.97,1.56-4.36,2.34c-0.58,0.35-1.29,0.71-1.88,1.06c-1.98,1.06-3.96,2.2-5.94,3.33c-0.31-0.14-0.69-0.35-0.99-0.57
		c-2.28-1.34-4.56-2.62-6.74-3.89c-0.99-0.57-1.88-1.14-2.87-1.7c-1.68-0.92-3.27-1.77-4.87-2.69c1.59-0.71,3.18-1.49,4.87-2.13
		c0.49-0.21,0.99-0.42,1.58-0.64c2.19-0.92,4.36-1.84,6.44-2.83c0.5,0.28,1.1,0.56,1.59,0.78
		C147.01,150.59,148.99,151.66,150.88,152.72z M118.67,147.69c-3.57-1.85-7.14-3.62-10.71-5.25c2.88-0.35,5.55-0.92,8.23-1.62
		c2.68-0.64,5.35-1.42,8.12-2.13c0.2,0.08,0.4,0.15,0.59,0.21c2.78,1.49,5.54,2.91,8.22,4.47c0.8,0.42,1.49,0.78,2.19,1.21
		c2.17,1.21,4.25,2.41,6.44,3.54c-2.08,1-4.26,1.92-6.35,2.84h-0.09c-2.08,0.85-4.07,1.76-5.95,2.62c-1.48-0.85-2.97-1.7-4.46-2.55
		C122.83,149.88,120.75,148.82,118.67,147.69z M124.91,166.82c-1.09-0.49-2.18-0.99-3.18-1.49c-3.37-1.56-6.74-2.83-10.3-3.89
		c4.16-1.21,8.62-2.83,13.47-4.75c0.4-0.14,0.89-0.28,1.29-0.49c2.68,1.42,5.25,2.83,7.93,4.32c0.39,0.21,0.79,0.49,1.19,0.71
		c2.28,1.27,4.56,2.55,6.93,3.82c-1.79,0.99-3.47,1.91-5.25,2.84c-0.6,0.28-1.19,0.57-1.68,0.85c-1.19,0.57-2.38,1.07-3.57,1.56
		C129.46,169.1,127.19,167.96,124.91,166.82z M152.86,193.55c0.3,0.42,0.59,0.92,0.89,1.35c1.69,2.77,2.48,5.39,2.48,7.87
		c0,2.62-0.79,4.89-2.48,6.66c-1.69,1.84-3.86,2.77-6.43,2.77c-0.9,0-1.7-0.08-2.39-0.29c-2.08-0.43-3.87-1.35-5.55-2.91
		c-2.28-2.2-3.46-5.17-3.46-9.08c0-2.91,0.78-5.67,2.28-8.36c1.49-2.69,3.47-5.31,5.94-7.86c0.3,0.28,0.5,0.49,0.8,0.78
		C148.1,187.45,150.68,190.5,152.86,193.55z M153.74,174.55c-0.89,0.57-1.78,1.14-2.67,1.7c-1.98,1.35-3.76,2.76-5.35,4.25
		c-0.3-0.21-0.6-0.49-0.79-0.71c-1.68-1.49-3.37-2.91-5.16-4.25c-1.38-1.14-2.87-2.12-4.45-3.12c-0.8-0.5-1.5-0.92-2.28-1.35
		c0.78-0.35,1.48-0.71,2.28-1.14c0.99-0.5,1.98-0.99,2.97-1.49c1.79-0.93,3.67-1.84,5.55-2.84c0.4,0.22,0.69,0.36,1.09,0.57
		c1.88,1.06,3.76,1.99,5.65,2.91c1.1,0.49,2.08,0.99,3.17,1.49c1.19,0.56,2.38,1.13,3.58,1.63
		C156.13,172.99,154.93,173.77,153.74,174.55z M163.46,158.89c1.69,0.71,3.27,1.35,4.87,1.91c3.06,1.06,5.94,1.98,8.72,2.76
		c-4.56,1.49-9.12,3.33-13.58,5.46c-0.99,0.5-1.97,1-2.97,1.49c-2.18-0.99-4.26-2.05-6.44-3.19c-0.1-0.07-0.2-0.07-0.3-0.14
		c-2.07-1.07-4.26-2.27-6.43-3.47c1.87-0.99,3.96-2.05,6.04-3.26c0.09-0.07,0.29-0.14,0.38-0.21c1.99-1.14,3.86-2.2,5.66-3.26
		C160.79,157.62,162.17,158.25,163.46,158.89z M180.5,144.71c-5.45,2.54-11.09,5.39-17.05,8.57c-0.78,0.5-1.68,0.92-2.48,1.42
		c-2.28-1.28-4.65-2.56-7.13-3.76c0-0.07-0.1-0.07-0.1-0.07c-2.47-1.28-4.85-2.55-7.23-3.89c2.37-1.07,4.76-2.13,7.23-3.26
		c0.21-0.14,0.4-0.21,0.7-0.35c2.57-1.27,5.36-2.48,8.13-3.76c0.29,0.14,0.6,0.22,0.89,0.35
		C168.72,141.81,174.36,143.37,180.5,144.71z"/>
</g>
</svg>
