<svg id="Layer_1" data-name="Layer 1" xmlns="http://www.w3.org/2000/svg" viewBox="0 0 611.18 451.5"><title>delska-logo</title><path d="M113.87,224.39c25,0,68.71,1,85.95-30.73,9.49-18.24.75-43-19-58.22A79.27,79.27,0,0,1,196.07,127c7.24-3,15.49-5.25,23.48-5.25,6,0,10.25,1.25,12.5,2.5,2.75,1.5,2.75,3,3.25,2.75s0-2.25-2-3.75c-2.25-1.75-6.75-4-14.74-4a80.11,80.11,0,0,0-26,4.5,93.79,93.79,0,0,0-17,7.75c-13-8-29.48-15.5-59.21-15.5-43.73,0-89.7,23.74-89.45,53.72.25,15.24,17.74,23.49,34.48,24,14.74.75,31.73-3.5,40.73-10.75,10-8,15-19.23,14-29a15.59,15.59,0,0,0-15.24-14.24c-9.25-.5-15.49,5-18,7.5-3.25,3.24-4.5,6.24-4,6.49.75.25,1.25-1.75,4.75-4.74,4-3.5,9.49-6.75,16-6.5a11.15,11.15,0,0,1,11,11.24v.25c0,7-5.25,16.24-13.49,24-8.75,8.24-21.74,14.24-35.48,13.49-12-.75-19-7-18.74-20,.25-28,34-53,73.46-53,29,0,45.22,7.75,56.21,15-11,6.5-31.73,21.24-48,41.23-15,18.49-27,38-48,43.72-13-2-27-3.49-35-3.49-21.23-.5-34.73,0-35.23,5-.75,4.75,17,4,39.48,4,7,0,25-1,29.48-2C82.14,222.64,100.63,224.39,113.87,224.39Zm32.73-45.72c11.74-13.74,20.74-29.73,31.73-40.73,10,12.49,10,33.48-.75,50.22-15,23.74-42.22,33.73-67.46,33.73a226.08,226.08,0,0,1-28.23-2.75C104.87,212.65,127.36,202.65,146.6,178.67Z" transform="translate(-6.41 -0.55)" fill="#875522"/><path d="M576.36,133.69a29.91,29.91,0,0,0-11.49,2.75c-1.5.75-2.25,1.5-2,2,.5.5,1.5,0,2.75-.5a26.86,26.86,0,0,1,10.5-2c16.23,0,31.48,8.25,31.48,30a46.1,46.1,0,0,1-9.75,28.23c-6.24,8-16.49,17.24-26,21.74-7.25,3.49-15.24,6.24-24,6.24-2,0-4-.5-4.74-1.75-.76-1-.76-3.25,1-6.24,1.5-2.5,5.75-9,10-14.5,5-6.74,8-10.49,13-16.49,2.5-3,1.25-4-6.75-4-9.74,0-10.24,0-16.73,6.74.24-3.5-1.26-8-9.5-8-9,0-18.24,2.75-24.24,5.24a99.05,99.05,0,0,0-17.74,9.5,71.49,71.49,0,0,0-7.15,5.42l-.09.08-.26.23c-.72.63-1.46,1.29-2.24,2l0,0c-2.7,2.41-6.06,5.29-10,8.46a63.39,63.39,0,0,1-9.49,6.49c-2.25,1.26-4.75,2.25-6.5,2-2.5-.49-3.75-2.74-4.25-9.24-.24-4.25,0-9.25,1.5-11,1.75-2,6.5-2.75,11.25-3.5,7-1.25,11-4,11-7.75s-3.75-8-12.74-8a39.47,39.47,0,0,0-16.49,3.25A88.14,88.14,0,0,0,430,191.66c-8.5,6.75-15,13-21.49,18.74l-.25-.25c3.5-5,15.49-21.74,27.48-37.23,16.49-21.49,32-41,42.48-50.72,13.24-12,27-20.49,51.22-20.49,18.74,0,30.48,9.25,29.73,20-.25,3.25-1.25,5-.75,5.25.75.25,2-2,2.5-5.25,2-13.74-7.5-28-28.48-28-25,0-53.22,18.74-67.71,29.73a341.29,341.29,0,0,0-41,38.23c-6.75,7.49-15,17.24-19,22.49-5.94,5.22-11.64,10-15.83,13.66l-.41.33a130.22,130.22,0,0,1-16.24,13A58.11,58.11,0,0,1,362,216.4a22.33,22.33,0,0,0,4.49-29.74c-1.75-2.49-2.5-5.49-.5-7.49,1.75-1.5,3.75-2.25,6-3.75,6.74-4.75,5.25-7.5-.5-7.5a10.79,10.79,0,0,0-7.75,3.25,30.47,30.47,0,0,0-4,6c-3.5,3-9,7.49-15,12-4,3-7.75,5.75-11.25,8-1.5,1-2.25,1.74-1.75,2.49s1.75,0,3-.75c2.25-1.24,8-5.24,12-8.24,3-2.25,9-7,11-9l.25.25c-2.75,4-6.25,18.24-11.75,27-5.24,8.49-10.49,12.24-16,12.24-3,0-6.24-1.5-6.49-5.5,0-3,1.5-5.24,4-7.24,2.74-2.25,3.74-4,3.74-6.25,0-3-2.49-5.74-8-5.74A13,13,0,0,0,311.13,208c-.39.32-.77.62-1.12.89-5.24,4-9.24,6.49-13,8a5.13,5.13,0,0,1-4.25,0c-1.25-.75-1.49-2.5-.5-5.25,2.25-7.25,24-36,40.73-56.22,13.24-16.24,32.73-37,38-41.22-.75-1.5-3.75-2.75-8-2.75a26.23,26.23,0,0,0-17.49,7.24,377.32,377.32,0,0,0-27.23,28.74c-10.74,12.24-24.24,28.48-30.48,36.73-6.25,5.49-12.25,10.49-16.49,14.24-.36.31-.68.61-1,.9a160.4,160.4,0,0,1-13.51,10.59c-11,7.24-21,9.49-24.23,9.49h-.25c-4,0-6-2-6-5.24a11.72,11.72,0,0,1,1.5-5.25A114.21,114.21,0,0,0,254,201.15c7.75-3.74,16.24-8.74,16.75-15.49.25-4.24-3.5-7.74-12.5-7.74-11.24,0-25.48,4.25-36.73,11.74-12,8-16,17.24-16,22.74,0,6.49,4,12.49,20.24,11.74,10.5-.5,21.24-4.25,31.48-11.24a120.61,120.61,0,0,0,13.14-10.49,4.45,4.45,0,0,0,.61-.51c2.5-2.25,7.74-7.24,12.24-11.24l.25.25c-6.25,7-14.24,17.74-14.24,25.24,0,4.49,2.75,8.49,11.49,8.49,10.5,0,19.74-5.5,27.48-11.24.87-.63,1.84-1.37,2.86-2.17.93,7.17,8.69,12.91,21.13,12.91a96.52,96.52,0,0,0,24.49-3.5c6.49-2,12-4,18.49-8.49a125.92,125.92,0,0,0,12.33-9.88,3.51,3.51,0,0,0,.41-.37l.45-.4c.89-.8,1.67-1.52,2.3-2.1l.22-.23c2.68-2.48,6.16-5.74,9.28-8.51l.24.25c-3,3.75-6.74,8.74-8.49,11.24-4.25,6-8.49,12.5-10.49,16.74-1.5,3.25-1,4.5,7.49,4,5.5-.25,9.75-1.25,11.75-2.75,7.49-5,18-16,27.23-23.48,6.75-5.5,12.74-10,18.49-12.49,3.5-1.51,7.49-2.25,9.24-1.26,2.5,1.5,1,6.5-.5,8.25a9.91,9.91,0,0,1-6.49,3.5c-3.5.5-9.25,1.25-11.75,3.5-2,1.75-5,6.74-5.49,13.49-.75,8.49,3,12.24,13,12.24,11,0,18.74-4.5,26.24-10.24,5.65-4.48,10.39-8.71,13.64-11.7l.35-.3c.25-.25,2.25-2,2.25-2l.25.26c-5.5,5.74-8,10.74-8,15,0,7.24,6,9.74,15,9.74,13.25,0,25.49-9.74,32-15.49l.25.25a12,12,0,0,0-2.25,8.74c.76,3.75,3.5,7,15.75,7,12.49,0,25.23-3,32.73-6.75,12.24-6,23-13.49,30.48-21.73,5.74-6.5,14.49-17.49,14.49-31C617.59,140.69,595.85,133,576.36,133.69ZM240.55,190.91c7.25-8,12-10.49,14.74-10.49,2.25,0,3,1.5,2.5,3.75-.75,3.24-4.74,9.49-11.24,14.49-6.75,5-13.24,7.24-17.49,7.74C231.56,201.65,234.81,197.16,240.55,190.91Zm282.85,17c-6.75,6.25-16.24,11.74-21,11.74-1.75,0-3-.75-3.25-2.5-.25-3.24,4.5-10.49,13.74-19.73,9.25-9,18.74-16.49,23.49-16.49h.25c2.75,0,4.75,1.25,4.49,4.49C540.89,189.41,531.14,200.9,523.4,207.9Z" transform="translate(-6.41 -0.55)" fill="#875522"/><path d="M155.39,76.13a24.35,24.35,0,0,0-4.5,14.06q.27,7.73,5.9,10.82,6,3.38,16-1a28.78,28.78,0,0,0,11.53-8.43c0,.19-.05.71-.14,1.55-.1,1-.14,1.83-.14,2.39a10.58,10.58,0,0,0,0,2.53,3.58,3.58,0,0,0,.56,2.25,4.92,4.92,0,0,0,2.81,1.54,26.63,26.63,0,0,0,3.51.42h5.91a1.41,1.41,0,0,0,0-2.81h-5.77A21.84,21.84,0,0,1,188,99a3,3,0,0,1-1.12-.42v-.7a8.35,8.35,0,0,1,0-2.25c0-.47,0-1.27.14-2.39.09-.84.14-1.41.14-1.69,0-.46,0-2.76.07-6.88s.07-7.74.07-10.83c-.1-2.9-.28-5.95-.56-9.13q-1.69-18.55-8.58-25-4.22-4.08-12.37-2.67-7.59,1.41-11.38,5.9-2.11,2.53-2.11,7.45a37.45,37.45,0,0,0,.56,7.31,1.27,1.27,0,0,0,1.62,1.06,1.31,1.31,0,0,0,1.2-1.62,31.89,31.89,0,0,1-.57-6.75q0-3.93,1.55-5.76,3.09-3.66,9.56-4.78,6.73-1.12,10,1.83,5.9,5.63,7.59,21.36a82.9,82.9,0,0,0-15.61,3.52A23,23,0,0,0,155.39,76.13Zm28.67-10.26q.56,7.3.28,20a1,1,0,0,0-.14.42q-2.82,7-12.51,11.25c-5.81,2.52-10.36,2.86-13.64,1-2.71-1.5-4.17-4.26-4.35-8.29a21.35,21.35,0,0,1,4-12.51A20,20,0,0,1,169,69.39,80.33,80.33,0,0,1,184.06,65.87Z" transform="translate(-6.41 -0.55)" fill="#875522"/><path d="M199.24,40.85q6.47,0,18.55,1-.71,22.77-.7,25.44c0,.65-.1,2.93-.28,6.81s-.24,7-.15,9.42a59.9,59.9,0,0,0,.71,7.1A21,21,0,0,0,221,98.55a17.87,17.87,0,0,0,6.25,5.69c2.72,1.5,5.25,1.74,7.6.7q3.8-1.55,5.62-7.31a1.16,1.16,0,0,0-.78-1.75,1.19,1.19,0,0,0-1.75.91c-1,3-2.44,4.87-4.22,5.63a5.74,5.74,0,0,1-5.13-.57,16.31,16.31,0,0,1-5.34-4.92,15.89,15.89,0,0,1-3-6.88q-.42-2.67-.71-5.63c-.09-2.06-.11-3.86-.06-5.41s.14-3.56.28-6,.21-4.38.21-5.69q0-2.81.7-25.16,11.52.84,18,.84a1.41,1.41,0,1,0,0-2.81q-6.47,0-17.85-1,.28-11.54.28-19.82a1.41,1.41,0,0,0-2.81,0q0,8.15-.28,19.68-12.09-1-18.69-1a1.41,1.41,0,1,0,0,2.81Z" transform="translate(-6.41 -0.55)" fill="#875522"/><path d="M248.15,65a.57.57,0,0,0,.42.14,47,47,0,0,0,0,7.31,43.32,43.32,0,0,0,3.72,14.4,29,29,0,0,0,8.79,11,21.51,21.51,0,0,0,13.49,4.42A22.61,22.61,0,0,0,285.11,100a30.76,30.76,0,0,0,8.72-7.16,1.5,1.5,0,0,0-2.25-2,26.8,26.8,0,0,1-7.73,6.61,20,20,0,0,1-9.28,2,19.25,19.25,0,0,1-15.95-7.87q-6.12-7.87-7.24-19.39a41.71,41.71,0,0,1,0-6.89,36.31,36.31,0,0,0,3.65.14q4.79.14,13.36.28,7.73.13,13.35.28h6.75a2.67,2.67,0,0,0,2.1-1.68,23.18,23.18,0,0,0,1.13-7.59,30.09,30.09,0,0,0-.7-7.45q-2-6-10.12-10.41-8.29-4.49-14.2-2.66a22.35,22.35,0,0,0-12.23,9.62,39.06,39.06,0,0,0-5.62,16.52,1.25,1.25,0,0,0-1.55,1C246.93,64.19,247.21,64.75,248.15,65Zm8.64-17.5A19.8,19.8,0,0,1,267.54,39q4.79-1.55,12,2.31t8.64,8.79a22.51,22.51,0,0,1,.71,6.61,23.37,23.37,0,0,1-.85,6.46h-6.18q-5.76-.14-13.35-.28-9.13-.14-13.5-.28c-1.31,0-2.48,0-3.51-.14A35.67,35.67,0,0,1,256.79,47.53Z" transform="translate(-6.41 -0.55)" fill="#875522"/><path d="M298.81,98.27c-.32.89-.07,1.47.78,1.75q4.5,1.83,14.9,1.69a68.67,68.67,0,0,0,8.57-.7,16.61,16.61,0,0,0,6.32-2.25,1.4,1.4,0,1,0-1.68-2.25,11.31,11.31,0,0,1-5.06,1.69c-1.88.28-4,.51-6.33.7a2.1,2.1,0,0,0,.14-.7q-1.54-12.09-1-37t-1-37.45c0-.1-.38-2.2-1.13-6.33a56.37,56.37,0,0,1-.84-6.18c-.28-2.81-.52-4.74-.7-5.76A7.07,7.07,0,0,0,310,1.5Q308.3,0,305.49.94a31,31,0,0,0-6,3.93,1.25,1.25,0,0,0-.28,2,1.24,1.24,0,0,0,2,.28,23.9,23.9,0,0,1,5.35-3.51c.84-.28,1.4-.33,1.68-.14a5.5,5.5,0,0,1,1,2.53l.56,5.48q.27,2.38,1,6.32.84,4.78,1,6.19,1.56,12.36,1,37.1-.57,25.17,1,37.39a.57.57,0,0,0,.14.42q-9.27,0-13.07-1.4A1.26,1.26,0,0,0,298.81,98.27Z" transform="translate(-6.41 -0.55)" fill="#875522"/><path d="M350.19,13.87a2.67,2.67,0,0,0,2-.85,2.7,2.7,0,0,0,0-3.93,2.81,2.81,0,0,0-4.77,2,2.68,2.68,0,0,0,.84,2A2.66,2.66,0,0,0,350.19,13.87Z" transform="translate(-6.41 -0.55)" fill="#875522"/><path d="M335.85,42.68c1.69.84,4.4.89,8.15.14,1.87-.37,3-.61,3.38-.7h1.12a6.87,6.87,0,0,1,.14,1.55c.19,1.31.37,3.27.56,5.9q.42,6.47.85,18.41.27,5.2.56,13t.49,12.58q.21,4.78.35,6.46v.29a34.69,34.69,0,0,1-10.68-1.13,1.34,1.34,0,0,0-1.76,1,1.29,1.29,0,0,0,.92,1.76q4.9,1.41,13.21,1,1.26,0,5.9-.36t7-.35a1.41,1.41,0,0,0,0-2.81q-.57,0-11.81.71v-.43q-.13-1.55-.35-6.32c-.14-3.19-.3-7.35-.49-12.51s-.38-9.51-.56-13.07q-.42-11.94-.85-18.41c-.19-2.63-.37-4.69-.56-6.19-.09-.75-.19-1.36-.28-1.82a1.63,1.63,0,0,0-.14-.71,1.41,1.41,0,0,0-.56-.84,4.62,4.62,0,0,0-3.38-.56c-.56.09-1.78.33-3.65.7q-4.63,1-6.19.14a1.45,1.45,0,0,0-1.4,2.53Z" transform="translate(-6.41 -0.55)" fill="#875522"/><path d="M375.06,65a.59.59,0,0,0,.42.14,49.55,49.55,0,0,0,0,7.31,43.09,43.09,0,0,0,3.73,14.4,28.92,28.92,0,0,0,8.78,11,21.52,21.52,0,0,0,13.5,4.42A22.63,22.63,0,0,0,412,100a30.73,30.73,0,0,0,8.71-7.16,1.5,1.5,0,0,0-2.25-2,26.67,26.67,0,0,1-7.73,6.61,20,20,0,0,1-9.27,2,19.27,19.27,0,0,1-16-7.87q-6.12-7.87-7.23-19.39a41.71,41.71,0,0,1,0-6.89,36.05,36.05,0,0,0,3.65.14q4.77.14,13.35.28,7.72.13,13.35.28h6.75a2.69,2.69,0,0,0,2.11-1.68,23.23,23.23,0,0,0,1.12-7.59,29.61,29.61,0,0,0-.7-7.45q-2-6-10.12-10.41t-14.2-2.66a22.3,22.3,0,0,0-12.22,9.62,39.07,39.07,0,0,0-5.63,16.52,1.24,1.24,0,0,0-1.54,1C373.84,64.19,374.12,64.75,375.06,65Zm8.64-17.5A19.82,19.82,0,0,1,394.46,39q4.77-1.55,12,2.31t8.65,8.79a22.59,22.59,0,0,1,.7,6.61A23.07,23.07,0,0,1,415,63.2h-6.19q-5.76-.14-13.35-.28-9.13-.14-13.49-.28c-1.31,0-2.48,0-3.51-.14A35.53,35.53,0,0,1,383.7,47.53Z" transform="translate(-6.41 -0.55)" fill="#875522"/><path d="M428.05,44.51l3.23-1.27a43.93,43.93,0,0,1,4.22-1.82,23.18,23.18,0,0,1,4.08-1.27A2.55,2.55,0,0,1,441,40v.42a7.3,7.3,0,0,1,.42,1.83c.19,1.59.33,3.75.42,6.46s.19,6.14.28,10.26v.85q.13,2.1.14,8,.28,29.52.43,32.47c-.48,0-2.42,0-5.84.14s-6,.14-7.66.14a1.41,1.41,0,0,0,0,2.81c1.88,0,5.06-.07,9.56-.21s8.39-.17,11.67-.07,6.41.32,9.41.7a1.41,1.41,0,1,0,.29-2.81,126.86,126.86,0,0,0-14.62-.7q-.15-2.82-.43-32.47c0-4.41,0-7.31-.14-8.71.29-2,1.78-4.36,4.5-7.17a38.4,38.4,0,0,1,10.26-7.73q6-3.24,9.7-2.67a3.56,3.56,0,0,1,2.53,1.54A6.94,6.94,0,0,1,473,47.46a1.41,1.41,0,1,0,2.81,0,10.47,10.47,0,0,0-1.54-6,6.94,6.94,0,0,0-4.5-2.68q-4.64-.69-11.52,3a45.39,45.39,0,0,0-11,8.29c-.93,1-1.78,2-2.53,2.95,0-1.59,0-3-.13-4.36a50.56,50.56,0,0,0-.57-6.6c-.09-.94-.19-1.69-.28-2.25A3.67,3.67,0,0,0,443,38c-.76-.84-2.07-1.07-3.94-.7a24.29,24.29,0,0,0-4.5,1.4q-1.26.57-4.35,1.83a19.88,19.88,0,0,1-3,1.13,1.28,1.28,0,0,0-.91,1.75A1.34,1.34,0,0,0,428.05,44.51Z" transform="translate(-6.41 -0.55)" fill="#875522"/><path d="M546.7,262.83c-13-6.17-30.69-9.18-53-9.18A210,210,0,0,0,426,265.24l-12,4.06c-19.13,6.77-38.06,14.28-56.76,22.71-1.07-.3-2.11-.75-3.19-1.05-5.26-1.81-10.28-3.76-15.35-5.72-1.67-.75-3.57-1.5-5.26-2.26-4-1.65-7.77-3.3-11.56-5,4-1.36,7.79-2.56,11.56-3.92,4.63-1.5,9.25-3.15,13.89-4.66,2.31-.75,4.62-1.5,6.72-2.25,6.12-1.8,12-3.61,17.67-5.11a130,130,0,0,1-17.67-2.56c-3.57-.75-7.34-1.81-11.14-2.86-3.37-1.05-6.52-2.11-9.47-3.15-5.88-2-11.34-3.93-16-5.87a21.49,21.49,0,0,1-2.72,1.2,129.42,129.42,0,0,1-20.4,7.07c-2.31.6-4.64,1.06-7.16,1.5-5.26,1.06-10.31,2-14.93,2.55-4.4.61-8.2,1.07-11.78,1.22a91.64,91.64,0,0,1,11.78,2.56,121.18,121.18,0,0,1,12,4.05c3.15,1.36,6.53,2.71,10.1,4.21q8.19,3.4,17,7.68c-5.66,1.8-11.34,3.61-17,5.56-5.9,1.81-11.56,3.76-17,5.56-1.68-.75-3.36-1.65-5-2.4-9.67-4.82-19.34-9.33-29.44-13.83-9.67-4.22-19.56-8.12-29.44-11.59-2.11-.76-4.21-1.5-6.31-2.11a294.29,294.29,0,0,0-37.65-9.62,204.63,204.63,0,0,0-38.48-3.61,143.94,143.94,0,0,0-23.77,1.94,102.37,102.37,0,0,0-21.88,6.18,45.6,45.6,0,0,0-16,11.12,23.34,23.34,0,0,0-6.1,16c0,7.2,3.16,13.52,9.25,19.25,6.1,5.56,14.09,10.07,23.77,13.68a174,174,0,0,0,32,8.27,217.76,217.76,0,0,0,33.44,2.71,132.11,132.11,0,0,0,23.77-2.12,99.19,99.19,0,0,0,21-5.84c.63-.77.84-1.37.21-1.81a1.55,1.55,0,0,0-1.89.29,74.13,74.13,0,0,1-19.14,5.42A155.19,155.19,0,0,1,164,324.35a190,190,0,0,1-31.35-2.7,165.43,165.43,0,0,1-30.28-8.27,81.55,81.55,0,0,1-22.92-13.09c-5.9-5.26-8.84-11.14-8.84-17.44s1.89-11.3,5.89-15.36a38.83,38.83,0,0,1,14.93-9.92,87.48,87.48,0,0,1,19.56-5,156.31,156.31,0,0,1,20-1.35A196.76,196.76,0,0,1,200.54,264c4.21,1.65,8.62,3.31,12.83,5,18.31,7.37,36.39,15.5,54.25,24.67-5.46,1.52-10.94,3.16-16.4,4.52a121.21,121.21,0,0,1-17,3.45c-7.14-3.29-14.3-6.16-20.81-8.57l-6.94-2.26a87.27,87.27,0,0,0-24.61-4.06,53.5,53.5,0,0,0-13.24,1.81c-4.62,1.21-7,3-7,5.41s1.48,4.38,4.21,5.88a40.9,40.9,0,0,0,10.31,3.46A121.24,121.24,0,0,0,189.6,305c4.83.44,9.25.6,13.46.6,3.37,0,6.94,0,10.31-.16,4-.13,8.21-.59,12.41-.88q10.71,5.4,22.07,12.17c7.56,4.36,15.77,8.86,24.4,13.39-6.1,2.41-11.78,4.65-17,6.76a115.17,115.17,0,0,1-16,5.11c-5.68-1.2-11.16-2.39-16.61-3.3-3.16-.59-6.32-.9-9.26-1.21-2.11-.14-4.21-.14-6.31-.14a41.47,41.47,0,0,0-12.2,1.8c-3.79,1.21-5.89,2.85-5.89,5s2.32,3.6,6.52,4.36a72.87,72.87,0,0,0,12.62,1.21c1.69,0,3.37,0,5.26-.16,2.31-.31,5-.59,8-1.05a144.86,144.86,0,0,0,14.93-3.15c6.72,2.39,13.89,5.26,21,8.56,5,2.25,9.87,4.81,14.92,7.67,2.1,1.36,4.42,2.71,6.73,4.06-2.31,1.06-4.63,2.11-6.73,3a186.05,186.05,0,0,1-21,7.82,83.07,83.07,0,0,1-24.39,4.05c-2.53,0-5.25-.14-7.78-.29a30.8,30.8,0,0,1-5.68-.61c-.42-.15-.84-.15-1.47-.3a1.6,1.6,0,0,0-1.9-.45c-.42.3-.42.75.22,1.21a25.22,25.22,0,0,0,3.15,1,48.36,48.36,0,0,0,14.71,2.12c7.37,0,15.77-1.51,25-4.53,6.32-2.1,12.62-4.35,19.14-7.06,3.15-1.36,6.52-2.86,10.1-4.36l12,8.12q9.15,6.54,17,13.1a77.28,77.28,0,0,0-13.45,17.44,34.48,34.48,0,0,0-3.57,8.57,29.45,29.45,0,0,0-1.48,9.63,31,31,0,0,0,1.48,10.08,26.67,26.67,0,0,0,5.26,9.92c3.77,4.51,8.83,7.07,15.14,7.82,1,0,2.11.16,3.37.16,6.3,0,11.33-1.21,15.33-3.78a13.38,13.38,0,0,0,3.8-3.3c4.4-4.65,6.53-10.38,6.53-17.29S341.45,414,337,406.63c-1.06-1.8-2.32-3.61-3.59-5.42a101.72,101.72,0,0,0-14.91-15.95c4.19-3.31,8.19-6.31,12.18-9.17a30.44,30.44,0,0,1,2.73-2.1c3.18-2.25,6.52-4.51,10.33-6.77,3.56,1.5,6.94,2.86,10.28,4.21a241.79,241.79,0,0,0,25,7.82,116,116,0,0,0,33,3.61c1.68-.6,1.68-1.05,0-1.65A113.22,113.22,0,0,1,382,376.09a255,255,0,0,1-28-10.83c-1-.44-2.31-1.05-3.57-1.65,1.26-.6,2.53-1.21,3.57-1.66a282.6,282.6,0,0,1,33.45-12.79,111.1,111.1,0,0,0,14.72,3A109,109,0,0,0,414,353.23h1.91a86.15,86.15,0,0,0,14.49-1.35c5.26-1.06,8-2.72,8-5.12,0-3.61-5-5.56-15.14-5.56-3.16,0-6.1.15-9.26.45l-6.93.9c-5.68,1.06-11.36,2.11-17.46,3.46a213.19,213.19,0,0,1-35.56-14.88,10.43,10.43,0,0,0-1.88-1.06c.62-.31,1.28-.75,1.88-1.06,6.73-3.3,13.48-6.76,20-9.92,6.93-3.62,13.87-7.22,20.6-10.68a118,118,0,0,0,12.83,1.64c2.33.15,4.41.15,6.52.31h6.32a172,172,0,0,0,17.67-.75,82,82,0,0,0,15.33-2.56,40.89,40.89,0,0,0,10.94-4.35c2.74-1.82,4.21-3.92,4.21-6.33A5.68,5.68,0,0,0,465.1,291c-2.1-1.2-6.1-1.81-11.78-1.81a95.87,95.87,0,0,0-25.43,3.91A132,132,0,0,0,414,297.57c-4.62,1.81-9.46,3.76-14.29,6-7.16-1.37-13.89-2.87-20.4-4.53s-13-3.76-19.35-5.86c18.09-8.13,36-15.33,54-21.81,3.16-1.19,6.52-2.25,9.67-3.31,21.24-7.22,42.07-10.83,62.26-10.83a216,216,0,0,1,26.28,1.51,128.24,128.24,0,0,1,23.35,5.1q10.71,3.4,17,8.59c4.41,3.45,6.51,7.67,6.51,12.78a25.46,25.46,0,0,1-7.57,18.21,59.77,59.77,0,0,1-19.77,12.92,129.34,129.34,0,0,1-28,8,171.21,171.21,0,0,1-31.34,2.85c-6.31,0-13.47-.29-21.23-1-8-.62-17.05-2.56-27.57-5.72a1.67,1.67,0,0,0-1.68,0c-.2.3,0,.6.64,1.21a172.63,172.63,0,0,0,25.45,5.7,161.38,161.38,0,0,0,26.49,2.26,202.39,202.39,0,0,0,35.11-2.85,124,124,0,0,0,29-8.14A57.06,57.06,0,0,0,558.9,304.8a28.36,28.36,0,0,0,7.58-19.56C566.48,276.36,559.75,269,546.7,262.83ZM213.37,304c-3.79.31-7.57.47-11.36.47-4.21,0-8.41-.31-12.61-.62a119.25,119.25,0,0,1-12-1.79,32.74,32.74,0,0,1-9-3.32c-2.32-1.35-3.37-2.87-3.37-4.82,0-1.5,1.89-2.7,5.68-3.31a54.53,54.53,0,0,1,11.14-1c5.26,0,11.15,1.2,18.09,3.61,4.2,1.51,8.62,3.32,13.46,5.42,2.94,1.34,6.31,2.86,9.68,4.67C219.88,303.6,216.53,303.89,213.37,304Zm0,42.87c-2.31.16-4.42.31-6.31.31a47.88,47.88,0,0,1-8.41-.6c-2.74-.45-4-1.21-4-2.56,0-1.06,1.48-2.12,4.42-2.86a39.88,39.88,0,0,1,9.67-1.21c1.48,0,2.95.16,4.63.16a93.19,93.19,0,0,1,18.51,3.91A142,142,0,0,1,213.37,346.91ZM414,344.06a71.86,71.86,0,0,1,8-.45c4.84,0,8.21.45,9.67,1.2s2.11,1.5,2.11,1.95c0,1.36-1.68,2.4-5,3.31a50.19,50.19,0,0,1-11.16,1.21c-1,0-2.3-.16-3.57-.16a100.64,100.64,0,0,1-20-3.46A98.12,98.12,0,0,1,414,344.06Zm0-43.47c5.48-2.12,10.52-3.91,15.58-5.41a78.07,78.07,0,0,1,22.7-3.63,28.19,28.19,0,0,1,9.47,1.51c2.73.9,4,2.25,4,4.22,0,1.5-1.26,3-4,4.21a34.62,34.62,0,0,1-9.47,2.71,72.21,72.21,0,0,1-11.14,1.35c-3.8.3-6.72.44-9.05.44-4.85,0-9.46-.14-14.29-.44-1.27,0-2.53-.16-3.8-.16l-9.88-.88C407.48,303,410.85,301.78,414,300.59Zm-115-32.8c-1.47-.75-3.16-1.34-4.62-2-4.64-2.1-9.26-3.76-13.67-5.42,4.62-.9,9.25-1.8,13.67-2.85a162.07,162.07,0,0,0,19.13-6l1.27.46c5.87,2.41,12.2,4.51,18.7,6.47.45.15.84.15,1.48.3,6.72,2,13.25,4.06,19.13,6a11.53,11.53,0,0,1,1.5.46c-.42.15-1.06.15-1.5.3-5.88,1.5-11.56,3.15-17,4.81a32.87,32.87,0,0,1-3.59,1.2c-4.84,1.51-9.87,3.17-14.91,4.81-1.26-.45-2.53-1-3.79-1.64C309.27,272.29,304.22,270,299,267.79ZM294.34,288c1.05-.31,2.1-.75,3.35-1.21,5.26-1.8,10.95-3.76,16.42-5.86.21,0,.4.15.63.15,5.45,2.55,10.93,5.11,16.39,7.37.84.3,1.5.6,2.31.9,5.06,2.1,10.09,4.23,15.35,6.32-5.26,2.56-10.29,5-15.35,7.21a11.77,11.77,0,0,1-1.05.62c-5.45,2.54-10.93,5.12-16.61,7.82a2.94,2.94,0,0,0-1-.6c-5.69-3-11.15-6-16.62-9-1.26-.75-2.52-1.48-3.78-2.1-4.64-2.41-9-4.81-13.67-7.07C285.29,291,289.92,289.45,294.34,288Zm33,36.69c1.89,1.07,4,2.27,6.08,3.33,2.95,1.5,6.1,3,9.25,4.51-3.15,1.65-6.3,3.31-9.25,4.95-1.24.75-2.73,1.52-4,2.26-4.19,2.25-8.4,4.67-12.59,7.07a12.79,12.79,0,0,1-2.11-1.2c-4.84-2.85-9.68-5.57-14.3-8.27-2.11-1.2-4-2.41-6.1-3.61-3.57-2-6.95-3.77-10.32-5.71,3.37-1.52,6.75-3.16,10.32-4.52,1.05-.45,2.1-.9,3.35-1.35,4.64-2,9.25-3.92,13.67-6,1.07.59,2.33,1.19,3.38,1.65C319.15,320.14,323.37,322.39,327.36,324.64ZM259,314c-7.59-3.92-15.16-7.67-22.72-11.14a126,126,0,0,0,17.46-3.45c5.68-1.35,11.34-3,17.24-4.51.43.16.84.31,1.26.44,5.89,3.16,11.77,6.18,17.45,9.49,1.69.9,3.16,1.65,4.64,2.56,4.62,2.56,9,5.12,13.67,7.51-4.42,2.12-9.05,4.07-13.47,6h-.2c-4.42,1.8-8.63,3.74-12.63,5.55L272.25,321C267.85,318.62,263.43,316.37,259,314Zm13.24,40.61c-2.32-1.05-4.63-2.09-6.74-3.16a162.46,162.46,0,0,0-21.85-8.27c8.82-2.56,18.28-6,28.59-10.07A22,22,0,0,0,275,332c5.68,3,11.14,6,16.82,9.17.84.45,1.68,1.05,2.53,1.51,4.83,2.7,9.68,5.41,14.71,8.11-3.79,2.11-7.36,4.07-11.14,6-1.26.61-2.52,1.21-3.57,1.8-2.53,1.21-5,2.27-7.57,3.31C281.92,359.4,277.1,357,272.25,354.58Zm59.31,56.71c.64.9,1.26,1.95,1.88,2.86,3.59,5.87,5.26,11.43,5.26,16.7,0,5.56-1.67,10.37-5.26,14.13a19.4,19.4,0,0,1-18.7,5.27A23.88,23.88,0,0,1,303,444.08c-4.83-4.66-7.35-11-7.35-19.26a36.16,36.16,0,0,1,4.84-17.75,78.68,78.68,0,0,1,12.61-16.68c.64.6,1.06,1,1.69,1.64A130.35,130.35,0,0,1,331.56,411.29ZM333.44,371c-1.88,1.22-3.77,2.41-5.66,3.62a93.47,93.47,0,0,0-11.36,9,10.06,10.06,0,0,1-1.68-1.5c-3.57-3.16-7.15-6.17-10.95-9a91.26,91.26,0,0,0-9.45-6.62c-1.69-1.06-3.17-2-4.84-2.86,1.67-.75,3.15-1.5,4.84-2.41,2.1-1.06,4.2-2.1,6.31-3.15,3.79-2,7.78-3.92,11.78-6,.84.47,1.46.76,2.31,1.21,4,2.26,8,4.22,12,6.17,2.33,1.05,4.41,2.1,6.72,3.16,2.53,1.2,5.06,2.4,7.59,3.46Zm20.61-33.23c3.58,1.5,6.94,2.85,10.33,4.06,6.5,2.26,12.6,4.21,18.5,5.86a243.33,243.33,0,0,0-28.83,11.58c-2.1,1.06-4.18,2.12-6.3,3.16-4.62-2.1-9.05-4.35-13.66-6.76-.2-.15-.43-.15-.65-.3-4.39-2.26-9-4.81-13.64-7.37,4-2.11,8.4-4.36,12.83-6.93.19-.14.61-.3.81-.45,4.22-2.41,8.2-4.66,12-6.91C348.39,335,351.32,336.39,354.05,337.74Zm36.19-30.08c-11.57,5.4-23.55,11.43-36.19,18.19-1.65,1.06-3.57,2-5.26,3-4.83-2.71-9.87-5.42-15.13-8,0-.16-.22-.16-.22-.16-5.24-2.71-10.3-5.41-15.33-8.26,5-2.28,10.09-4.52,15.33-6.93a11.86,11.86,0,0,1,1.48-.75c5.46-2.7,11.38-5.27,17.25-8,.62.3,1.28.46,1.88.75A309.43,309.43,0,0,0,390.24,307.66Z" transform="translate(-6.41 -0.55)" fill="#875522"/></svg>